SplineFontDB: 3.0
FontName: Neuton-Light
FullName: Neuton Light
FamilyName: Neuton
Weight: Light
Copyright: Copyright (c) 2010, 2011 Brian M Zick (http://21326.info/),\nwith Reserved Font Name "Neuton".\nMinor cleanup by Wallace Smith and William Zick.\n\nThis Font Software is licensed under the SIL Open Font License, Version 1.1.\nThis license is available with a FAQ at: http://scripts.sil.org/OFL\n   WITHOUT WARRANTIES OR CONDITIONS OF ANY KIND, either express or implied.\n   See the License for the specific language governing permissions and\n   limitations under the License.
UComments: "2011-6-6: Created." 
Version: 1.41
ItalicAngle: 0
UnderlinePosition: -361
UnderlineWidth: 0
Ascent: 1638
Descent: 410
LayerCount: 2
Layer: 0 1 "Back"  1
Layer: 1 1 "Fore"  0
XUID: [1021 467 2011608612 1910391]
FSType: 0
OS2Version: 1
OS2_WeightWidthSlopeOnly: 0
OS2_UseTypoMetrics: 0
CreationTime: 1307389376
ModificationTime: 1311361701
PfmFamily: 17
TTFWeight: 300
TTFWidth: 5
LineGap: 0
VLineGap: 0
OS2TypoAscent: 1927
OS2TypoAOffset: 0
OS2TypoDescent: -418
OS2TypoDOffset: 0
OS2TypoLinegap: 0
OS2WinAscent: 1927
OS2WinAOffset: 0
OS2WinDescent: 418
OS2WinDOffset: 0
HheadAscent: 1927
HheadAOffset: 0
HheadDescent: -418
HheadDOffset: 0
OS2Vendor: 'PfEd'
Lookup: 1 0 0 "'sups' Superscript lookup 0"  {"'sups' Superscript lookup 0 subtable" ("superior" ) } ['sups' ('DFLT' <'dflt' > ) ]
MarkAttachClasses: 1
DEI: 91125
ShortTable: maxp 16
  0
  0
  0
  0
  0
  0
  0
  2
  1
  2
  22
  0
  256
  0
  0
  0
EndShort
TtTable: prep
PUSHW_1
 511
SCANCTRL
PUSHB_1
 1
SCANTYPE
SVTCA[y-axis]
MPPEM
PUSHB_1
 8
LT
IF
PUSHB_2
 1
 1
INSTCTRL
EIF
PUSHB_2
 70
 6
CALL
IF
POP
PUSHB_1
 16
EIF
MPPEM
PUSHB_1
 20
GT
IF
POP
PUSHB_1
 128
EIF
SCVTCI
PUSHB_1
 6
CALL
NOT
IF
SVTCA[y-axis]
PUSHB_1
 5
DUP
RCVT
PUSHB_1
 3
CALL
WCVTP
PUSHB_1
 6
DUP
RCVT
PUSHB_3
 5
 26
 2
CALL
PUSHB_1
 3
CALL
WCVTP
PUSHB_1
 7
DUP
RCVT
PUSHB_3
 6
 26
 2
CALL
PUSHB_1
 3
CALL
WCVTP
PUSHB_1
 8
DUP
RCVT
PUSHB_3
 7
 195
 2
CALL
PUSHB_1
 3
CALL

StartChar: A
Encoding: 65 65 0
Width: 1324
VWidth: 0
Flags: W
HStem: 0 58<43 91.3423 407.32 469 805 861.344 1212.69 1257> 455 79<453 826> 1248 20G<635.273 734.854>
DStem2: 188 101 294 95 0.357284 0.933996<32.2681 415.311 499.1 499.1> 728 1268 646 1060 0.324201 -0.945988<170.181 726.127 808.641 1183.72>
LayerCount: 2
Fore
SplineSet
453 534 m 1,0,-1
 826 534 l 1,1,-1
 646 1060 l 1,2,-1
 453 534 l 1,0,-1
35 0 m 1,3,-1
 43 58 l 1,4,-1
 188 101 l 1,5,-1
 626 1246 l 1,6,-1
 728 1268 l 1,7,-1
 1130 95 l 1,8,-1
 1265 64 l 1,9,-1
 1257 0 l 1,10,-1
 795 0 l 1,11,-1
 805 58 l 1,12,-1
 974 101 l 1,13,-1
 850 455 l 1,14,-1
 425 455 l 1,15,-1
 294 95 l 1,16,-1
 479 63 l 1,17,-1
 469 0 l 1,18,-1
 35 0 l 1,3,-1
EndSplineSet
Colour: ffffff
EndChar

StartChar: AE
Encoding: 198 198 1
Width: 1686
VWidth: 0
Flags: W
HStem: 0 75<986 1500> 0 58<8 53.2887 374.829 435 661 728.907> 472 81<532 841> 596 73<986 1272> 1173 71<986 1472>
VStem: 841 145<96 472 553 596 669 1075> 1297 66<421 516.233> 1325 72<753.691 801> 1503 65<936 1045.6>
DStem2: 147 102 259 96 0.522106 0.852881<53.3586 492.56 585.66 1194.28>
LayerCount: 2
Fore
SplineSet
532 553 m 1,0,-1
 842 553 l 1,1,-1
 845 1075 l 1,2,-1
 532 553 l 1,0,-1
0 2 m 1,3,-1
 8 60 l 1,4,-1
 147 102 l 1,5,-1
 791 1154 l 1,6,-1
 567 1187 l 1,7,-1
 576 1244 l 1,8,-1
 1600 1244 l 1,9,-1
 1568 926 l 1,10,-1
 1503 936 l 1,11,-1
 1472 1173 l 1,12,-1
 986 1173 l 1,13,-1
 986 669 l 1,14,-1
 1285 669 l 1,15,-1
 1325 801 l 1,16,-1
 1397 808 l 1,17,-1
 1363 421 l 1,18,-1
 1297 409 l 1,19,-1
 1272 596 l 1,20,-1
 986 596 l 1,21,-1
 986 75 l 1,22,-1
 1500 75 l 1,23,-1
 1586 326 l 1,24,-1
 1646 313 l 1,25,-1
 1616 0 l 1,26,-1
 654 0 l 1,27,-1
 661 58 l 1,28,-1
 841 96 l 1,29,-1
 841 472 l 1,30,-1
 486 472 l 1,31,-1
 259 96 l 1,32,-1
 445 66 l 1,33,-1
 435 2 l 1,34,-1
 0 2 l 1,3,-1
EndSplineSet
Colour: ffffff
EndChar

StartChar: Aogonek
Encoding: 260 260 2
Width: 1324
VWidth: 0
Flags: W
HStem: -377 43<1282.83 1291.34> 0 58<43 91.3423 407.32 469 805 861.344 1224.43 1257> 455 79<453 826> 1248 20G<635.273 734.854>
VStem: 1058 123<-262.889 -81.0371>
DStem2: 188 101 294 95 0.357284 0.933996<32.2681 415.311 499.1 499.1> 728 1268 646 1060 0.324201 -0.945988<170.181 726.127 808.641 1183.72>
LayerCount: 2
Fore
SplineSet
453 534 m 1,0,-1
 826 534 l 1,1,-1
 646 1060 l 1,2,-1
 453 534 l 1,0,-1
35 0 m 1,3,-1
 43 58 l 1,4,-1
 188 101 l 1,5,-1
 626 1246 l 1,6,-1
 728 1268 l 1,7,-1
 1130 95 l 1,8,-1
 1265 64 l 1,9,-1
 1257 0 l 1,10,-1
 1242 0 l 1,11,12
 1181 -89 1181 -89 1181 -147 c 0,13,14
 1181 -256 1181 -256 1314 -334 c 1,15,-1
 1280 -377 l 1,16,17
 1176 -366 1176 -366 1117 -316 c 128,-1,18
 1058 -266 1058 -266 1058 -211 c 128,-1,19
 1058 -156 1058 -156 1082.5 -111 c 128,-1,20
 1107 -66 1107 -66 1178 0 c 1,21,-1
 795 0 l 1,22,-1
 805 58 l 1,23,-1
 974 101 l 1,24,-1
 850 455 l 1,25,-1
 425 455 l 1,26,-1
 294 95 l 1,27,-1
 479 63 l 1,28,-1
 469 0 l 1,29,-1
 35 0 l 1,3,-1
EndSplineSet
Colour: ffffff
EndChar

StartChar: B
Encoding: 66 66 3
Width: 1135
VWidth: 0
Flags: W
HStem: 0 75<407 805.274> 0 58<92 155.38> 618 67<407 741.572 777 803.627> 1155 56<98 183.287> 1192 65<408.945 688.899>
VStem: 260 147<96 618 685 1129> 838 145<812.49 1074.8> 936 151<201.063 498.519>
LayerCount: 2
Fore
SplineSet
407 685 m 1,0,-1
 691 685 l 1,1,2
 756 719 756 719 797 779.5 c 128,-1,3
 838 840 838 840 838 922 c 0,4,5
 838 1045 838 1045 755.5 1118.5 c 128,-1,6
 673 1192 673 1192 507 1192 c 0,7,8
 439 1192 439 1192 407 1186 c 1,9,-1
 407 685 l 1,0,-1
407 75 m 1,10,-1
 639 75 l 2,11,12
 858.29 75 858.29 75 919.5 247.5 c 0,13,14
 936 294 936 294 936 345 c 0,15,16
 936 448.727 936 448.727 867.037 533.364 c 128,-1,17
 798.074 618 798.074 618 646 618 c 2,18,-1
 407 618 l 1,19,-1
 407 75 l 1,10,-1
82 0 m 1,20,-1
 92 58 l 1,21,-1
 260 96 l 1,22,-1
 260 1129 l 1,23,-1
 89 1155 l 1,24,-1
 98 1211 l 1,25,26
 167 1222.5 167 1222.5 217 1228.75 c 2,27,-1
 318 1241.5 l 2,28,29
 439.615 1257 439.615 1257 566 1257 c 0,30,31
 769 1257 769 1257 876 1173.5 c 128,-1,32
 983 1090 983 1090 983 967 c 0,33,34
 983 875 983 875 930.5 800 c 128,-1,35
 878 725 878 725 777 679 c 1,36,-1
 777 672 l 1,37,38
 922 664 922 664 1004.5 576.5 c 128,-1,39
 1087 489 1087 489 1087 380 c 0,40,41
 1087 179.585 1087 179.585 919 78.5 c 0,42,43
 788.535 1.7436e-06 788.535 1.7436e-06 554 0 c 2,44,-1
 82 0 l 1,20,-1
EndSplineSet
Colour: ffffff
EndChar

StartChar: C
Encoding: 67 67 4
Width: 1113
VWidth: 0
Flags: W
HStem: -25 109<528.524 879.468> 1195 75<514.574 840.217>
VStem: 108 163<372.861 854.443> 963 68<846 941.573>
LayerCount: 2
Fore
SplineSet
151 336.5 m 128,-1,1
 108 455 108 455 108 572.5 c 128,-1,2
 108 690 108 690 130 782 c 128,-1,3
 152 874 152 874 200 962.5 c 128,-1,4
 248 1051 248 1051 316.5 1119 c 128,-1,5
 385 1187 385 1187 487.5 1228.5 c 128,-1,6
 590 1270 590 1270 711 1270 c 0,7,8
 932 1270 932 1270 1062 1171 c 1,9,-1
 1031 836 l 1,10,-1
 963 846 l 1,11,-1
 927 1086 l 1,12,13
 843 1195 843 1195 669.5 1195 c 128,-1,14
 496 1195 496 1195 383.5 1043 c 128,-1,15
 271 891 271 891 271 637 c 128,-1,16
 271 383 271 383 397.5 233.5 c 128,-1,17
 524 84 524 84 727 84 c 0,18,19
 827 84 827 84 920 132 c 128,-1,20
 1013 180 1013 180 1084 252 c 1,21,-1
 1113 195 l 1,22,23
 1050 111 1050 111 926.5 43 c 128,-1,24
 803 -25 803 -25 673 -25 c 128,-1,25
 543 -25 543 -25 443 18 c 128,-1,26
 343 61 343 61 268.5 139.5 c 128,-1,0
 194 218 194 218 151 336.5 c 128,-1,1
EndSplineSet
Colour: ffffff
EndChar

StartChar: Cdotaccent
Encoding: 266 266 5
Width: 1113
VWidth: 0
Flags: W
HStem: -25 109<528.524 879.468> 1195 75<514.574 840.217> 1373 208<614.722 736.247>
VStem: 108 163<372.861 854.443> 591 170<1403.43 1552.12> 963 68<846 941.573>
LayerCount: 2
Fore
SplineSet
151 336.5 m 128,-1,1
 108 455 108 455 108 572.5 c 128,-1,2
 108 690 108 690 130 782 c 128,-1,3
 152 874 152 874 200 962.5 c 128,-1,4
 248 1051 248 1051 316.5 1119 c 128,-1,5
 385 1187 385 1187 487.5 1228.5 c 128,-1,6
 590 1270 590 1270 711 1270 c 0,7,8
 932 1270 932 1270 1062 1171 c 1,9,-1
 1031 836 l 1,10,-1
 963 846 l 1,11,-1
 927 1086 l 1,12,13
 843 1195 843 1195 669.5 1195 c 128,-1,14
 496 1195 496 1195 383.5 1043 c 128,-1,15
 271 891 271 891 271 637 c 128,-1,16
 271 383 271 383 397.5 233.5 c 128,-1,17
 524 84 524 84 727 84 c 0,18,19
 827 84 827 84 920 132 c 128,-1,20
 1013 180 1013 180 1084 252 c 1,21,-1
 1113 195 l 1,22,23
 1050 111 1050 111 926.5 43 c 128,-1,24
 803 -25 803 -25 673 -25 c 128,-1,25
 543 -25 543 -25 443 18 c 128,-1,26
 343 61 343 61 268.5 139.5 c 128,-1,0
 194 218 194 218 151 336.5 c 128,-1,1
613.5 1402.5 m 128,-1,28
 591 1432 591 1432 591 1478.5 c 128,-1,29
 591 1525 591 1525 614 1553 c 128,-1,30
 637 1581 637 1581 675 1581 c 128,-1,31
 713 1581 713 1581 737 1553 c 128,-1,32
 761 1525 761 1525 761 1478 c 128,-1,33
 761 1431 761 1431 738 1402 c 128,-1,34
 715 1373 715 1373 675.5 1373 c 128,-1,27
 636 1373 636 1373 613.5 1402.5 c 128,-1,28
EndSplineSet
Colour: ffffff
EndChar

StartChar: D
Encoding: 68 68 6
Width: 1344
VWidth: 0
Flags: W
HStem: 0 79<409 809.348> 0 58<92 149.011> 1154 56<100 185.39> 1181 78<411.132 797.437>
VStem: 263 146<101 1128> 1127 163<408.919 853.102>
LayerCount: 2
Fore
SplineSet
409 79 m 1,0,-1
 571 79 l 2,1,2
 831 79 831 79 979 223.5 c 128,-1,3
 1127 368 1127 368 1127 611.273 c 128,-1,4
 1127 854.547 1127 854.547 982.487 1017.77 c 128,-1,5
 837.975 1181 837.975 1181 557 1181 c 0,6,7
 450 1181 450 1181 409 1176 c 1,8,-1
 409 79 l 1,0,-1
81 0 m 1,9,-1
 92 58 l 1,10,-1
 263 101 l 1,11,-1
 263 1128 l 1,12,-1
 90 1154 l 1,13,-1
 100 1210 l 1,14,15
 411 1259 411 1259 579.5 1259 c 128,-1,16
 748 1259 748 1259 870 1225 c 0,17,18
 1095.11 1162.26 1095.11 1162.26 1192.55 1008.86 c 128,-1,19
 1290 855.455 1290 855.455 1290 646.287 c 128,-1,20
 1290 437.118 1290 437.118 1169.76 269.388 c 128,-1,21
 1049.52 101.658 1049.52 101.658 817.5 35.5 c 0,22,23
 693 0 693 0 544 0 c 2,24,-1
 81 0 l 1,9,-1
EndSplineSet
Colour: ffffff
EndChar

StartChar: Dcroat
Encoding: 272 272 7
Width: 1353
VWidth: 0
Flags: W
HStem: 0 79<413 835.655> 0 58<97 153.677> 1155 56<104 189.838> 1182 78<416.694 796.027>
VStem: 267 146<101 587 672 1129> 1137 164<417.114 856.299>
DStem2: 97 650 86 574 0.997476 0.0710068<0 165.097 316.765 575.124>
LayerCount: 2
Fore
SplineSet
413 79 m 1,0,-1
 609 79 l 2,1,2
 861.143 79 861.143 79 999.071 226.405 c 128,-1,3
 1137 373.809 1137 373.809 1137 599 c 0,4,5
 1137 955.398 1137 955.398 878 1105.5 c 0,6,7
 746 1182 746 1182 561 1182 c 0,8,9
 462 1182 462 1182 413 1176 c 1,10,-1
 413 672 l 1,11,-1
 686 692 l 1,12,-1
 676 616 l 1,13,-1
 413 597 l 1,14,-1
 413 79 l 1,0,-1
86 574 m 1,15,-1
 97 650 l 1,16,-1
 267 662 l 1,17,-1
 267 1129 l 1,18,-1
 95 1155 l 1,19,-1
 104 1211 l 1,20,21
 415 1260 415 1260 571.5 1260 c 128,-1,22
 728 1260 728 1260 835.5 1237 c 128,-1,23
 943 1214 943 1214 1018.5 1172 c 0,24,25
 1173.57 1085.74 1173.57 1085.74 1237.28 950.462 c 128,-1,26
 1301 815.185 1301 815.185 1301 685.092 c 128,-1,27
 1301 555 1301 555 1272.5 460 c 0,28,29
 1212.94 261.465 1212.94 261.465 1030.55 130.733 c 128,-1,30
 848.153 -2.11606e-05 848.153 -2.11606e-05 557 0 c 2,31,-1
 86 0 l 1,32,-1
 97 58 l 1,33,-1
 267 101 l 1,34,-1
 267 587 l 1,35,-1
 86 574 l 1,15,-1
EndSplineSet
Colour: ffffff
EndChar

StartChar: E
Encoding: 69 69 8
Width: 1107
VWidth: 0
Flags: W
HStem: 0 75<413 942> 0 58<96 159.757> 594 74<413 716> 1173 71<93 103.219 413 916>
VStem: 265 148<96 594 668 1151> 741 66<419 514.66> 768 72<750.766 797> 946 67<934 1048.21>
LayerCount: 2
Fore
SplineSet
84 1185 m 1,0,-1
 93 1244 l 1,1,-1
 1044 1244 l 1,2,-1
 1013 925 l 1,3,-1
 946 934 l 1,4,-1
 916 1173 l 1,5,-1
 413 1173 l 1,6,-1
 413 668 l 1,7,-1
 728 668 l 1,8,-1
 768 797 l 1,9,-1
 840 808 l 1,10,-1
 807 419 l 1,11,-1
 741 408 l 1,12,-1
 716 594 l 1,13,-1
 413 594 l 1,14,-1
 413 75 l 1,15,-1
 942 75 l 1,16,-1
 1028 324 l 1,17,-1
 1090 313 l 1,18,-1
 1060 0 l 1,19,-1
 90 0 l 1,20,-1
 96 58 l 1,21,-1
 265 96 l 1,22,-1
 265 1151 l 1,23,-1
 84 1185 l 1,0,-1
EndSplineSet
Colour: ffffff
EndChar

StartChar: Ecircumflex
Encoding: 202 202 9
Width: 1107
VWidth: 0
Flags: W
HStem: 0 75<413 942> 0 58<96 159.757> 594 74<413 716> 1173 71<93 103.219 413 916>
VStem: 265 148<96 594 668 1151> 741 66<419 514.66> 768 72<750.766 797> 946 67<934 1048.21>
LayerCount: 2
Fore
SplineSet
84 1185 m 1,0,-1
 93 1244 l 1,1,-1
 1044 1244 l 1,2,-1
 1013 925 l 1,3,-1
 946 934 l 1,4,-1
 916 1173 l 1,5,-1
 413 1173 l 1,6,-1
 413 668 l 1,7,-1
 728 668 l 1,8,-1
 768 797 l 1,9,-1
 840 808 l 1,10,-1
 807 419 l 1,11,-1
 741 408 l 1,12,-1
 716 594 l 1,13,-1
 413 594 l 1,14,-1
 413 75 l 1,15,-1
 942 75 l 1,16,-1
 1028 324 l 1,17,-1
 1090 313 l 1,18,-1
 1060 0 l 1,19,-1
 90 0 l 1,20,-1
 96 58 l 1,21,-1
 265 96 l 1,22,-1
 265 1151 l 1,23,-1
 84 1185 l 1,0,-1
392 1402 m 1,24,-1
 560 1582 l 1,25,-1
 615 1596 l 1,26,-1
 793 1410 l 1,27,-1
 753 1373 l 1,28,-1
 580 1495 l 1,29,-1
 571 1495 l 1,30,-1
 422 1372 l 1,31,-1
 392 1402 l 1,24,-1
EndSplineSet
Colour: ffffff
EndChar

StartChar: Eng
Encoding: 330 330 10
Width: 1383
VWidth: 0
Flags: W
HStem: -383 21G<847.941 893.333> 0 63<79 126.246 467.377 521> 1187 57<73 124.012 891 956.762 1258.59 1330>
VStem: 246 101<96 1047> 1067 97<225 1154>
DStem2: 400 1244 347 1047 0.554132 -0.832429<134.62 1217.85>
LayerCount: 2
Fore
SplineSet
63 1188 m 1,0,-1
 73 1244 l 1,1,-1
 400 1244 l 1,2,-1
 1067 225 l 1,3,-1
 1067 1154 l 1,4,-1
 882 1187 l 1,5,-1
 891 1244 l 1,6,-1
 1341 1244 l 1,7,-1
 1330 1187 l 1,8,-1
 1164 1156 l 1,9,-1
 1164 151 l 2,10,11
 1164 -192 1164 -192 905 -356 c 1,12,-1
 860 -383 l 1,13,-1
 819 -315 l 1,14,15
 897 -258 897 -258 950 -176.5 c 128,-1,16
 1003 -95 1003 -95 1022 33 c 1,17,-1
 347 1047 l 1,18,-1
 347 90 l 1,19,-1
 531 63 l 1,20,-1
 521 0 l 1,21,-1
 73 0 l 1,22,-1
 79 58 l 1,23,-1
 246 96 l 1,24,-1
 246 1147 l 1,25,-1
 63 1188 l 1,0,-1
EndSplineSet
Colour: ffffff
EndChar

StartChar: Eth
Encoding: 208 208 11
Width: 1348
VWidth: 0
Flags: W
HStem: 0 79<409 828.688> 0 58<92 149.011> 1155 56<100 185.39> 1182 78<411.338 798.338>
VStem: 263 146<101 587 672 1129> 1132 165<419.167 850.313>
DStem2: 92 650 82 574 0.997467 0.0711267<0 166.086 317.762 575.115>
LayerCount: 2
Fore
SplineSet
409 79 m 1,0,-1
 605 79 l 2,1,2
 771 79 771 79 892 148 c 0,3,4
 1132 284.859 1132 284.859 1132 599 c 0,5,6
 1132 854.603 1132 854.603 984.984 1018.3 c 128,-1,7
 837.968 1182 837.968 1182 557 1182 c 0,8,9
 458 1182 458 1182 409 1176 c 1,10,-1
 409 672 l 1,11,-1
 681 692 l 1,12,-1
 671 616 l 1,13,-1
 409 597 l 1,14,-1
 409 79 l 1,0,-1
82 574 m 1,15,-1
 92 650 l 1,16,-1
 263 662 l 1,17,-1
 263 1129 l 1,18,-1
 90 1155 l 1,19,-1
 100 1211 l 1,20,21
 411 1260 411 1260 580 1260 c 128,-1,22
 749 1260 749 1260 871.5 1226.5 c 0,23,24
 1096.21 1165.05 1096.21 1165.05 1196.6 1011.04 c 128,-1,25
 1297 857.039 1297 857.039 1297 650.59 c 128,-1,26
 1297 444.141 1297 444.141 1174.72 274.363 c 128,-1,27
 1052.44 104.586 1052.44 104.586 823 36.5 c 0,28,29
 700 0 700 0 553 0 c 2,30,-1
 81 0 l 1,31,-1
 92 58 l 1,32,-1
 263 101 l 1,33,-1
 263 587 l 1,34,-1
 82 574 l 1,15,-1
EndSplineSet
Colour: ffffff
EndChar

StartChar: Euro
Encoding: 8364 8364 12
Width: 1117
VWidth: 0
Flags: W
HStem: -25 88<540.172 847.965> 493 83<-20 142 318 788> 672 82<-12 143 313 835> 1190 80<523.233 840.586>
VStem: 143 165<348.615 493 576 672 754 881.756> 938 65<846 938.99> 954 66<322.46 417>
LayerCount: 2
Fore
SplineSet
142 576 m 1,0,-1
 141 610 l 2,1,2
 141 630 141 630 143 672 c 1,3,-1
 -17 672 l 1,4,-1
 -12 754 l 1,5,-1
 153 754 l 1,6,7
 189.396 968.331 189.396 968.331 331.908 1119.17 c 128,-1,8
 474.421 1270 474.421 1270 717 1270 c 0,9,10
 818 1270 818 1270 891 1247.5 c 128,-1,11
 964 1225 964 1225 1035 1171 c 1,12,-1
 1003 836 l 1,13,-1
 938 846 l 1,14,-1
 901 1086 l 1,15,16
 865 1139 865 1139 818.5 1164.5 c 128,-1,17
 772 1190 772 1190 687 1190 c 0,18,19
 526 1190 526 1190 430 1074 c 128,-1,20
 334 958 334 958 313 754 c 1,21,-1
 852 754 l 1,22,-1
 835 672 l 1,23,-1
 308 672 l 1,24,-1
 308 641 l 2,25,26
 308 618 308 618 310 576 c 1,27,-1
 805 576 l 1,28,-1
 788 493 l 1,29,-1
 318 493 l 1,30,31
 347 291 347 291 450.5 177 c 128,-1,32
 554 63 554 63 715 63 c 0,33,34
 767 63 767 63 822 90.5 c 128,-1,35
 877 118 877 118 917 173 c 1,36,-1
 954 417 l 1,37,-1
 1020 426 l 1,38,-1
 1051 107 l 1,39,40
 956 36 956 36 869.5 5.5 c 128,-1,41
 783 -25 783 -25 664 -25 c 0,42,43
 455 -25 455 -25 316 114.5 c 128,-1,44
 177 254 177 254 148 493 c 1,45,-1
 -26 493 l 1,46,-1
 -20 576 l 1,47,-1
 142 576 l 1,0,-1
EndSplineSet
Colour: ffffff
EndChar

StartChar: F
Encoding: 70 70 13
Width: 1123
VWidth: 0
Flags: W
HStem: 0 58<91 154.757 558.08 637> 579 73<409 710> 1173 71<89 100.007 409 906>
VStem: 260 149<96 579 652 1151> 734 69<402 503.299> 761 71<736.544 782> 934 68<933 1047.37>
LayerCount: 2
Fore
SplineSet
81 1185 m 1,0,-1
 89 1244 l 1,1,-1
 1039 1244 l 1,2,-1
 1002 923 l 1,3,-1
 934 933 l 1,4,-1
 906 1173 l 1,5,-1
 409 1173 l 1,6,-1
 409 652 l 1,7,-1
 720 652 l 1,8,-1
 761 782 l 1,9,-1
 832 792 l 1,10,-1
 803 402 l 1,11,-1
 734 391 l 1,12,-1
 710 579 l 1,13,-1
 409 579 l 1,14,-1
 408 96 l 1,15,-1
 649 68 l 1,16,-1
 637 0 l 1,17,-1
 86 0 l 1,18,-1
 91 58 l 1,19,-1
 260 96 l 1,20,-1
 260 1151 l 1,21,-1
 81 1185 l 1,0,-1
EndSplineSet
Colour: ffffff
EndChar

StartChar: G
Encoding: 71 71 14
Width: 1357
VWidth: 0
Flags: W
HStem: -26 87<560.403 958.073> 495 61<756 823.197 1216.38 1264> 1182 80<519.24 897.518>
VStem: 108 164<382.082 841.481> 984 151<94.9985 463> 1044 66<852 944.967>
LayerCount: 2
Fore
SplineSet
735 1262 m 0,0,1
 991.061 1262 991.061 1262 1138 1162 c 1,2,-1
 1110 841 l 1,3,-1
 1044 852 l 1,4,-1
 1011 1066 l 1,5,6
 971 1112 971 1112 886.5 1147 c 128,-1,7
 802 1182 802 1182 693 1182 c 0,8,9
 508 1182 508 1182 390 1037 c 128,-1,10
 272 892 272 892 272 640 c 0,11,12
 272 453.785 272 453.785 348.5 309.5 c 0,13,14
 480.255 61 480.255 61 768 61 c 0,15,16
 898 61 898 61 984 119 c 1,17,-1
 985 463 l 1,18,-1
 746 495 l 1,19,-1
 756 556 l 1,20,-1
 1274 556 l 1,21,-1
 1264 499 l 1,22,-1
 1135 467 l 1,23,-1
 1135 79 l 1,24,25
 1038 21 1038 21 926 -2.5 c 128,-1,26
 814 -26 814 -26 659 -26 c 0,27,28
 407 -26 407 -26 257.5 145 c 128,-1,29
 108 316 108 316 108 591 c 0,30,31
 108 773 108 773 189.5 926.5 c 128,-1,32
 271 1080 271 1080 415.5 1171 c 128,-1,33
 560 1262 560 1262 735 1262 c 0,0,1
EndSplineSet
Colour: ffffff
EndChar

StartChar: Gdotaccent
Encoding: 288 288 15
Width: 1357
VWidth: 0
Flags: W
HStem: -26 87<560.403 958.073> 495 61<756 823.197 1216.38 1264> 1182 80<519.24 897.518> 1373 208<651.722 773.247>
VStem: 108 164<382.082 841.481> 628 170<1403.43 1552.12> 984 151<94.9985 463> 1044 66<852 944.967>
LayerCount: 2
Fore
SplineSet
735 1262 m 0,0,1
 991.061 1262 991.061 1262 1138 1162 c 1,2,-1
 1110 841 l 1,3,-1
 1044 852 l 1,4,-1
 1011 1066 l 1,5,6
 971 1112 971 1112 886.5 1147 c 128,-1,7
 802 1182 802 1182 693 1182 c 0,8,9
 508 1182 508 1182 390 1037 c 128,-1,10
 272 892 272 892 272 640 c 0,11,12
 272 453.785 272 453.785 348.5 309.5 c 0,13,14
 480.255 61 480.255 61 768 61 c 0,15,16
 898 61 898 61 984 119 c 1,17,-1
 985 463 l 1,18,-1
 746 495 l 1,19,-1
 756 556 l 1,20,-1
 1274 556 l 1,21,-1
 1264 499 l 1,22,-1
 1135 467 l 1,23,-1
 1135 79 l 1,24,25
 1038 21 1038 21 926 -2.5 c 128,-1,26
 814 -26 814 -26 659 -26 c 0,27,28
 407 -26 407 -26 257.5 145 c 128,-1,29
 108 316 108 316 108 591 c 0,30,31
 108 773 108 773 189.5 926.5 c 128,-1,32
 271 1080 271 1080 415.5 1171 c 128,-1,33
 560 1262 560 1262 735 1262 c 0,0,1
650.5 1402.5 m 128,-1,35
 628 1432 628 1432 628 1478.5 c 128,-1,36
 628 1525 628 1525 651 1553 c 128,-1,37
 674 1581 674 1581 712 1581 c 128,-1,38
 750 1581 750 1581 774 1553 c 128,-1,39
 798 1525 798 1525 798 1478 c 128,-1,40
 798 1431 798 1431 775 1402 c 128,-1,41
 752 1373 752 1373 712.5 1373 c 128,-1,34
 673 1373 673 1373 650.5 1402.5 c 128,-1,35
EndSplineSet
Colour: ffffff
EndChar

StartChar: Germandbls
Encoding: 7838 7838 16
Width: 1284
VWidth: 0
Flags: W
HStem: -25 82<720.056 1021.95> 0 57<79 140.387> 1191 70<548.097 773.89>
VStem: 246 146<96 1012.32> 531 72<285.435 377> 548 133<811.3 1042.56> 1082 102<976.303 1043.74> 1099 146<144.227 376.568>
LayerCount: 2
Fore
SplineSet
72 0 m 1,0,-1
 79 57 l 1,1,-1
 246 96 l 1,2,-1
 246 758 l 2,3,4
 246 1261 246 1261 725 1261 c 0,5,6
 882.061 1261 882.061 1261 1024.5 1211.5 c 0,7,8
 1095 1187 1095 1187 1139.5 1144 c 128,-1,9
 1184 1101 1184 1101 1184 1051 c 128,-1,10
 1184 1001 1184 1001 1159.5 975.5 c 128,-1,11
 1135 950 1135 950 1082 932 c 1,12,13
 1024 1153 1024 1153 871 1153 c 0,14,15
 801 1153 801 1153 741 1094.5 c 128,-1,16
 681 1036 681 1036 681 937.8 c 128,-1,17
 681 839.6 681 839.6 766.465 769.091 c 128,-1,18
 851.93 698.583 851.93 698.583 933.965 656.792 c 0,19,20
 1072.07 586.435 1072.07 586.435 1158.54 508.617 c 128,-1,21
 1245 430.8 1245 430.8 1245 312 c 0,22,23
 1245 159 1245 159 1132 67 c 128,-1,24
 1019 -25 1019 -25 840 -25 c 0,25,26
 734 -25 734 -25 645 14 c 128,-1,27
 556 53 556 53 510 118 c 1,28,-1
 531 388 l 1,29,-1
 603 377 l 1,30,-1
 634 179 l 1,31,32
 664 125 664 125 732.5 91 c 128,-1,33
 801 57 801 57 886.5 57 c 128,-1,34
 972 57 972 57 1035.5 106 c 128,-1,35
 1099 155 1099 155 1099 257.119 c 128,-1,36
 1099 359.237 1099 359.237 989.5 436 c 0,37,38
 941 470 941 470 882.5 502.5 c 1,39,-1
 765 570.5 l 1,40,41
 706 606 706 606 657.5 646.5 c 0,42,43
 548 737.938 548 737.938 548 859.969 c 128,-1,44
 548 982 548 982 609.5 1071 c 128,-1,45
 671 1160 671 1160 773 1184 c 1,46,-1
 775 1188 l 1,47,48
 745 1191 745 1191 687 1191 c 0,49,50
 542 1191 542 1191 467 1083 c 128,-1,51
 392 975 392 975 392 780 c 2,52,-1
 392 0 l 1,53,-1
 72 0 l 1,0,-1
EndSplineSet
Colour: ffffff
EndChar

StartChar: H
Encoding: 72 72 17
Width: 1446
VWidth: 0
Flags: W
HStem: 0 63<97 144.529 535.685 588 922 968.68 1356.07 1411> 591 81<414 1087> 1187 57<90 162.065 504.846 583 913 983.5 1326.77 1404>
VStem: 265 149<96 591 672 1154> 1087 150<96 592 672 1154>
LayerCount: 2
Fore
SplineSet
83 1187 m 1,0,-1
 90 1244 l 1,1,-1
 591 1244 l 1,2,-1
 583 1187 l 1,3,-1
 414 1156 l 1,4,-1
 414 672 l 1,5,-1
 1087 672 l 1,6,-1
 1087 1154 l 1,7,-1
 904 1187 l 1,8,-1
 913 1244 l 1,9,-1
 1413 1244 l 1,10,-1
 1404 1187 l 1,11,-1
 1237 1156 l 1,12,-1
 1237 90 l 1,13,-1
 1419 63 l 1,14,-1
 1411 0 l 1,15,-1
 912 0 l 1,16,-1
 922 58 l 1,17,-1
 1087 96 l 1,18,-1
 1087 592 l 1,19,-1
 414 591 l 1,20,-1
 414 90 l 1,21,-1
 600 63 l 1,22,-1
 588 0 l 1,23,-1
 91 0 l 1,24,-1
 97 58 l 1,25,-1
 265 96 l 1,26,-1
 265 1154 l 1,27,-1
 83 1187 l 1,0,-1
EndSplineSet
Colour: ffffff
EndChar

StartChar: Hbar
Encoding: 294 294 18
Width: 1450
VWidth: 0
Flags: W
HStem: 0 63<111 158.529 549.685 602 936 982.68 1370.07 1425> 591 81<428 1101> 908 94<132 279 428 1101 1251 1371> 1187 57<104 176.065 518.846 597 927 997.5 1340.77 1418>
VStem: 279 149<96 591 672 908 1002 1154> 1101 150<96 592 672 908 1002 1154>
LayerCount: 2
Fore
SplineSet
1101 920 m 1,0,-1
 428 920 l 1,1,-1
 428 672 l 1,2,-1
 1101 672 l 1,3,-1
 1101 920 l 1,0,-1
123 908 m 1,4,-1
 132 1002 l 1,5,-1
 279 1002 l 1,6,-1
 279 1154 l 1,7,-1
 97 1187 l 1,8,-1
 104 1244 l 1,9,-1
 605 1244 l 1,10,-1
 597 1187 l 1,11,-1
 428 1156 l 1,12,-1
 428 990 l 1,13,-1
 1101 990 l 1,14,-1
 1101 1154 l 1,15,-1
 918 1187 l 1,16,-1
 927 1244 l 1,17,-1
 1427 1244 l 1,18,-1
 1418 1187 l 1,19,-1
 1251 1156 l 1,20,-1
 1251 1002 l 1,21,-1
 1377 1002 l 1,22,-1
 1371 908 l 1,23,-1
 1251 908 l 1,24,-1
 1251 90 l 1,25,-1
 1433 63 l 1,26,-1
 1425 0 l 1,27,-1
 926 0 l 1,28,-1
 936 58 l 1,29,-1
 1101 96 l 1,30,-1
 1101 592 l 1,31,-1
 428 591 l 1,32,-1
 428 90 l 1,33,-1
 614 63 l 1,34,-1
 602 0 l 1,35,-1
 105 0 l 1,36,-1
 111 58 l 1,37,-1
 279 96 l 1,38,-1
 279 908 l 1,39,-1
 123 908 l 1,4,-1
EndSplineSet
Colour: ffffff
EndChar

StartChar: I
Encoding: 73 73 19
Width: 674
VWidth: 0
Flags: W
HStem: 0 63<101 146.831 536.34 591> 1187 57<94 162.893 506.458 586>
VStem: 263 151<96 1154>
LayerCount: 2
Fore
SplineSet
86 1187 m 1,0,-1
 94 1244 l 1,1,-1
 595 1244 l 1,2,-1
 586 1187 l 1,3,-1
 414 1156 l 1,4,-1
 414 90 l 1,5,-1
 601 63 l 1,6,-1
 591 0 l 1,7,-1
 94 0 l 1,8,-1
 101 58 l 1,9,-1
 263 96 l 1,10,-1
 263 1154 l 1,11,-1
 86 1187 l 1,0,-1
EndSplineSet
Colour: ffffff
EndChar

StartChar: J
Encoding: 74 74 20
Width: 614
VWidth: 0
Flags: W
HStem: 1187 57<90 161.065 505.383 584>
VStem: 264 148<17.1675 1154>
LayerCount: 2
Fore
SplineSet
19 -259 m 1,0,1
 144 -146 144 -146 204 -36 c 128,-1,2
 264 74 264 74 264 209 c 2,3,-1
 264 1154 l 1,4,-1
 82 1187 l 1,5,-1
 90 1244 l 1,6,-1
 593 1244 l 1,7,-1
 584 1187 l 1,8,-1
 414 1156 l 1,9,-1
 412 372 l 1,10,11
 410.139 144.929 410.139 144.929 367.856 17.142 c 128,-1,12
 325.573 -110.645 325.573 -110.645 198 -220.5 c 0,13,14
 144 -267 144 -267 57 -325 c 1,15,-1
 19 -259 l 1,0,1
EndSplineSet
Colour: ffffff
EndChar

StartChar: K
Encoding: 75 75 21
Width: 1225
VWidth: 0
Flags: W
HStem: -21 21G<1052.91 1133.25> 0 63<100 140.292 547.443 592> 1187 57<93 151.285 515.958 586 734 793.707 1109.42 1177>
VStem: 264 151<101 1149>
DStem2: 601 649 456 604 0.61195 -0.790896<0 685.684> 604 790 601 649 0.632735 0.774369<-111.084 462.407>
LayerCount: 2
Fore
SplineSet
454 623 m 1,0,1
 554 728 554 728 604 790 c 2,2,-1
 893 1151 l 1,3,-1
 728 1187 l 1,4,-1
 734 1244 l 1,5,-1
 1184 1244 l 1,6,-1
 1177 1187 l 1,7,-1
 1012 1152 l 1,8,-1
 601 649 l 1,9,-1
 846 358 l 2,10,11
 974 206 974 206 1040 147 c 128,-1,12
 1106 88 1106 88 1191 68 c 1,13,-1
 1237 58 l 1,14,-1
 1226 2 l 1,15,16
 1160 -21 1160 -21 1106.5 -21 c 0,17,18
 999.312 -21 999.312 -21 914.954 50.0385 c 128,-1,19
 830.596 121.077 830.596 121.077 733 246 c 2,20,-1
 456 604 l 1,21,-1
 454 623 l 1,0,1
83 1187 m 1,22,-1
 93 1244 l 1,23,-1
 593 1244 l 1,24,-1
 586 1187 l 1,25,-1
 415 1152 l 1,26,-1
 415 95 l 1,27,-1
 602 63 l 1,28,-1
 592 0 l 1,29,-1
 92 0 l 1,30,-1
 100 58 l 1,31,-1
 264 101 l 1,32,-1
 264 1149 l 1,33,-1
 83 1187 l 1,22,-1
EndSplineSet
Colour: ffffff
EndChar

StartChar: L
Encoding: 76 76 22
Width: 1088
VWidth: 0
Flags: W
HStem: 0 75<418 905> 0 58<102 165.003> 1186 58<98 156.907 519.212 593>
VStem: 269 149<96 1148>
LayerCount: 2
Fore
SplineSet
94 0 m 1,0,-1
 102 58 l 1,1,-1
 269 96 l 1,2,-1
 269 1148 l 1,3,-1
 89 1186 l 1,4,-1
 98 1244 l 1,5,-1
 600 1244 l 1,6,-1
 593 1186 l 1,7,-1
 418 1152 l 1,8,-1
 418 75 l 1,9,-1
 905 75 l 1,10,-1
 1010 341 l 1,11,-1
 1074 331 l 1,12,-1
 1040 0 l 1,13,-1
 94 0 l 1,0,-1
EndSplineSet
Colour: ffffff
EndChar

StartChar: Lslash
Encoding: 321 321 23
Width: 1088
VWidth: 0
Flags: W
HStem: 0 75<418 905> 0 58<102 165.003> 855 20G<565.66 597.684> 1186 58<98 156.907 519.212 593>
VStem: 269 149<96 591 769 1148>
DStem2: 109 590 99 491 0.861346 0.508018<0 138.323 357.091 509.97>
LayerCount: 2
Fore
SplineSet
99 491 m 1,0,-1
 109 590 l 1,1,-1
 269 683 l 1,2,-1
 269 1148 l 1,3,-1
 89 1186 l 1,4,-1
 98 1244 l 1,5,-1
 600 1244 l 1,6,-1
 593 1186 l 1,7,-1
 418 1152 l 1,8,-1
 418 769 l 1,9,-1
 600 875 l 1,10,-1
 589 780 l 1,11,-1
 418 679 l 1,12,-1
 418 75 l 1,13,-1
 905 75 l 1,14,-1
 1010 341 l 1,15,-1
 1074 331 l 1,16,-1
 1040 0 l 1,17,-1
 94 0 l 1,18,-1
 102 58 l 1,19,-1
 269 96 l 1,20,-1
 269 591 l 1,21,-1
 99 491 l 1,0,-1
EndSplineSet
Colour: ffffff
EndChar

StartChar: M
Encoding: 77 77 24
Width: 1681
VWidth: 0
Flags: W
HStem: 0 54<59 122.38 426.016 498 1172 1235.76 1587.91 1663> 1188 56<129 191.293 1532.9 1605>
DStem2: 227 92 325 86 0.0725187 0.997367<1.12263 976.71> 564 1053 396 1059 0.346474 -0.93806<-63.836 835.815> 851 268 861 55 0.379261 0.92529<0 922.032>
LayerCount: 2
Fore
SplineSet
51 0 m 1,0,-1
 59 54 l 1,1,-1
 227 92 l 1,2,-1
 304 1151 l 1,3,-1
 120 1188 l 1,4,-1
 129 1244 l 1,5,-1
 489 1244 l 1,6,-1
 564 1053 l 1,7,-1
 851 268 l 1,8,-1
 1185 1092 l 1,9,-1
 1252 1244 l 1,10,-1
 1612 1244 l 1,11,-1
 1605 1188 l 1,12,-1
 1434 1154 l 1,13,-1
 1488 86 l 1,14,-1
 1669 60 l 1,15,-1
 1663 0 l 1,16,-1
 1164 0 l 1,17,-1
 1172 54 l 1,18,-1
 1341 92 l 1,19,-1
 1284 1087 l 1,20,-1
 861 55 l 1,21,-1
 772 41 l 1,22,-1
 396 1059 l 1,23,-1
 325 86 l 1,24,-1
 508 60 l 1,25,-1
 498 0 l 1,26,-1
 51 0 l 1,0,-1
EndSplineSet
Colour: ffffff
EndChar

StartChar: N
Encoding: 78 78 25
Width: 1402
VWidth: 0
Flags: W
HStem: -24 21G<1046.69 1159.05> 0 63<79 126.246 467.377 521> 1187 57<73 124.012 891 956.762 1258.59 1330>
VStem: 246 101<96 1047> 1067 97<225 1154>
DStem2: 400 1244 347 1047 0.554162 -0.832409<134.614 1217.85>
LayerCount: 2
Fore
SplineSet
63 1188 m 1,0,-1
 73 1244 l 1,1,-1
 400 1244 l 1,2,-1
 1067 225 l 1,3,-1
 1067 1154 l 1,4,-1
 882 1187 l 1,5,-1
 891 1244 l 1,6,-1
 1341 1244 l 1,7,-1
 1330 1187 l 1,8,-1
 1164 1156 l 1,9,-1
 1164 -3 l 1,10,-1
 1060 -24 l 1,11,-1
 347 1047 l 1,12,-1
 347 90 l 1,13,-1
 531 63 l 1,14,-1
 521 0 l 1,15,-1
 73 0 l 1,16,-1
 79 58 l 1,17,-1
 246 96 l 1,18,-1
 246 1147 l 1,19,-1
 63 1188 l 1,0,-1
EndSplineSet
Colour: ffffff
EndChar

StartChar: O
Encoding: 79 79 26
Width: 1331
VWidth: 0
Flags: W
HStem: -27 85<531.871 887.071> 1197 77<504.766 845.712>
VStem: 111 167<380.488 888.63> 1113 166<370.169 875.254>
LayerCount: 2
Fore
SplineSet
278 655 m 0,0,1
 278 551 278 551 305 440.5 c 128,-1,2
 332 330 332 330 383.5 244 c 128,-1,3
 435 158 435 158 518.5 108 c 128,-1,4
 602 58 602 58 698 58 c 128,-1,5
 794 58 794 58 864 88.5 c 0,6,7
 990.483 143.611 990.483 143.611 1051.74 279.182 c 128,-1,8
 1113 414.754 1113 414.754 1113 579.377 c 128,-1,9
 1113 744 1113 744 1066 883 c 128,-1,10
 1019 1022 1019 1022 919 1109.5 c 128,-1,11
 819 1197 819 1197 681 1197 c 0,12,13
 435.489 1197 435.489 1197 334.5 973.5 c 0,14,15
 278 848.459 278 848.459 278 655 c 0,0,1
178.5 295 m 128,-1,17
 111 442 111 442 111 627 c 128,-1,18
 111 812 111 812 185.5 960 c 128,-1,19
 260 1108 260 1108 401.5 1191 c 128,-1,20
 543 1274 543 1274 730 1274 c 0,21,22
 859 1274 859 1274 964 1223 c 128,-1,23
 1069 1172 1069 1172 1137 1083.5 c 0,24,25
 1279 898.691 1279 898.691 1279 624 c 0,26,27
 1279 418.225 1279 418.225 1174.79 247.603 c 0,28,29
 1007.07 -27 1007.07 -27 639.5 -27 c 0,30,31
 499 -27 499 -27 372.5 60.5 c 128,-1,16
 246 148 246 148 178.5 295 c 128,-1,17
EndSplineSet
Colour: ffffff
EndChar

StartChar: OE
Encoding: 338 338 27
Width: 1679
VWidth: 0
Flags: W
HStem: -27 82<473.555 792.746> 0 75<945 1452> 594 74<945 1225> 1173 72<945 1426> 1197 77<448.768 763.306>
VStem: 64 165<376.806 901.519> 795 150<75.4937 594 668 1164.38> 1250 67<419 514.66> 1278 73<750.766 797> 1456 66<934 1048.21>
LayerCount: 2
Fore
SplineSet
270.5 945 m 128,-1,1
 229 830 229 830 229 706 c 128,-1,2
 229 582 229 582 244.5 492 c 0,3,4
 276.468 306.38 276.468 306.38 374.696 180.69 c 128,-1,5
 472.924 55 472.924 55 633 55 c 0,6,7
 723 55 723 55 795 93 c 1,8,-1
 795 1139 l 1,9,10
 713 1197 713 1197 599.5 1197 c 128,-1,11
 486 1197 486 1197 399 1128.5 c 128,-1,0
 312 1060 312 1060 270.5 945 c 128,-1,1
64 620 m 0,12,13
 64 916 64 916 221 1095 c 128,-1,14
 378 1274 378 1274 657 1274 c 0,15,16
 762 1274 762 1274 839 1245 c 1,17,-1
 1553 1244 l 1,18,-1
 1522 925 l 1,19,-1
 1456 934 l 1,20,-1
 1426 1173 l 1,21,-1
 945 1173 l 1,22,-1
 945 668 l 1,23,-1
 1238 668 l 1,24,-1
 1278 797 l 1,25,-1
 1351 808 l 1,26,-1
 1317 419 l 1,27,-1
 1250 408 l 1,28,-1
 1225 594 l 1,29,-1
 945 594 l 1,30,-1
 945 75 l 1,31,-1
 1452 75 l 1,32,-1
 1537 324 l 1,33,-1
 1600 313 l 1,34,-1
 1569 0 l 1,35,-1
 792 0 l 1,36,37
 681 -27 681 -27 588 -27 c 0,38,39
 428 -27 428 -27 307.5 59.5 c 128,-1,40
 187 146 187 146 125.5 292 c 128,-1,41
 64 438 64 438 64 620 c 0,12,13
EndSplineSet
Colour: ffffff
EndChar

StartChar: Oslash
Encoding: 216 216 28
Width: 1336
VWidth: 0
Flags: W
HStem: -27 85<543.026 892.246> -5 21G<176 306.118> 1197 77<511.111 852.631>
VStem: 118 165<381.002 889.76> 1119 165<370.419 870.491>
DStem2: 176 8 292 -5 0.604258 0.796788<59.7357 163.718 322.492 1294.45 1458.22 1537.42>
LayerCount: 2
Fore
SplineSet
280 148 m 1,0,1
 118 332.846 118 332.846 118 620 c 0,2,3
 118 812 118 812 192.5 960 c 128,-1,4
 267 1108 267 1108 408 1191 c 128,-1,5
 549 1274 549 1274 736 1274 c 128,-1,6
 923 1274 923 1274 1057 1170 c 1,7,-1
 1105 1233 l 1,8,-1
 1226 1220 l 1,9,-1
 1128 1102 l 1,10,11
 1284 922 1284 922 1284 624 c 0,12,13
 1284 418.225 1284 418.225 1184 254.5 c 0,14,15
 1012.07 -27 1012.07 -27 666 -27 c 0,16,17
 487 -27 487 -27 352 80 c 1,18,-1
 292 -5 l 1,19,-1
 176 8 l 1,20,-1
 280 148 l 1,0,1
1022 991 m 1,21,-1
 422 199 l 1,22,23
 536 58 536 58 715 58 c 0,24,25
 956.6 58 956.6 58 1062 287.5 c 0,26,27
 1119 411.613 1119 411.613 1119 574 c 0,28,29
 1119 821 1119 821 1022 991 c 1,21,-1
984 1048 m 1,30,31
 869 1197 869 1197 687 1197 c 0,32,33
 442.644 1197 442.644 1197 340 973.5 c 0,34,35
 283 849.387 283 849.387 283 678 c 0,36,37
 283 424 283 424 384 255 c 1,38,-1
 984 1048 l 1,30,31
EndSplineSet
Colour: ffffff
EndChar

StartChar: P
Encoding: 80 80 29
Width: 1120
VWidth: 0
Flags: W
HStem: 0 58<93 154.494 548.418 631> 488 67<484 692.438> 1155 56<98 181.53> 1192 64<409.485 684.417>
VStem: 256 151<96 1129> 866 166<718.88 1035.44>
LayerCount: 2
Fore
SplineSet
85 0 m 1,0,-1
 93 58 l 1,1,-1
 256 96 l 1,2,-1
 256 1129 l 1,3,-1
 90 1155 l 1,4,-1
 98 1211 l 1,5,6
 107 1212 107 1212 146 1218.5 c 128,-1,7
 185 1225 185 1225 198 1227 c 0,8,9
 256.5 1236 256.5 1236 304 1241 c 2,10,-1
 357.5 1246.5 l 2,11,12
 451.144 1256 451.144 1256 536.072 1256 c 128,-1,13
 621 1256 621 1256 691.5 1244.5 c 0,14,15
 845.839 1219.32 845.839 1219.32 938.92 1134.52 c 128,-1,16
 1032 1049.71 1032 1049.71 1032 893 c 0,17,18
 1032 776 1032 776 965 682 c 128,-1,19
 898 588 898 588 790 538 c 128,-1,20
 682 488 682 488 558 488 c 0,21,22
 518 488 518 488 484 491 c 1,23,-1
 469 553 l 1,24,-1
 522 555 l 2,25,26
 697 562 697 562 781.5 644 c 128,-1,27
 866 726 866 726 866 863 c 128,-1,28
 866 1000 866 1000 778.348 1096 c 128,-1,29
 690.696 1192 690.696 1192 513 1192 c 1,30,-1
 407 1186 l 1,31,-1
 407 94 l 1,32,-1
 642 65 l 1,33,-1
 631 0 l 1,34,-1
 85 0 l 1,0,-1
EndSplineSet
Colour: ffffff
EndChar

StartChar: Q
Encoding: 81 81 30
Width: 1344
VWidth: 0
Flags: W
HStem: -385 91<1057.62 1240.02> -27 74<593.772 731.937> 1193 81<503.157 850.561>
VStem: 111 157<406.144 878.257> 1129 157<373.279 853.916>
LayerCount: 2
Fore
SplineSet
582.5 88 m 0,0,1
 664 51 664 51 760 47 c 1,2,3
 881 74 881 74 966 154.5 c 0,4,5
 1129 308.871 1129 308.871 1129 568 c 0,6,7
 1129 738 1129 738 1076 879.5 c 128,-1,8
 1023 1021 1023 1021 920 1107 c 128,-1,9
 817 1193 817 1193 684 1193 c 0,10,11
 488 1193 488 1193 378 1050.5 c 128,-1,12
 268 908 268 908 268 693.025 c 128,-1,13
 268 478.05 268 478.05 349.285 317.512 c 128,-1,14
 430.57 156.974 430.57 156.974 582.5 88 c 0,0,1
181 290.5 m 128,-1,16
 111 437 111 437 111 621 c 128,-1,17
 111 805 111 805 188 955 c 128,-1,18
 265 1105 265 1105 408 1189.5 c 128,-1,19
 551 1274 551 1274 737 1274 c 0,20,21
 865 1274 865 1274 970 1223.5 c 128,-1,22
 1075 1173 1075 1173 1143.5 1085 c 0,23,24
 1286 901.934 1286 901.934 1286 629 c 0,25,26
 1286 319.275 1286 319.275 1071 124 c 0,27,28
 962 25 962 25 816 -9 c 1,29,30
 879 -149 879 -149 974 -209.5 c 128,-1,31
 1069 -270 1069 -270 1252 -294 c 1,32,33
 1249 -338 1249 -338 1242 -355 c 1,34,35
 1179 -385 1179 -385 1078 -385 c 0,36,37
 944 -385 944 -385 848.5 -283 c 128,-1,38
 753 -181 753 -181 733 -21 c 1,39,40
 699 -27 699 -27 661 -27 c 0,41,42
 504 -27 504 -27 377.5 58.5 c 128,-1,15
 251 144 251 144 181 290.5 c 128,-1,16
EndSplineSet
Colour: ffffff
EndChar

StartChar: R
Encoding: 82 82 31
Width: 1195
VWidth: 0
Flags: W
HStem: -19 21G<1069 1147.25> 0 58<114 175.117 547.547 613> 554 74<423 617> 1153 56<120 201.53> 1189 65<423.721 705.577>
VStem: 276 147<96 554 628 1127> 853 158<793.017 1071.13>
LayerCount: 2
Fore
SplineSet
423 628 m 1,0,-1
 636 628 l 1,1,2
 728 661 728 661 790.5 736 c 128,-1,3
 853 811 853 811 853 925 c 128,-1,4
 853 1039 853 1039 770.5 1114 c 128,-1,5
 688 1189 688 1189 544 1189 c 1,6,-1
 423 1184 l 1,7,-1
 423 628 l 1,0,-1
105 0 m 1,8,-1
 114 58 l 1,9,-1
 276 96 l 1,10,-1
 276 1127 l 1,11,-1
 110 1153 l 1,12,-1
 120 1209 l 1,13,14
 398 1254 398 1254 581.5 1254 c 128,-1,15
 765 1254 765 1254 888 1179.5 c 128,-1,16
 1011 1105 1011 1105 1011 952 c 0,17,18
 1011 847 1011 847 942 756.5 c 128,-1,19
 873 666 873 666 730 605 c 1,20,-1
 730 604 l 1,21,-1
 916 336 l 2,22,23
 1017 191 1017 191 1070 138.5 c 128,-1,24
 1123 86 1123 86 1193 64 c 2,25,-1
 1234 51 l 1,26,-1
 1223 -2 l 1,27,28
 1174 -19 1174 -19 1120.5 -19 c 0,29,30
 1017.5 -19 1017.5 -19 942.501 53.1508 c 128,-1,31
 867.502 125.302 867.502 125.302 798 245 c 2,32,-1
 617 554 l 1,33,-1
 423 554 l 1,34,-1
 423 96 l 1,35,-1
 623 64 l 1,36,-1
 613 0 l 1,37,-1
 105 0 l 1,8,-1
EndSplineSet
Colour: ffffff
EndChar

StartChar: S
Encoding: 83 83 32
Width: 881
VWidth: 0
Flags: W
HStem: -25 82<297.545 593.844> 869 21G<664 738.824> 1200 70<328.989 564.606>
VStem: 102 75<295.812 384> 116 136<869.656 1102.71> 664 73<878 998.202> 690 147<163.687 399.432>
DStem2: 368.5 796.5 342 614 0.831125 -0.556085<-146.334 517.107>
LayerCount: 2
Fore
SplineSet
80 119 m 1,0,-1
 102 395 l 1,1,-1
 177 384 l 1,2,-1
 210 181 l 1,3,4
 241 126 241 126 307.5 91.5 c 128,-1,5
 374 57 374 57 460 57 c 128,-1,6
 546 57 546 57 618 113.5 c 128,-1,7
 690 170 690 170 690 275.838 c 128,-1,8
 690 381.676 690 381.676 576 465.5 c 0,9,10
 525 503 525 503 464 539 c 1,11,-1
 342 614 l 1,12,13
 281 653 281 653 230 697 c 0,14,15
 116 795.353 116 795.353 116 938 c 0,16,17
 116 1040 116 1040 169.5 1117.5 c 0,18,19
 274.774 1270 274.774 1270 464.387 1270 c 128,-1,20
 654 1270 654 1270 764 1165 c 1,21,-1
 737 869 l 1,22,-1
 664 878 l 1,23,-1
 638 1096 l 1,24,25
 617 1136 617 1136 561 1168 c 128,-1,26
 505 1200 505 1200 434 1200 c 128,-1,27
 363 1200 363 1200 307.5 1147.5 c 128,-1,28
 252 1095 252 1095 252 1017.5 c 128,-1,29
 252 940 252 940 284.5 887.5 c 128,-1,30
 317 835 317 835 368.5 796.5 c 128,-1,31
 420 758 420 758 482 721 c 2,32,-1
 606.5 645.5 l 2,33,34
 669 607 669 607 720.5 564 c 0,35,36
 837 466.728 837 466.728 837 321.364 c 128,-1,37
 837 176 837 176 715 75.5 c 128,-1,38
 593 -25 593 -25 413 -25 c 0,39,40
 309 -25 309 -25 220 16 c 128,-1,41
 131 57 131 57 80 119 c 1,0,-1
EndSplineSet
Colour: ffffff
EndChar

StartChar: T
Encoding: 84 84 33
Width: 1134
VWidth: 0
Flags: W
HStem: 0 63<333 381.66 781.49 824> 1173 71<180 505 655 993>
VStem: 64 71<923 995.149> 505 150<96 1173> 1020 73<920 1050.25>
LayerCount: 2
Fore
SplineSet
55 1244 m 1,0,-1
 1127 1244 l 1,1,-1
 1093 909 l 1,2,-1
 1020 920 l 1,3,-1
 993 1173 l 1,4,-1
 655 1173 l 1,5,-1
 655 94 l 1,6,-1
 836 63 l 1,7,-1
 824 0 l 1,8,-1
 327 0 l 1,9,-1
 333 58 l 1,10,-1
 505 96 l 1,11,-1
 505 1173 l 1,12,-1
 180 1173 l 1,13,-1
 135 912 l 1,14,-1
 64 923 l 1,15,-1
 55 1244 l 1,0,-1
EndSplineSet
Colour: ffffff
EndChar

StartChar: Tbar
Encoding: 358 358 34
Width: 1134
VWidth: 0
Flags: W
HStem: 0 63<340 388.66 788.49 831> 596 93<190 512 662 986> 1173 71<187 512 662 1000>
VStem: 71 71<923 995.149> 512 150<96 596 689 1173> 1027 73<920 1050.25>
LayerCount: 2
Fore
SplineSet
181 596 m 1,0,-1
 190 689 l 1,1,-1
 512 689 l 1,2,-1
 512 1173 l 1,3,-1
 187 1173 l 1,4,-1
 142 912 l 1,5,-1
 71 923 l 1,6,-1
 62 1244 l 1,7,-1
 1134 1244 l 1,8,-1
 1100 909 l 1,9,-1
 1027 920 l 1,10,-1
 1000 1173 l 1,11,-1
 662 1173 l 1,12,-1
 662 689 l 1,13,-1
 992 689 l 1,14,-1
 986 596 l 1,15,-1
 662 596 l 1,16,-1
 662 94 l 1,17,-1
 843 63 l 1,18,-1
 831 0 l 1,19,-1
 334 0 l 1,20,-1
 340 58 l 1,21,-1
 512 96 l 1,22,-1
 512 596 l 1,23,-1
 181 596 l 1,0,-1
EndSplineSet
Colour: ffffff
EndChar

StartChar: Thorn
Encoding: 222 222 35
Width: 889
VWidth: 0
Flags: W
HStem: -0 64<94 131.826 586.535 633> 254 69<482.105 702.646> 953 71<409 694.514> 1187 57<89 158.328 501.996 582>
VStem: 259 150<96 946 1021 1154> 868 165<481.76 802.175>
LayerCount: 2
Fore
SplineSet
471 322 m 1,0,-1
 524 323 l 2,1,2
 698 327 698 327 783 409.5 c 128,-1,3
 868 492 868 492 868 630.5 c 128,-1,4
 868 769 868 769 777.5 861 c 128,-1,5
 687 953 687 953 516 953 c 1,6,-1
 409 946 l 1,7,-1
 409 94 l 1,8,-1
 644 64 l 1,9,-1
 633 -0 l 1,10,-1
 87 -0 l 1,11,-1
 94 57 l 1,12,-1
 259 96 l 1,13,-1
 259 1154 l 1,14,-1
 81 1187 l 1,15,-1
 89 1244 l 1,16,-1
 590 1244 l 1,17,-1
 582 1187 l 1,18,-1
 409 1156 l 1,19,-1
 409 1021 l 1,20,21
 471 1024 471 1024 557.5 1024 c 0,22,23
 750.122 1024 750.122 1024 891.561 941.157 c 128,-1,24
 1033 858.314 1033 858.314 1033 660 c 0,25,26
 1033 542 1033 542 968.5 448 c 128,-1,27
 904 354 904 354 798.5 304 c 128,-1,28
 693 254 693 254 569 254 c 0,29,30
 533 254 533 254 485 259 c 1,31,32
 471 301 471 301 471 322 c 1,0,-1
EndSplineSet
Colour: ffffff
EndChar

StartChar: U
Encoding: 85 85 36
Width: 1371
VWidth: 0
Flags: W
HStem: -27 100<563.21 938.493> 1187 57<70 140.5 482.846 561 920 991.934 1285.23 1362>
VStem: 244 148<261.401 1154> 1095 96<240.879 1154>
LayerCount: 2
Fore
SplineSet
61 1187 m 1,0,-1
 70 1244 l 1,1,-1
 568 1244 l 1,2,-1
 561 1187 l 1,3,-1
 392 1156 l 1,4,-1
 392 503 l 2,5,6
 392 73 392 73 752 73 c 0,7,8
 916 73 916 73 1005.5 172 c 128,-1,9
 1095 271 1095 271 1095 466 c 2,10,-1
 1096 1154 l 1,11,-1
 912 1187 l 1,12,-1
 920 1244 l 1,13,-1
 1371 1244 l 1,14,-1
 1362 1187 l 1,15,-1
 1196 1156 l 1,16,-1
 1191 503 l 2,17,18
 1189 238 1189 238 1075 105.5 c 128,-1,19
 961 -27 961 -27 711 -27 c 0,20,21
 244 -27 244 -27 244 465 c 2,22,-1
 244 1154 l 1,23,-1
 61 1187 l 1,0,-1
EndSplineSet
Colour: ffffff
EndChar

StartChar: Uacute
Encoding: 218 218 37
Width: 1371
VWidth: 0
Flags: W
HStem: -27 100<563.21 938.493> 1187 57<70 140.5 482.846 561 920 991.934 1285.23 1362>
VStem: 244 148<261.401 1154> 1095 96<240.879 1154>
LayerCount: 2
Fore
SplineSet
61 1187 m 1,0,-1
 70 1244 l 1,1,-1
 568 1244 l 1,2,-1
 561 1187 l 1,3,-1
 392 1156 l 1,4,-1
 392 503 l 2,5,6
 392 73 392 73 752 73 c 0,7,8
 916 73 916 73 1005.5 172 c 128,-1,9
 1095 271 1095 271 1095 466 c 2,10,-1
 1096 1154 l 1,11,-1
 912 1187 l 1,12,-1
 920 1244 l 1,13,-1
 1371 1244 l 1,14,-1
 1362 1187 l 1,15,-1
 1196 1156 l 1,16,-1
 1191 503 l 2,17,18
 1189 238 1189 238 1075 105.5 c 128,-1,19
 961 -27 961 -27 711 -27 c 0,20,21
 244 -27 244 -27 244 465 c 2,22,-1
 244 1154 l 1,23,-1
 61 1187 l 1,0,-1
672 1402 m 1,24,-1
 800 1732 l 1,25,-1
 903 1693 l 1,26,-1
 721 1372 l 1,27,-1
 672 1402 l 1,24,-1
EndSplineSet
Colour: ffffff
EndChar

StartChar: Ugrave
Encoding: 217 217 38
Width: 1371
VWidth: 0
Flags: W
HStem: -27 100<563.21 938.493> 1187 57<70 140.5 482.846 561 920 991.934 1285.23 1362>
VStem: 244 148<261.401 1154> 1095 96<240.879 1154>
LayerCount: 2
Fore
SplineSet
61 1187 m 1,0,-1
 70 1244 l 1,1,-1
 568 1244 l 1,2,-1
 561 1187 l 1,3,-1
 392 1156 l 1,4,-1
 392 503 l 2,5,6
 392 73 392 73 752 73 c 0,7,8
 916 73 916 73 1005.5 172 c 128,-1,9
 1095 271 1095 271 1095 466 c 2,10,-1
 1096 1154 l 1,11,-1
 912 1187 l 1,12,-1
 920 1244 l 1,13,-1
 1371 1244 l 1,14,-1
 1362 1187 l 1,15,-1
 1196 1156 l 1,16,-1
 1191 503 l 2,17,18
 1189 238 1189 238 1075 105.5 c 128,-1,19
 961 -27 961 -27 711 -27 c 0,20,21
 244 -27 244 -27 244 465 c 2,22,-1
 244 1154 l 1,23,-1
 61 1187 l 1,0,-1
535 1701 m 1,24,-1
 639 1738 l 1,25,-1
 772 1403 l 1,26,-1
 721 1372 l 1,27,-1
 535 1701 l 1,24,-1
EndSplineSet
Colour: ffffff
EndChar

StartChar: Umacron
Encoding: 362 362 39
Width: 1371
VWidth: 0
Flags: W
HStem: -27 100<563.21 938.493> 1187 57<70 140.5 482.846 561 920 991.934 1285.23 1362> 1373 76<505 936>
VStem: 244 148<261.401 1154> 1095 96<240.879 1154>
LayerCount: 2
Fore
SplineSet
61 1187 m 1,0,-1
 70 1244 l 1,1,-1
 568 1244 l 1,2,-1
 561 1187 l 1,3,-1
 392 1156 l 1,4,-1
 392 503 l 2,5,6
 392 73 392 73 752 73 c 0,7,8
 916 73 916 73 1005.5 172 c 128,-1,9
 1095 271 1095 271 1095 466 c 2,10,-1
 1096 1154 l 1,11,-1
 912 1187 l 1,12,-1
 920 1244 l 1,13,-1
 1371 1244 l 1,14,-1
 1362 1187 l 1,15,-1
 1196 1156 l 1,16,-1
 1191 503 l 2,17,18
 1189 238 1189 238 1075 105.5 c 128,-1,19
 961 -27 961 -27 711 -27 c 0,20,21
 244 -27 244 -27 244 465 c 2,22,-1
 244 1154 l 1,23,-1
 61 1187 l 1,0,-1
494 1373 m 1,24,-1
 505 1449 l 1,25,-1
 946 1449 l 1,26,-1
 936 1373 l 1,27,-1
 494 1373 l 1,24,-1
EndSplineSet
Colour: ffffff
EndChar

StartChar: V
Encoding: 86 86 40
Width: 1258
VWidth: 0
Flags: W
HStem: -25 21G<593.931 698.143> 1188 56<45 96.5387 444.288 520 850 917.671 1208.76 1267>
DStem2: 351 1156 185 1152 0.333239 -0.942842<0 1005.67> 681 206 703 -4 0.350415 0.936594<0 1007.96>
LayerCount: 2
Fore
SplineSet
38 1188 m 1,0,-1
 45 1244 l 1,1,-1
 527 1244 l 1,2,-1
 520 1188 l 1,3,-1
 351 1156 l 1,4,-1
 681 206 l 1,5,-1
 1029 1152 l 1,6,-1
 844 1188 l 1,7,-1
 850 1244 l 1,8,-1
 1272 1244 l 1,9,-1
 1267 1188 l 1,10,-1
 1137 1156 l 1,11,-1
 703 -4 l 1,12,-1
 601 -25 l 1,13,-1
 185 1152 l 1,14,-1
 38 1188 l 1,0,-1
EndSplineSet
Colour: ffffff
EndChar

StartChar: W
Encoding: 87 87 41
Width: 1873
VWidth: 0
Flags: W
HStem: -24 20G<499.376 622 1171.68 1280.81> 1188 56<51 89.1719 432.007 496 1377 1430.35 1742.46 1786>
DStem2: 330 1156 174 1153 0.270722 -0.962658<0 967.705> 594 225 622 -4 0.285092 0.9585<0 805.7> 995 1214 912 971 0.257119 -0.96638<213.489 1016.41> 1261 233 1286 -4 0.311794 0.95015<0 963.281>
LayerCount: 2
Fore
SplineSet
43 1188 m 1,0,-1
 51 1244 l 1,1,-1
 505 1244 l 1,2,-1
 496 1190 l 1,3,-1
 330 1156 l 1,4,-1
 594 225 l 1,5,-1
 884 1199 l 1,6,-1
 995 1214 l 1,7,-1
 1261 233 l 1,8,-1
 1553 1151 l 1,9,-1
 1369 1189 l 1,10,-1
 1377 1244 l 1,11,-1
 1794 1244 l 1,12,-1
 1786 1188 l 1,13,-1
 1666 1154 l 1,14,-1
 1286 -4 l 1,15,-1
 1177 -25 l 1,16,-1
 912 971 l 1,17,-1
 622 -4 l 1,18,-1
 505 -24 l 1,19,-1
 174 1153 l 1,20,-1
 43 1188 l 1,0,-1
EndSplineSet
Colour: ffffff
EndChar

StartChar: X
Encoding: 88 88 42
Width: 1195
VWidth: 0
Flags: W
HStem: 0 56<7 39.676 366.037 401 727 771.483 1147.65 1183> 1189 55<31 79.1152 429.556 490 775 838.102 1112.79 1173>
DStem2: 133 92 247 89 0.598802 0.800897<65.8607 634.475 801.983 1332.79> 334 1152 160 1154 0.565212 -0.824946<0 513.948 635.659 1189.79>
LayerCount: 2
Fore
SplineSet
-2 0 m 1,0,-1
 7 56 l 1,1,-1
 133 92 l 1,2,-1
 524 620 l 1,3,-1
 160 1154 l 1,4,-1
 23 1189 l 1,5,-1
 31 1244 l 1,6,-1
 497 1244 l 1,7,-1
 490 1189 l 1,8,-1
 334 1152 l 1,9,-1
 623 727 l 1,10,-1
 937 1155 l 1,11,-1
 766 1187 l 1,12,-1
 775 1244 l 1,13,-1
 1177 1244 l 1,14,-1
 1173 1188 l 1,15,-1
 1047 1159 l 1,16,-1
 679 654 l 1,17,-1
 1057 84 l 1,18,-1
 1193 58 l 1,19,-1
 1183 0 l 1,20,-1
 718 0 l 1,21,-1
 727 51 l 1,22,-1
 889 90 l 1,23,-1
 580 550 l 1,24,-1
 247 89 l 1,25,-1
 413 62 l 1,26,-1
 401 0 l 1,27,-1
 -2 0 l 1,0,-1
EndSplineSet
Colour: ffffff
EndChar

StartChar: Y
Encoding: 89 89 43
Width: 1113
VWidth: 0
Flags: W
HStem: 0 63<322 367.831 748.65 797> 1188 56<0 46.3529 381.976 455 697 764.273 1051.1 1108>
VStem: 484 150<96 497>
DStem2: 292 1156 130 1152 0.475461 -0.879737<0 625.471> 588 605 634 509 0.472637 0.881257<0 617.695>
LayerCount: 2
Fore
SplineSet
-9 1188 m 1,0,-1
 -0 1244 l 1,1,-1
 463 1244 l 1,2,-1
 455 1188 l 1,3,-1
 292 1156 l 1,4,-1
 588 605 l 1,5,-1
 875 1152 l 1,6,-1
 691 1188 l 1,7,-1
 697 1244 l 1,8,-1
 1114 1244 l 1,9,-1
 1108 1188 l 1,10,-1
 981 1156 l 1,11,-1
 634 509 l 1,12,-1
 634 91 l 1,13,-1
 806 63 l 1,14,-1
 797 0 l 1,15,-1
 314 0 l 1,16,-1
 322 58 l 1,17,-1
 484 96 l 1,18,-1
 484 497 l 1,19,-1
 130 1152 l 1,20,-1
 -9 1188 l 1,0,-1
EndSplineSet
Colour: ffffff
EndChar

StartChar: Yacute
Encoding: 221 221 44
Width: 1113
VWidth: 0
Flags: W
HStem: 0 63<322 367.831 748.65 797> 1188 56<0 46.3529 381.976 455 697 764.273 1051.1 1108>
VStem: 484 150<96 497>
DStem2: 292 1156 130 1152 0.475461 -0.879737<0 625.471> 588 605 634 509 0.472637 0.881257<0 617.695>
LayerCount: 2
Fore
SplineSet
-9 1188 m 1,0,-1
 0 1244 l 1,1,-1
 463 1244 l 1,2,-1
 455 1188 l 1,3,-1
 292 1156 l 1,4,-1
 588 605 l 1,5,-1
 875 1152 l 1,6,-1
 691 1188 l 1,7,-1
 697 1244 l 1,8,-1
 1114 1244 l 1,9,-1
 1108 1188 l 1,10,-1
 981 1156 l 1,11,-1
 634 509 l 1,12,-1
 634 91 l 1,13,-1
 806 63 l 1,14,-1
 797 0 l 1,15,-1
 314 0 l 1,16,-1
 322 58 l 1,17,-1
 484 96 l 1,18,-1
 484 497 l 1,19,-1
 130 1152 l 1,20,-1
 -9 1188 l 1,0,-1
529 1402 m 1,21,-1
 657 1732 l 1,22,-1
 760 1693 l 1,23,-1
 578 1372 l 1,24,-1
 529 1402 l 1,21,-1
EndSplineSet
Colour: ffffff
EndChar

StartChar: Ycircumflex
Encoding: 374 374 45
Width: 1113
VWidth: 0
Flags: W
HStem: 0 63<322 367.831 748.65 797> 1188 56<0 46.3529 381.976 455 697 764.273 1051.1 1108>
VStem: 484 150<96 497>
DStem2: 292 1156 130 1152 0.475461 -0.879737<0 625.471> 588 605 634 509 0.472637 0.881257<0 617.695>
LayerCount: 2
Fore
SplineSet
-9 1188 m 1,0,-1
 0 1244 l 1,1,-1
 463 1244 l 1,2,-1
 455 1188 l 1,3,-1
 292 1156 l 1,4,-1
 588 605 l 1,5,-1
 875 1152 l 1,6,-1
 691 1188 l 1,7,-1
 697 1244 l 1,8,-1
 1114 1244 l 1,9,-1
 1108 1188 l 1,10,-1
 981 1156 l 1,11,-1
 634 509 l 1,12,-1
 634 91 l 1,13,-1
 806 63 l 1,14,-1
 797 0 l 1,15,-1
 314 0 l 1,16,-1
 322 58 l 1,17,-1
 484 96 l 1,18,-1
 484 497 l 1,19,-1
 130 1152 l 1,20,-1
 -9 1188 l 1,0,-1
364 1402 m 1,21,-1
 532 1582 l 1,22,-1
 587 1596 l 1,23,-1
 765 1410 l 1,24,-1
 725 1373 l 1,25,-1
 552 1495 l 1,26,-1
 543 1495 l 1,27,-1
 394 1372 l 1,28,-1
 364 1402 l 1,21,-1
EndSplineSet
Colour: ffffff
EndChar

StartChar: Ydieresis
Encoding: 376 376 46
Width: 1113
VWidth: 0
Flags: W
HStem: 0 63<322 367.831 748.65 797> 1188 56<0 46.3529 381.976 455 697 764.273 1051.1 1108> 1373 159<379.597 480.372 647.597 748.857>
VStem: 360 141<1396.21 1510.86> 484 150<96 497> 628 142<1396.21 1510.86>
DStem2: 292 1156 130 1152 0.475461 -0.879737<0 625.471> 588 605 634 509 0.472637 0.881257<0 617.695>
LayerCount: 2
Fore
SplineSet
-9 1188 m 1,0,-1
 0 1244 l 1,1,-1
 463 1244 l 1,2,-1
 455 1188 l 1,3,-1
 292 1156 l 1,4,-1
 588 605 l 1,5,-1
 875 1152 l 1,6,-1
 691 1188 l 1,7,-1
 697 1244 l 1,8,-1
 1114 1244 l 1,9,-1
 1108 1188 l 1,10,-1
 981 1156 l 1,11,-1
 634 509 l 1,12,-1
 634 91 l 1,13,-1
 806 63 l 1,14,-1
 797 0 l 1,15,-1
 314 0 l 1,16,-1
 322 58 l 1,17,-1
 484 96 l 1,18,-1
 484 497 l 1,19,-1
 130 1152 l 1,20,-1
 -9 1188 l 1,0,-1
646.5 1395.5 m 128,-1,22
 628 1418 628 1418 628 1454.5 c 128,-1,23
 628 1491 628 1491 647 1511.5 c 128,-1,24
 666 1532 666 1532 697.5 1532 c 128,-1,25
 729 1532 729 1532 749.5 1511.5 c 128,-1,26
 770 1491 770 1491 770 1454 c 128,-1,27
 770 1417 770 1417 750 1395 c 128,-1,28
 730 1373 730 1373 697.5 1373 c 128,-1,21
 665 1373 665 1373 646.5 1395.5 c 128,-1,22
379 1395.5 m 128,-1,30
 360 1418 360 1418 360 1454.5 c 128,-1,31
 360 1491 360 1491 379 1511.5 c 128,-1,32
 398 1532 398 1532 429.5 1532 c 128,-1,33
 461 1532 461 1532 481 1511.5 c 128,-1,34
 501 1491 501 1491 501 1454 c 128,-1,35
 501 1417 501 1417 481.5 1395 c 128,-1,36
 462 1373 462 1373 430 1373 c 128,-1,29
 398 1373 398 1373 379 1395.5 c 128,-1,30
EndSplineSet
Colour: ffffff
EndChar

StartChar: Z
Encoding: 90 90 47
Width: 1051
VWidth: 0
Flags: W
HStem: 0 79<219 837> 1170 74<232 819>
VStem: 90 64<918 952.073>
DStem2: 45 71 219 79 0.577752 0.816212<107.059 1344.2>
LayerCount: 2
Fore
SplineSet
45 71 m 1,0,-1
 819 1170 l 1,1,-1
 232 1170 l 1,2,-1
 154 903 l 1,3,-1
 90 918 l 1,4,-1
 99 1244 l 1,5,-1
 1002 1244 l 1,6,-1
 1004 1188 l 1,7,-1
 219 79 l 1,8,-1
 837 79 l 1,9,-1
 952 347 l 1,10,-1
 1021 336 l 1,11,-1
 973 0 l 1,12,-1
 52 0 l 1,13,-1
 45 71 l 1,0,-1
EndSplineSet
Colour: ffffff
EndChar

StartChar: a
Encoding: 97 97 48
Width: 847
VWidth: 0
Flags: W
HStem: -25 96<263.929 459.297> 2 60<781 830> 430 51<444.125 554> 816 73<289.075 484.172>
VStem: 93 137<108.256 308.217> 127 110<635.474 777.988> 554 127<135.346 430 476.513 749.683>
LayerCount: 2
Fore
SplineSet
230 207 m 0,0,1
 230 154 230 154 264.5 112.5 c 128,-1,2
 299 71 299 71 356.5 71 c 128,-1,3
 414 71 414 71 467.5 104.5 c 128,-1,4
 521 138 521 138 554 186 c 1,5,-1
 554 430 l 1,6,7
 390 402 390 402 310 350.5 c 128,-1,8
 230 299 230 299 230 207 c 0,0,1
93 169 m 0,9,10
 93 293 93 293 206 376.5 c 128,-1,11
 319 460 319 460 554 481 c 1,12,-1
 554 529 l 2,13,14
 554 670 554 670 514 743 c 128,-1,15
 474 816 474 816 371 816 c 0,16,17
 315 816 315 816 294 795 c 128,-1,18
 273 774 273 774 262.279 738.45 c 128,-1,19
 251.557 702.9 251.557 702.9 237 601 c 1,20,21
 127 601 127 601 127 685 c 0,22,23
 127 736 127 736 177.5 784 c 128,-1,24
 228 832 228 832 301.5 860.5 c 128,-1,25
 375 889 375 889 443 889 c 0,26,27
 567 889 567 889 624 814.5 c 128,-1,28
 681 740 681 740 681 581 c 2,29,-1
 681 230 l 2,30,31
 681 153 681 153 699.5 118 c 128,-1,32
 718 83 718 83 781 73 c 1,33,-1
 839 62 l 1,34,-1
 830 2 l 1,35,36
 745 -18 745 -18 693.5 -18 c 128,-1,37
 642 -18 642 -18 606.5 21.5 c 128,-1,38
 571 61 571 61 571 116 c 2,39,-1
 571 131 l 1,40,-1
 563 131 l 1,41,42
 540 76 540 76 468.5 25.5 c 128,-1,43
 397 -25 397 -25 304 -25 c 128,-1,44
 211 -25 211 -25 152 27.5 c 128,-1,45
 93 80 93 80 93 169 c 0,9,10
EndSplineSet
Colour: ffffff
EndChar

StartChar: acute
Encoding: 180 180 49
Width: 567
VWidth: 0
Flags: W
HStem: 1346 360
VStem: 199 231
LayerCount: 2
Fore
SplineSet
199 1376 m 1,0,-1
 327 1706 l 1,1,-1
 430 1667 l 1,2,-1
 248 1346 l 1,3,-1
 199 1376 l 1,0,-1
EndSplineSet
Colour: ffffff
EndChar

StartChar: ae
Encoding: 230 230 50
Width: 1248
VWidth: 0
Flags: W
HStem: -30 100<256.806 453.34 813.177 1092.7> 416 60<413.016 554> 428 64<678 813.611> 813 75<286.368 491.83 785.583 972.803>
VStem: 92 136<96.0715 301.871> 130 108<643.474 770.997> 554 124<222.548 416 492 695.304> 1038 141<527.802 752.741>
LayerCount: 2
Fore
SplineSet
678 492 m 1,0,-1
 1028 529 l 1,1,2
 1038 561 1038 561 1038 630.5 c 128,-1,3
 1038 700 1038 700 994 754.5 c 128,-1,4
 950 809 950 809 873 809 c 128,-1,5
 796 809 796 809 739 723.5 c 128,-1,6
 682 638 682 638 678 492 c 1,0,-1
228 200 m 0,7,8
 228 138 228 138 261.5 100 c 128,-1,9
 295 62 295 62 361 62 c 128,-1,10
 427 62 427 62 490.5 118.5 c 128,-1,11
 554 175 554 175 554 255 c 2,12,-1
 554 416 l 1,13,14
 381 390 381 390 304.5 341.5 c 128,-1,15
 228 293 228 293 228 200 c 0,7,8
1204 104 m 1,16,17
 1089.45 -29.9999 1089.45 -29.9999 895 -30 c 0,18,19
 809 -30 809 -30 714 26.5 c 128,-1,20
 619 83 619 83 592 172 c 1,21,22
 568 94 568 94 484 34 c 128,-1,23
 400 -26 400 -26 304.5 -26 c 128,-1,24
 209 -26 209 -26 150.5 24.5 c 128,-1,25
 92 75 92 75 92 163 c 0,26,27
 92 285 92 285 198 362 c 128,-1,28
 304 439 304 439 554 476 c 1,29,-1
 554 539 l 2,30,31
 554 678 554 678 515.5 745.5 c 128,-1,32
 477 813 477 813 388.918 813 c 128,-1,33
 300.836 813 300.836 813 274.754 758.139 c 128,-1,34
 248.673 703.278 248.673 703.278 238 609 c 1,35,36
 130 609 130 609 130 693 c 0,37,38
 130 769 130 769 231.5 828.5 c 128,-1,39
 333 888 333 888 443 888 c 0,40,41
 610 888 610 888 651 748 c 1,42,43
 757.457 886 757.457 886 928 886 c 0,44,45
 1042 886 1042 886 1110.5 808.5 c 128,-1,46
 1179 731 1179 731 1179 578 c 0,47,48
 1179 518 1179 518 1161 448 c 1,49,-1
 678 428 l 1,50,51
 682.266 216.821 682.266 216.821 803.5 121.5 c 0,52,53
 869 70 869 70 971 70 c 128,-1,54
 1073 70 1073 70 1185 146 c 1,55,-1
 1204 104 l 1,16,17
EndSplineSet
Colour: ffffff
EndChar

StartChar: agrave
Encoding: 224 224 51
Width: 847
VWidth: 0
Flags: W
HStem: -25 96<263.929 459.297> 2 60<781 830> 430 51<444.125 554> 816 73<289.075 484.172>
VStem: 93 137<108.256 308.217> 127 110<635.474 777.988> 554 127<135.346 430 476.513 749.683>
LayerCount: 2
Fore
SplineSet
230 207 m 0,0,1
 230 154 230 154 264.5 112.5 c 128,-1,2
 299 71 299 71 356.5 71 c 128,-1,3
 414 71 414 71 467.5 104.5 c 128,-1,4
 521 138 521 138 554 186 c 1,5,-1
 554 430 l 1,6,7
 390 402 390 402 310 350.5 c 128,-1,8
 230 299 230 299 230 207 c 0,0,1
93 169 m 0,9,10
 93 293 93 293 206 376.5 c 128,-1,11
 319 460 319 460 554 481 c 1,12,-1
 554 529 l 2,13,14
 554 670 554 670 514 743 c 128,-1,15
 474 816 474 816 371 816 c 0,16,17
 315 816 315 816 294 795 c 128,-1,18
 273 774 273 774 262.279 738.45 c 128,-1,19
 251.557 702.9 251.557 702.9 237 601 c 1,20,21
 127 601 127 601 127 685 c 0,22,23
 127 736 127 736 177.5 784 c 128,-1,24
 228 832 228 832 301.5 860.5 c 128,-1,25
 375 889 375 889 443 889 c 0,26,27
 567 889 567 889 624 814.5 c 128,-1,28
 681 740 681 740 681 581 c 2,29,-1
 681 230 l 2,30,31
 681 153 681 153 699.5 118 c 128,-1,32
 718 83 718 83 781 73 c 1,33,-1
 839 62 l 1,34,-1
 830 2 l 1,35,36
 745 -18 745 -18 693.5 -18 c 128,-1,37
 642 -18 642 -18 606.5 21.5 c 128,-1,38
 571 61 571 61 571 116 c 2,39,-1
 571 131 l 1,40,-1
 563 131 l 1,41,42
 540 76 540 76 468.5 25.5 c 128,-1,43
 397 -25 397 -25 304 -25 c 128,-1,44
 211 -25 211 -25 152 27.5 c 128,-1,45
 93 80 93 80 93 169 c 0,9,10
258 1319 m 1,46,-1
 362 1356 l 1,47,-1
 495 1021 l 1,48,-1
 444 990 l 1,49,-1
 258 1319 l 1,46,-1
EndSplineSet
Colour: ffffff
EndChar

StartChar: ampersand
Encoding: 38 38 52
Width: 1282
VWidth: 0
Flags: W
HStem: -20 106<292.655 557.628> 757 55<813 867.831 1158.74 1230> 1200 72<389.234 579.952>
VStem: 56 150<178.507 447.454> 211 120<889.388 1126.83> 645 135<877.962 1139.31>
DStem2: 483 752 353 687 0.665675 -0.746242<-271.045 -38.0319 80.6404 448.362 577.5 928.92> 781 417 842 356 0.515367 0.85697<0 353.974>
LayerCount: 2
Fore
SplineSet
331 1025 m 0,0,1
 331 908 331 908 483 752 c 1,2,3
 564 810 564 810 604.5 864 c 128,-1,4
 645 918 645 918 645 999.5 c 128,-1,5
 645 1081 645 1081 601.5 1140.5 c 128,-1,6
 558 1200 558 1200 486.5 1200 c 128,-1,7
 415 1200 415 1200 373 1148 c 128,-1,8
 331 1096 331 1096 331 1025 c 0,0,1
257 494.5 m 128,-1,10
 206 425 206 425 206 328 c 128,-1,11
 206 231 206 231 265 158.5 c 128,-1,12
 324 86 324 86 424 86 c 0,13,14
 585 86 585 86 703 286 c 1,15,-1
 405 626 l 1,16,-1
 395 627 l 1,17,9
 308 564 308 564 257 494.5 c 128,-1,10
353 687 m 1,18,19
 211 833.733 211 833.733 211 963.367 c 128,-1,20
 211 1093 211 1093 299.5 1182.5 c 128,-1,21
 388 1272 388 1272 511.5 1272 c 128,-1,22
 635 1272 635 1272 707.5 1206 c 128,-1,23
 780 1140 780 1140 780 1016 c 0,24,25
 780 930 780 930 717.5 854 c 128,-1,26
 655 778 655 778 538 700 c 1,27,-1
 538 693 l 1,28,-1
 781 417 l 1,29,-1
 964 720 l 1,30,-1
 807 757 l 1,31,-1
 813 812 l 1,32,-1
 1238 812 l 1,33,-1
 1230 757 l 1,34,-1
 1061 723 l 1,35,-1
 842 356 l 1,36,37
 1053 107 1053 107 1186 64 c 1,38,-1
 1225 52 l 1,39,-1
 1215 -2 l 1,40,41
 1164 -20 1164 -20 1109 -20 c 0,42,43
 985 -20 985 -20 857 122 c 2,44,-1
 762 227 l 1,45,46
 633.906 41.6001 633.906 41.6001 500.5 -1 c 0,47,48
 441 -20 441 -20 372 -20 c 0,49,50
 230 -20 230 -20 143 63.5 c 128,-1,51
 56 147 56 147 56 273 c 128,-1,52
 56 399 56 399 134 497.5 c 128,-1,53
 212 596 212 596 353 687 c 1,18,19
EndSplineSet
Colour: ffffff
EndChar

StartChar: asciicircum
Encoding: 94 94 53
Width: 733
VWidth: 0
Flags: W
HStem: 792 459
VStem: 49 639
LayerCount: 2
Fore
SplineSet
49 826 m 1,0,-1
 338 1238 l 1,1,-1
 394 1251 l 1,2,-1
 688 824 l 1,3,-1
 640 792 l 1,4,-1
 363 1098 l 1,5,-1
 353 1098 l 1,6,-1
 91 797 l 1,7,-1
 49 826 l 1,0,-1
EndSplineSet
Colour: ffffff
EndChar

StartChar: asciitilde
Encoding: 126 126 54
Width: 947
VWidth: 0
Flags: W
HStem: 404 220
DStem2: 697 542 248 493 0.984534 -0.175193<-503.824 73.2455>
LayerCount: 2
Fore
SplineSet
83 417 m 1,0,1
 88.1148 440.016 88.1148 440.016 110.557 485.508 c 128,-1,2
 133 531 133 531 155.5 558 c 128,-1,3
 178 585 178 585 216.5 603.5 c 128,-1,4
 255 622 255 622 298 613 c 1,5,-1
 697 542 l 1,6,7
 728 535 728 535 757 555.5 c 128,-1,8
 786 576 786 576 800 600 c 2,9,-1
 814 624 l 1,10,-1
 869 623 l 1,11,-1
 861 598 l 2,12,13
 842.228 537.93 842.228 537.93 806.114 493.965 c 0,14,15
 732.615 404.488 732.615 404.488 647 422 c 1,16,-1
 248 493 l 1,17,18
 219 500 219 500 189.5 477.5 c 128,-1,19
 160 455 160 455 145 429.5 c 2,20,-1
 130 404 l 1,21,-1
 83 417 l 1,0,1
EndSplineSet
Colour: ffffff
EndChar

StartChar: asterisk
Encoding: 42 42 55
Width: 593
VWidth: 0
Flags: W
HStem: 990 116<705.74 742.337>
VStem: 351 123<1153.29 1281.28>
LayerCount: 2
Fore
SplineSet
351 1291 m 1,0,-1
 474 1280 l 1,1,-1
 449 981 l 1,2,-1
 739 1106 l 1,3,-1
 766 990 l 1,4,-1
 475 923 l 1,5,-1
 687 686 l 1,6,-1
 582 623 l 1,7,-1
 426 882 l 1,8,-1
 265 604 l 1,9,-1
 172 685 l 1,10,-1
 370 912 l 1,11,-1
 60 978 l 1,12,-1
 108 1092 l 1,13,-1
 384 974 l 1,14,-1
 351 1291 l 1,0,-1
EndSplineSet
Colour: ffffff
EndChar

StartChar: at
Encoding: 64 64 56
Width: 1362
VWidth: 0
Flags: W
HStem: -227 78<500.56 922.975> 60 100<537.305 670.472 794.5 1006.88> 714 76<629.876 817.092> 972 73<559.151 939.286>
VStem: 88 122<124.642 586.893> 389 123<176.908 543.037> 1196 108<364.785 740.782>
DStem2: 764 248 886 296.5 0.117727 0.993046<-47.6288 460.933>
LayerCount: 2
Fore
SplineSet
512 369 m 0,0,1
 512 160 512 160 596 160 c 0,2,3
 634 160 634 160 685 188 c 128,-1,4
 736 216 736 216 764 248 c 1,5,-1
 818 703 l 1,6,7
 776 714 776 714 716 714 c 0,8,9
 628 714 628 714 570 611.5 c 128,-1,10
 512 509 512 509 512 369 c 0,0,1
173.5 681.5 m 128,-1,12
 259 844 259 844 421 944.5 c 128,-1,13
 583 1045 583 1045 789 1045 c 0,14,15
 929 1045 929 1045 1046.5 987 c 128,-1,16
 1164 929 1164 929 1234 822.5 c 128,-1,17
 1304 716 1304 716 1304 598.5 c 128,-1,18
 1304 481 1304 481 1268.5 387.5 c 128,-1,19
 1233 294 1233 294 1171.5 223.5 c 128,-1,20
 1110 153 1110 153 1021.5 111 c 128,-1,21
 933 69 933 69 833 69 c 0,22,23
 756 69 756 69 762 187 c 1,24,-1
 753 187 l 1,25,26
 720 138 720 138 663 99 c 128,-1,27
 606 60 606 60 541.5 60 c 128,-1,28
 477 60 477 60 433 129.5 c 128,-1,29
 389 199 389 199 389 313 c 0,30,31
 389 533.464 389 533.464 512.845 661.732 c 128,-1,32
 636.69 790 636.69 790 770 790 c 0,33,34
 846 790 846 790 922 773 c 1,35,-1
 940 752 l 1,36,-1
 898 385 l 1,37,-1
 886 296.5 l 2,38,39
 877 230 877 230 879.5 191 c 128,-1,40
 882 152 882 152 910 152 c 0,41,42
 1027 152 1027 152 1111.5 264 c 128,-1,43
 1196 376 1196 376 1196 525 c 128,-1,44
 1196 674 1196 674 1134 772.5 c 128,-1,45
 1072 871 1072 871 971.5 921.5 c 128,-1,46
 871 972 871 972 733.5 972 c 128,-1,47
 596 972 596 972 471 888.5 c 128,-1,48
 346 805 346 805 278 664 c 128,-1,49
 210 523 210 523 210 355 c 0,50,51
 210 125 210 125 348 -12 c 128,-1,52
 486 -149 486 -149 729 -149 c 0,53,54
 830 -149 830 -149 937 -109 c 128,-1,55
 1044 -69 1044 -69 1088 -31 c 1,56,-1
 1117 -82 l 1,57,58
 1015.75 -148.734 1015.75 -148.734 960.391 -173.152 c 0,59,60
 838.317 -227 838.317 -227 718.658 -227 c 128,-1,61
 599 -227 599 -227 512 -206.5 c 0,62,63
 329.809 -163.57 329.809 -163.57 208.904 -28.998 c 128,-1,64
 88 105.574 88 105.574 88 312.287 c 128,-1,11
 88 519 88 519 173.5 681.5 c 128,-1,12
EndSplineSet
Colour: ffffff
EndChar

StartChar: b
Encoding: 98 98 57
Width: 961
VWidth: 0
Flags: W
HStem: -24 86<328.015 632.791> 785 101<427.717 652.925> 1191 54<27 70.224> 1245 20G<27 300>
VStem: 171 129<93.6406 710.704 733 1149> 763 142<236.742 655.447>
LayerCount: 2
Fore
SplineSet
300 126 m 1,0,1
 364 62 364 62 508 62 c 0,2,3
 609 62 609 62 686 154.5 c 128,-1,4
 763 247 763 247 763 406 c 0,5,6
 763 676.732 763 676.732 633.5 755.5 c 0,7,8
 585 785 585 785 520 785 c 0,9,10
 410 785 410 785 300 668 c 1,11,-1
 300 126 l 1,0,1
18 1191 m 1,12,-1
 27 1245 l 1,13,-1
 285 1265 l 1,14,-1
 300 1249 l 1,15,-1
 300 837 l 1,16,-1
 286 733 l 1,17,-1
 298 733 l 1,18,19
 434 886 434 886 582.5 886 c 128,-1,20
 731 886 731 886 818 771 c 128,-1,21
 905 656 905 656 905 466 c 0,22,23
 905 232.433 905 232.433 763.008 104.216 c 128,-1,24
 621.017 -24 621.017 -24 420 -24 c 0,25,26
 284 -24 284 -24 171 49 c 1,27,-1
 171 1149 l 1,28,-1
 18 1191 l 1,12,-1
EndSplineSet
Colour: ffffff
EndChar

StartChar: backslash
Encoding: 92 92 58
Width: 611
VWidth: 0
Flags: W
HStem: 1239 20G<37.7495 140>
VStem: 32 570
DStem2: 140 1254 32 1259 0.276287 -0.961075<0 1652.01>
LayerCount: 2
Fore
SplineSet
32 1259 m 1,0,-1
 140 1254 l 1,1,-1
 602 -367 l 1,2,-1
 498 -362 l 1,3,-1
 32 1259 l 1,0,-1
EndSplineSet
Colour: ffffff
EndChar

StartChar: bar
Encoding: 124 124 59
Width: 448
VWidth: 0
Flags: W
HStem: -380 21G<191 287> 1241 20G<191 287>
VStem: 191 96<-367 1248>
LayerCount: 2
Fore
SplineSet
191 -367 m 1,0,-1
 191 1261 l 1,1,-1
 287 1248 l 1,2,-1
 287 -380 l 1,3,-1
 191 -367 l 1,0,-1
EndSplineSet
Colour: ffffff
EndChar

StartChar: braceright
Encoding: 125 125 60
Width: 607
VWidth: 0
Flags: W
HStem: -378 75<40 184.277> 402 74<510 559> 1182 74<45 139>
VStem: 224 144.5<-271.793 321.089 562.613 1151.21>
LayerCount: 2
Fore
SplineSet
32 -378 m 1,0,-1
 40 -303 l 1,1,-1
 127 -297 l 1,2,3
 205.248 -293.274 205.248 -293.274 217.5 -158.5 c 0,4,5
 223 -98 223 -98 224 -25 c 128,-1,6
 225 48 225 48 230 123.5 c 128,-1,7
 235 199 235 199 249 264 c 128,-1,8
 263 329 263 329 302.5 376.5 c 128,-1,9
 342 424 342 424 406 438 c 1,10,-1
 406 443 l 1,11,12
 281.557 474.111 281.557 474.111 250 619.5 c 0,13,14
 226.276 728.798 226.276 728.798 227.138 852.899 c 128,-1,15
 228 977 228 977 223.5 1036.5 c 0,16,17
 213.447 1169.42 213.447 1169.42 139 1175 c 2,18,-1
 45 1182 l 1,19,-1
 37 1256 l 1,20,-1
 139 1256 l 2,21,22
 222 1256 222 1256 272 1215.5 c 128,-1,23
 322 1175 322 1175 340 1110 c 128,-1,24
 358 1045 358 1045 363 966 c 128,-1,25
 368 887 368 887 368.5 806 c 128,-1,26
 369 725 369 725 377.5 656.5 c 0,27,28
 396.798 500.98 396.798 500.98 510 484 c 1,29,-1
 559 476 l 1,30,-1
 559 402 l 1,31,-1
 507 395 l 2,32,33
 395.066 379.823 395.066 379.823 377 224 c 0,34,35
 369 155 369 155 368.5 74 c 128,-1,36
 368 -7 368 -7 363 -86.5 c 128,-1,37
 358 -166 358 -166 339.5 -231.5 c 128,-1,38
 321 -297 321 -297 270 -337.5 c 128,-1,39
 219 -378 219 -378 135 -378 c 2,40,-1
 32 -378 l 1,0,-1
EndSplineSet
Colour: ffffff
EndChar

StartChar: bracketright
Encoding: 93 93 61
Width: 476
VWidth: 0
Flags: W
HStem: -375 69<32 193.882> 1185 71<34 186.427>
VStem: 261 131<-286 1164>
LayerCount: 2
Fore
SplineSet
24 -306 m 1,0,-1
 261 -286 l 1,1,-1
 261 1164 l 1,2,-1
 26 1185 l 1,3,-1
 34 1256 l 1,4,-1
 391 1256 l 1,5,-1
 392 -375 l 1,6,-1
 32 -375 l 1,7,-1
 24 -306 l 1,0,-1
EndSplineSet
Colour: ffffff
EndChar

StartChar: breve
Encoding: 728 728 62
Width: 596
VWidth: 0
Flags: W
HStem: 1374 93<187.886 399.415>
VStem: 105 30<1556.52 1566.38>
LayerCount: 2
Fore
SplineSet
105 1553 m 1,0,-1
 135 1581 l 1,1,2
 158 1536 158 1536 199 1501.5 c 128,-1,3
 240 1467 240 1467 295 1467 c 0,4,5
 389 1467 389 1467 454 1583 c 1,6,-1
 488 1558 l 1,7,8
 425 1374 425 1374 287.5 1374 c 128,-1,9
 150 1374 150 1374 105 1553 c 1,0,-1
EndSplineSet
Colour: ffffff
EndChar

StartChar: brokenbar
Encoding: 166 166 63
Width: 449
VWidth: 0
Flags: W
HStem: -380 21G<193 288> 1237 20G<193 287>
VStem: 193 95<-370 411 537 1248>
LayerCount: 2
Fore
SplineSet
193 537 m 1,0,-1
 193 1257 l 1,1,-1
 287 1248 l 1,2,-1
 285 529 l 1,3,-1
 193 537 l 1,0,-1
193 -370 m 1,4,-1
 193 419 l 1,5,-1
 288 411 l 1,6,-1
 288 -380 l 1,7,-1
 193 -370 l 1,4,-1
EndSplineSet
Colour: ffffff
EndChar

StartChar: c
Encoding: 99 99 64
Width: 779
VWidth: 0
Flags: W
HStem: -30 99<377.885 647.378> 810 78<336.016 542.927>
VStem: 91 140<247.334 642.801> 627 95<673.172 722.463>
LayerCount: 2
Fore
SplineSet
190 94.5 m 128,-1,1
 91 219 91 219 91 420.5 c 128,-1,2
 91 622 91 622 207 755 c 128,-1,3
 323 888 323 888 491 888 c 0,4,5
 608 888 608 888 665 840.5 c 128,-1,6
 722 793 722 793 722 726 c 0,7,8
 722 643 722 643 627 627 c 1,9,10
 596 714 596 714 553 762 c 128,-1,11
 510 810 510 810 443 810 c 0,12,13
 351 810 351 810 291 722 c 128,-1,14
 231 634 231 634 231 467.5 c 128,-1,15
 231 301 231 301 309.5 185 c 128,-1,16
 388 69 388 69 516.5 69 c 128,-1,17
 645 69 645 69 742 148 c 1,18,-1
 763 102 l 1,19,20
 723 48 723 48 636.5 9 c 128,-1,21
 550 -30 550 -30 457 -30 c 0,22,0
 289 -30 289 -30 190 94.5 c 128,-1,1
EndSplineSet
Colour: ffffff
EndChar

StartChar: caron
Encoding: 711 711 65
Width: 620
VWidth: 0
Flags: W
HStem: 1357 228
VStem: 108 408
DStem2: 176 1585 108 1530 0.719055 -0.694953<0 221.304> 343 1429 343 1371 0.688959 0.724801<0 201.837>
LayerCount: 2
Fore
SplineSet
108 1530 m 1,0,-1
 176 1585 l 1,1,-1
 333 1429 l 1,2,-1
 343 1429 l 1,3,-1
 475 1582 l 1,4,-1
 516 1553 l 1,5,-1
 343 1371 l 1,6,-1
 287 1357 l 1,7,-1
 108 1530 l 1,0,-1
EndSplineSet
Colour: ffffff
EndChar

StartChar: cdotaccent
Encoding: 267 267 66
Width: 779
VWidth: 0
Flags: W
HStem: -30 99<377.885 647.378> 810 78<336.016 542.927> 983 208<429.722 551.247>
VStem: 91 140<247.334 642.801> 406 170<1013.43 1162.12> 627 95<673.172 722.463>
LayerCount: 2
Fore
SplineSet
190 94.5 m 128,-1,1
 91 219 91 219 91 420.5 c 128,-1,2
 91 622 91 622 207 755 c 128,-1,3
 323 888 323 888 491 888 c 0,4,5
 608 888 608 888 665 840.5 c 128,-1,6
 722 793 722 793 722 726 c 0,7,8
 722 643 722 643 627 627 c 1,9,10
 596 714 596 714 553 762 c 128,-1,11
 510 810 510 810 443 810 c 0,12,13
 351 810 351 810 291 722 c 128,-1,14
 231 634 231 634 231 467.5 c 128,-1,15
 231 301 231 301 309.5 185 c 128,-1,16
 388 69 388 69 516.5 69 c 128,-1,17
 645 69 645 69 742 148 c 1,18,-1
 763 102 l 1,19,20
 723 48 723 48 636.5 9 c 128,-1,21
 550 -30 550 -30 457 -30 c 0,22,0
 289 -30 289 -30 190 94.5 c 128,-1,1
428.5 1012.5 m 128,-1,24
 406 1042 406 1042 406 1088.5 c 128,-1,25
 406 1135 406 1135 429 1163 c 128,-1,26
 452 1191 452 1191 490 1191 c 128,-1,27
 528 1191 528 1191 552 1163 c 128,-1,28
 576 1135 576 1135 576 1088 c 128,-1,29
 576 1041 576 1041 553 1012 c 128,-1,30
 530 983 530 983 490.5 983 c 128,-1,23
 451 983 451 983 428.5 1012.5 c 128,-1,24
EndSplineSet
Colour: ffffff
EndChar

StartChar: cedilla
Encoding: 184 184 67
Width: 361
VWidth: 0
Flags: W
HStem: -390 51<87.5024 127.742>
VStem: 179 113<-309.092 -161.986>
LayerCount: 2
Fore
SplineSet
76 -339 m 1,0,1
 119 -324 119 -324 149 -297.5 c 128,-1,2
 179 -271 179 -271 179 -253.5 c 128,-1,3
 179 -236 179 -236 175 -223.5 c 0,4,5
 167.613 -200.415 167.613 -200.415 151.5 -181.5 c 2,6,7
 136.5 -164 l 2,8,9
 133 -160 133 -160 117 -145 c 128,-1,10
 101 -130 101 -130 99 -128 c 1,11,-1
 190 3 l 1,12,-1
 257 3 l 1,13,-1
 203 -76 l 1,14,15
 292 -155 292 -155 292 -227 c 0,16,17
 292 -330 292 -330 92 -390 c 1,18,-1
 76 -339 l 1,0,1
EndSplineSet
Colour: ffffff
EndChar

StartChar: cent
Encoding: 162 162 68
Width: 803
VWidth: 0
Flags: W
HStem: -29 98<485 645.485> 843 77<480 538.52>
VStem: 87 140<249.069 651.135> 386 128<-251.904 -232.335 1093.11 1135.49> 622 95<706.172 755.463>
LayerCount: 2
Fore
SplineSet
375 1135 m 1,0,-1
 502 1152 l 1,1,-1
 480 920 l 1,2,-1
 487 920 l 2,3,4
 604 920 604 920 660.5 873 c 128,-1,5
 717 826 717 826 717 759 c 0,6,7
 717 676 717 676 622 660 c 1,8,9
 591 747 591 747 548.5 795 c 128,-1,10
 506 843 506 843 439 843 c 0,11,12
 349 843 349 843 288 743 c 128,-1,13
 227 643 227 643 227 474.5 c 128,-1,14
 227 306 227 306 305.5 187.5 c 128,-1,15
 384 69 384 69 512 69 c 128,-1,16
 640 69 640 69 737 148 c 1,17,-1
 758 102 l 1,18,19
 721 53 721 53 645.5 15.5 c 128,-1,20
 570 -22 570 -22 485 -29 c 1,21,-1
 514 -250 l 1,22,-1
 386 -267 l 1,23,-1
 409 -28 l 1,24,25
 310 -16 310 -16 236 46.5 c 0,26,27
 87 172.345 87 172.345 87 412 c 0,28,29
 87 601 87 601 177 737.5 c 128,-1,30
 267 874 267 874 404 909 c 1,31,-1
 375 1135 l 1,0,-1
EndSplineSet
Colour: ffffff
EndChar

StartChar: circumflex
Encoding: 710 710 69
Width: 615
VWidth: 0
Flags: W
HStem: 1359 223
VStem: 105 401
LayerCount: 2
Fore
SplineSet
105 1388 m 1,0,-1
 273 1568 l 1,1,-1
 328 1582 l 1,2,-1
 506 1396 l 1,3,-1
 466 1359 l 1,4,-1
 293 1481 l 1,5,-1
 284 1481 l 1,6,-1
 135 1358 l 1,7,-1
 105 1388 l 1,0,-1
EndSplineSet
Colour: ffffff
EndChar

StartChar: colon
Encoding: 58 58 70
Width: 410
VWidth: 0
Flags: W
HStem: 315 212<160.69 272.731>
VStem: 120 178<345.942 497.605>
LayerCount: 2
Fore
SplineSet
160 332 m 0,0,1
 120 362 120 362 120 417 c 128,-1,2
 120 472 120 472 144.5 499.5 c 128,-1,3
 169 527 169 527 208 527 c 2,4,-1
 210 527 l 2,5,6
 249 527 249 527 273.5 498.5 c 128,-1,7
 298 470 298 470 298 422.5 c 128,-1,8
 298 375 298 375 274 345 c 128,-1,9
 250 315 250 315 216 315 c 128,-1,10
 182 315 182 315 160 332 c 0,0,1
EndSplineSet
Colour: ffffff
EndChar

StartChar: comma
Encoding: 44 44 71
Width: 397
VWidth: 0
Flags: W
HStem: -298 58<67.5509 119.698> 74 144<102.41 205.773>
VStem: 234 118<-141.714 43.1403>
LayerCount: 2
Fore
SplineSet
54 -240 m 1,0,1
 234 -181 234 -181 234 -50 c 0,2,3
 234 3 234 3 202 38.5 c 128,-1,4
 170 74 170 74 122 74 c 0,5,6
 106 74 106 74 93 71 c 1,7,8
 85 95 85 95 85 127.5 c 128,-1,9
 85 160 85 160 117.5 189 c 128,-1,10
 150 218 150 218 202.5 218 c 128,-1,11
 255 218 255 218 303.5 164 c 128,-1,12
 352 110 352 110 352 18.5714 c 128,-1,13
 352 -72.8571 352 -72.8571 312.5 -134.929 c 0,14,15
 239.111 -250.254 239.111 -250.254 72 -298 c 1,16,-1
 54 -240 l 1,0,1
EndSplineSet
Colour: ffffff
EndChar

StartChar: commaaccent
Encoding: 806 806 72
Width: 573
VWidth: 0
Flags: W
HStem: -390 305
VStem: 114 93<-312.488 -176.762>
LayerCount: 2
Fore
SplineSet
4 -345 m 1,0,1
 114 -319 114 -319 114 -244 c 0,2,3
 114 -210 114 -210 84 -186.5 c 128,-1,4
 54 -163 54 -163 21 -160 c 1,5,6
 24 -131 24 -131 48 -108 c 128,-1,7
 72 -85 72 -85 109 -85 c 128,-1,8
 146 -85 146 -85 176.5 -115.5 c 128,-1,9
 207 -146 207 -146 207 -187 c 0,10,11
 207 -254.25 207 -254.25 165.755 -310.962 c 128,-1,12
 124.51 -367.674 124.51 -367.674 21 -390 c 1,13,-1
 4 -345 l 1,0,1
EndSplineSet
Colour: ffffff
EndChar

StartChar: copyright
Encoding: 169 169 73
Width: 1378
VWidth: 0
Flags: W
HStem: -21 83<479.924 894.32> 264 83<612.144 849.153> 965 65<581.037 754.269> 1222 79<495.302 895.844>
VStem: 72 95<393.355 885.63> 377 117<478.752 839.95> 825 79<846.748 895.305> 1224 94<392.538 882.683>
LayerCount: 2
Fore
SplineSet
459.5 368 m 128,-1,1
 377 472 377 472 377 640 c 128,-1,2
 377 808 377 808 474 919 c 128,-1,3
 571 1030 571 1030 711 1030 c 0,4,5
 808 1030 808 1030 856 990.5 c 128,-1,6
 904 951 904 951 904 895 c 0,7,8
 904 826 904 826 825 813 c 1,9,10
 799 885 799 885 763 925 c 128,-1,11
 727 965 727 965 660.5 965 c 128,-1,12
 594 965 594 965 544 892 c 128,-1,13
 494 819 494 819 494 679.5 c 128,-1,14
 494 540 494 540 559.5 443.5 c 128,-1,15
 625 347 625 347 733 347 c 128,-1,16
 841 347 841 347 921 413 c 1,17,-1
 938 374 l 1,18,19
 904 329 904 329 832.5 296.5 c 128,-1,20
 761 264 761 264 683 264 c 0,21,0
 542 264 542 264 459.5 368 c 128,-1,1
167 644 m 0,22,23
 167 391 167 391 313 226.5 c 128,-1,24
 459 62 459 62 686 62 c 0,25,26
 836 62 836 62 959.5 135 c 128,-1,27
 1083 208 1083 208 1153.5 337.5 c 128,-1,28
 1224 467 1224 467 1224 631 c 128,-1,29
 1224 795 1224 795 1159 930 c 128,-1,30
 1094 1065 1094 1065 971 1143.5 c 128,-1,31
 848 1222 848 1222 694.5 1222 c 128,-1,32
 541 1222 541 1222 421 1145 c 128,-1,33
 301 1068 301 1068 234 936 c 128,-1,34
 167 804 167 804 167 644 c 0,22,23
72 633 m 0,35,36
 72 776 72 776 121 901.5 c 128,-1,37
 170 1027 170 1027 253 1114 c 128,-1,38
 336 1201 336 1201 449 1251 c 128,-1,39
 562 1301 562 1301 687 1301 c 0,40,41
 877 1301 877 1301 1021 1216 c 128,-1,42
 1165 1131 1165 1131 1241.5 980.5 c 128,-1,43
 1318 830 1318 830 1318 640.5 c 128,-1,44
 1318 451 1318 451 1236.5 301 c 128,-1,45
 1155 151 1155 151 1008 65 c 128,-1,46
 861 -21 861 -21 677 -21 c 0,47,48
 405 -21 405 -21 238.5 161.5 c 128,-1,49
 72 344 72 344 72 633 c 0,35,36
EndSplineSet
Colour: ffffff
EndChar

StartChar: currency
Encoding: 164 164 74
Width: 769
VWidth: 0
Flags: W
HStem: 218 83<276.933 503.656> 685 85<273.827 502.516>
VStem: 127 90<357.529 629.241> 564 89<359.112 624.346>
LayerCount: 2
Fore
SplineSet
263.5 632.5 m 128,-1,1
 217 580 217 580 217 494 c 128,-1,2
 217 408 217 408 264 354.5 c 128,-1,3
 311 301 311 301 388.5 301 c 128,-1,4
 466 301 466 301 515 353 c 128,-1,5
 564 405 564 405 564 491 c 128,-1,6
 564 577 564 577 515 631 c 128,-1,7
 466 685 466 685 388 685 c 128,-1,0
 310 685 310 685 263.5 632.5 c 128,-1,1
547 274 m 1,8,9
 456.913 218 456.913 218 389.457 218 c 128,-1,10
 322 218 322 218 240 268 c 1,11,-1
 163 179 l 1,12,-1
 96 247 l 1,13,-1
 180 325 l 1,14,15
 159 357 159 357 143 404.5 c 128,-1,16
 127 452 127 452 127 487.5 c 0,17,18
 127 568.737 127 568.737 174 638 c 1,19,-1
 83 723 l 1,20,-1
 151 789 l 1,21,-1
 229 701 l 1,22,23
 263 729 263 729 309 749.5 c 128,-1,24
 355 770 355 770 392 770 c 128,-1,25
 429 770 429 770 477 752 c 128,-1,26
 525 734 525 734 557 710 c 1,27,-1
 634 790 l 1,28,-1
 693 720 l 1,29,-1
 609 646 l 1,30,31
 653 568.353 653 568.353 653 511.176 c 0,32,33
 653 402 653 402 602 334 c 1,34,-1
 695 248 l 1,35,-1
 626 184 l 1,36,-1
 547 274 l 1,8,9
EndSplineSet
Colour: ffffff
EndChar

StartChar: d
Encoding: 100 100 75
Width: 997
VWidth: 0
Flags: W
HStem: -21 98<343.081 582.706> -2 60<925 969> 810 79<353.417 606.929> 1194 53<553 594.676> 1249 20G<576.455 826>
VStem: 92 138<213.082 615.601> 710 116<89.3755 131 156.145 725.594 841 1151>
LayerCount: 2
Fore
SplineSet
295 713.5 m 128,-1,1
 230 617 230 617 230 446 c 128,-1,2
 230 275 230 275 294 176 c 128,-1,3
 358 77 358 77 474 77 c 0,4,5
 535 77 535 77 600.5 112 c 128,-1,6
 666 147 666 147 700 193 c 1,7,-1
 700 685 l 1,8,9
 659 744 659 744 595.5 777 c 128,-1,10
 532 810 532 810 469 810 c 0,11,0
 360 810 360 810 295 713.5 c 128,-1,1
92 393 m 0,12,13
 92 501 92 501 128.5 596 c 128,-1,14
 165 691 165 691 225.5 754 c 0,15,16
 355.143 889 355.143 889 518 889 c 0,17,18
 567 889 567 889 622 874.5 c 128,-1,19
 677 860 677 860 702 841 c 1,20,-1
 710 841 l 1,21,-1
 696 972 l 1,22,-1
 696 1151 l 1,23,-1
 544 1194 l 1,24,-1
 553 1247 l 1,25,-1
 811 1269 l 1,26,-1
 826 1252 l 1,27,-1
 826 222 l 2,28,29
 826 116.548 826 116.548 868.5 90.5 c 0,30,31
 890.781 76.8438 890.781 76.8438 925 70 c 2,32,-1
 978 58 l 1,33,-1
 969 -2 l 1,34,35
 902 -22 902 -22 840.5 -22 c 128,-1,36
 779 -22 779 -22 744.5 18.5 c 128,-1,37
 710 59 710 59 710 124 c 2,38,-1
 710 131 l 1,39,-1
 700 131 l 1,40,41
 589 -21 589 -21 411 -21 c 0,42,43
 272 -21 272 -21 182 88 c 128,-1,44
 92 197 92 197 92 393 c 0,12,13
EndSplineSet
Colour: ffffff
EndChar

StartChar: dagger
Encoding: 8224 8224 76
Width: 847
VWidth: 0
Flags: W
HStem: 723 96<86 383 477 777> 1236 20G<375.36 488>
VStem: 368 125<-351 614.536> 383 94<-249.536 728 811 1244>
LayerCount: 2
Fore
SplineSet
77 723 m 1,0,-1
 86 819 l 1,1,-1
 383 811 l 1,2,-1
 375 1256 l 1,3,-1
 488 1244 l 1,4,-1
 477 811 l 1,5,-1
 783 819 l 1,6,-1
 777 718 l 1,7,-1
 477 728 l 1,8,-1
 493 -363 l 1,9,-1
 368 -351 l 1,10,-1
 383 730 l 1,11,-1
 77 723 l 1,0,-1
EndSplineSet
Colour: ffffff
EndChar

StartChar: daggerdbl
Encoding: 8225 8225 77
Width: 864
VWidth: 0
Flags: W
HStem: 75 103<105 385 480 786> 723 95<93 388 483 781> 1236 20G<380.36 494>
VStem: 385 95<-353 85 166 182.741 707.907 728 811 1244> 392 83<166 728>
LayerCount: 2
Fore
SplineSet
85 723 m 1,0,-1
 93 818 l 1,1,-1
 388 811 l 1,2,-1
 380 1256 l 1,3,-1
 494 1244 l 1,4,-1
 483 811 l 1,5,-1
 788 818 l 1,6,-1
 781 717 l 1,7,-1
 483 728 l 1,8,-1
 475 429 l 1,9,-1
 480 165 l 1,10,-1
 792 171 l 1,11,-1
 786 75 l 1,12,-1
 480 85 l 1,13,-1
 488 -363 l 1,14,-1
 375 -353 l 1,15,-1
 385 85 l 1,16,-1
 98 75 l 1,17,-1
 105 178 l 1,18,-1
 385 166 l 1,19,-1
 392 499 l 1,20,-1
 388 730 l 1,21,-1
 85 723 l 1,0,-1
EndSplineSet
Colour: ffffff
EndChar

StartChar: dcroat
Encoding: 273 273 78
Width: 997
VWidth: 0
Flags: W
HStem: -21 98<343.081 582.706> -2 60<925 969> 810 79<353.417 606.929> 999 64<481 696 826 940> 1194 53<553 594.676> 1249 20G<576.455 826>
VStem: 92 138<213.082 615.601> 696 130<89.3755 131 144.73 738.931 841 999 1063 1151>
LayerCount: 2
Fore
SplineSet
471 999 m 1,0,-1
 481 1063 l 1,1,-1
 696 1063 l 1,2,-1
 696 1151 l 1,3,-1
 544 1194 l 1,4,-1
 553 1247 l 1,5,-1
 811 1269 l 1,6,-1
 826 1252 l 1,7,-1
 826 1063 l 1,8,-1
 950 1063 l 1,9,-1
 940 999 l 1,10,-1
 826 999 l 1,11,-1
 826 222 l 2,12,13
 826 116.548 826 116.548 868.5 90.5 c 0,14,15
 890.781 76.8438 890.781 76.8438 925 70 c 2,16,-1
 978 58 l 1,17,-1
 969 -2 l 1,18,19
 902 -22 902 -22 840.5 -22 c 128,-1,20
 779 -22 779 -22 744.5 18.5 c 128,-1,21
 710 59 710 59 710 124 c 2,22,-1
 710 131 l 1,23,-1
 700 131 l 1,24,25
 589 -21 589 -21 411 -21 c 0,26,27
 272 -21 272 -21 182 88 c 128,-1,28
 92 197 92 197 92 393 c 0,29,30
 92 501 92 501 128.5 596 c 128,-1,31
 165 691 165 691 225.5 754 c 0,32,33
 355.143 889 355.143 889 518 889 c 0,34,35
 567 889 567 889 622 874.5 c 128,-1,36
 677 860 677 860 702 841 c 1,37,-1
 710 841 l 1,38,-1
 696 972 l 1,39,-1
 696 999 l 1,40,-1
 471 999 l 1,0,-1
295 713.5 m 128,-1,42
 230 617 230 617 230 446 c 128,-1,43
 230 275 230 275 294 176 c 128,-1,44
 358 77 358 77 474 77 c 0,45,46
 535 77 535 77 600.5 112 c 128,-1,47
 666 147 666 147 700 193 c 1,48,-1
 700 685 l 1,49,50
 659 744 659 744 595.5 777 c 128,-1,51
 532 810 532 810 469 810 c 0,52,41
 360 810 360 810 295 713.5 c 128,-1,42
EndSplineSet
Colour: ffffff
EndChar

StartChar: degree
Encoding: 176 176 79
Width: 424
VWidth: 0
Flags: W
HStem: 928 53<151.564 282.901> 1251 53<142.5 275.097>
VStem: 32 76<1018.44 1218.99> 319 77<1011.78 1212.63>
LayerCount: 2
Fore
SplineSet
135 1217 m 128,-1,1
 108 1183 108 1183 108 1124 c 128,-1,2
 108 1065 108 1065 137.5 1023 c 128,-1,3
 167 981 167 981 214.5 981 c 128,-1,4
 262 981 262 981 290.5 1014.5 c 128,-1,5
 319 1048 319 1048 319 1107 c 128,-1,6
 319 1166 319 1166 289 1208.5 c 128,-1,7
 259 1251 259 1251 210.5 1251 c 128,-1,0
 162 1251 162 1251 135 1217 c 128,-1,1
77.5 974.5 m 128,-1,9
 32 1021 32 1021 32 1103.5 c 128,-1,10
 32 1186 32 1186 88.5 1245 c 128,-1,11
 145 1304 145 1304 227.5 1304 c 128,-1,12
 310 1304 310 1304 353 1258 c 128,-1,13
 396 1212 396 1212 396 1127.5 c 128,-1,14
 396 1043 396 1043 339 985.5 c 128,-1,15
 282 928 282 928 202.5 928 c 128,-1,8
 123 928 123 928 77.5 974.5 c 128,-1,9
EndSplineSet
Colour: ffffff
EndChar

StartChar: dieresis
Encoding: 168 168 80
Width: 365
VWidth: 0
Flags: W
HStem: 99 159<-185.403 -84.6278 82.5968 183.857>
VStem: -205 141<122.207 236.855> 63 142<122.207 236.855>
LayerCount: 2
Fore
SplineSet
81.5 121.5 m 128,-1,1
 63 144 63 144 63 180.5 c 128,-1,2
 63 217 63 217 82 237.5 c 128,-1,3
 101 258 101 258 132.5 258 c 128,-1,4
 164 258 164 258 184.5 237.5 c 128,-1,5
 205 217 205 217 205 180 c 128,-1,6
 205 143 205 143 185 121 c 128,-1,7
 165 99 165 99 132.5 99 c 128,-1,0
 100 99 100 99 81.5 121.5 c 128,-1,1
-186 121.5 m 128,-1,9
 -205 144 -205 144 -205 180.5 c 128,-1,10
 -205 217 -205 217 -186 237.5 c 128,-1,11
 -167 258 -167 258 -135.5 258 c 128,-1,12
 -104 258 -104 258 -84 237.5 c 128,-1,13
 -64 217 -64 217 -64 180 c 128,-1,14
 -64 143 -64 143 -83.5 121 c 128,-1,15
 -103 99 -103 99 -135 99 c 128,-1,8
 -167 99 -167 99 -186 121.5 c 128,-1,9
EndSplineSet
Colour: ffffff
EndChar

StartChar: dieresiscomb
Encoding: 776 776 81
Width: 54
VWidth: 0
Flags: W
HStem: 1384 159<143.597 244.372 411.597 512.857>
VStem: 124 141<1407.21 1521.86> 392 142<1407.21 1521.86>
LayerCount: 2
Fore
SplineSet
410.5 1406.5 m 128,-1,1
 392 1429 392 1429 392 1465.5 c 128,-1,2
 392 1502 392 1502 411 1522.5 c 128,-1,3
 430 1543 430 1543 461.5 1543 c 128,-1,4
 493 1543 493 1543 513.5 1522.5 c 128,-1,5
 534 1502 534 1502 534 1465 c 128,-1,6
 534 1428 534 1428 514 1406 c 128,-1,7
 494 1384 494 1384 461.5 1384 c 128,-1,0
 429 1384 429 1384 410.5 1406.5 c 128,-1,1
143 1406.5 m 128,-1,9
 124 1429 124 1429 124 1465.5 c 128,-1,10
 124 1502 124 1502 143 1522.5 c 128,-1,11
 162 1543 162 1543 193.5 1543 c 128,-1,12
 225 1543 225 1543 245 1522.5 c 128,-1,13
 265 1502 265 1502 265 1465 c 128,-1,14
 265 1428 265 1428 245.5 1406 c 128,-1,15
 226 1384 226 1384 194 1384 c 128,-1,8
 162 1384 162 1384 143 1406.5 c 128,-1,9
EndSplineSet
Colour: ffffff
EndChar

StartChar: divide
Encoding: 247 247 82
Width: 958
VWidth: 0
Flags: W
HStem: 112 218<408.785 539.668> 465 85<81 882> 676 218<408.785 539.668>
VStem: 383 184<145.004 300.089 709.004 864.604>
LayerCount: 2
Fore
SplineSet
408 708 m 128,-1,1
 383 740 383 740 383 789 c 128,-1,2
 383 838 383 838 407.5 866 c 128,-1,3
 432 894 432 894 473 894 c 128,-1,4
 514 894 514 894 540.5 865.5 c 128,-1,5
 567 837 567 837 567 788 c 128,-1,6
 567 739 567 739 541.5 707.5 c 128,-1,7
 516 676 516 676 474.5 676 c 128,-1,0
 433 676 433 676 408 708 c 128,-1,1
408 144 m 128,-1,9
 383 176 383 176 383 225 c 128,-1,10
 383 274 383 274 407.5 302 c 128,-1,11
 432 330 432 330 473 330 c 128,-1,12
 514 330 514 330 540.5 301 c 128,-1,13
 567 272 567 272 567 223.5 c 128,-1,14
 567 175 567 175 541.5 143.5 c 128,-1,15
 516 112 516 112 474.5 112 c 128,-1,8
 433 112 433 112 408 144 c 128,-1,9
68 465 m 1,16,-1
 81 550 l 1,17,-1
 893 550 l 1,18,-1
 882 465 l 1,19,-1
 68 465 l 1,16,-1
EndSplineSet
Colour: ffffff
EndChar

StartChar: dollar
Encoding: 36 36 83
Width: 860
VWidth: 0
Flags: W
HStem: 869 21G<664 738.824>
VStem: 102 75<295.812 384> 116 136<869.382 1106.85> 382 145<-165.483 -25 1283.77 1396.62> 422 62<59 527 756 1197> 664 73<878 998.202> 690 147<165.526 396.805>
DStem2: 482 721 422 564 0.856116 -0.516783<0 29.7679 101.968 343.423>
LayerCount: 2
Fore
SplineSet
80 119 m 1,0,-1
 102 395 l 1,1,-1
 177 384 l 1,2,-1
 210 181 l 1,3,4
 238 132 238 132 295.5 98.5 c 128,-1,5
 353 65 353 65 422 58 c 1,6,-1
 422 564 l 1,7,8
 346.5 610 l 1,9,10
 253.452 668.767 253.452 668.767 220.226 705.384 c 128,-1,11
 187 742 187 742 163 776.5 c 0,12,13
 116 844.062 116 844.062 116 956.031 c 128,-1,14
 116 1068 116 1068 197 1153.5 c 128,-1,15
 278 1239 278 1239 398 1262 c 1,16,-1
 387 1395 l 1,17,-1
 524 1411 l 1,18,-1
 511 1269 l 1,19,20
 669 1258 669 1258 764 1165 c 1,21,-1
 737 869 l 1,22,-1
 664 878 l 1,23,-1
 638 1096 l 1,24,25
 620 1130 620 1130 576 1159 c 128,-1,26
 532 1188 532 1188 482 1197 c 1,27,-1
 482 721 l 1,28,29
 496 712 496 712 531 692 c 0,30,31
 708.395 588.663 708.395 588.663 755.854 531.034 c 128,-1,32
 803.314 473.405 803.314 473.405 820.157 428.82 c 128,-1,33
 837 384.235 837 384.235 837 331 c 0,34,35
 837 200 837 200 747.5 106.5 c 128,-1,36
 658 13 658 13 516 -15 c 1,37,-1
 527 -164 l 1,38,-1
 382 -179 l 1,39,-1
 392 -25 l 1,40,41
 295 -21 295 -21 211.5 19.5 c 128,-1,42
 128 60 128 60 80 119 c 1,0,-1
426 756 m 1,43,-1
 426 1199 l 1,44,45
 350 1193 350 1193 301 1141 c 128,-1,46
 252 1089 252 1089 252 1007 c 128,-1,47
 252 925 252 925 297.5 867.5 c 128,-1,48
 343 810 343 810 426 756 c 1,43,-1
484 527 m 1,49,-1
 484 59 l 1,50,51
 570 69 570 69 630 124.5 c 128,-1,52
 690 180 690 180 690 280.162 c 128,-1,53
 690 380.323 690 380.323 564.5 473 c 0,54,55
 532 497 532 497 484 527 c 1,49,-1
EndSplineSet
Colour: ffffff
EndChar

StartChar: dotaccent
Encoding: 729 729 84
Width: 365
VWidth: 0
Flags: W
HStem: 98 208<-61.2776 60.2466>
VStem: -85 170<128.426 277.12>
LayerCount: 2
Fore
SplineSet
-62.5 127.5 m 128,-1,1
 -85 157 -85 157 -85 203.5 c 128,-1,2
 -85 250 -85 250 -62 278 c 128,-1,3
 -39 306 -39 306 -1 306 c 128,-1,4
 37 306 37 306 61 278 c 128,-1,5
 85 250 85 250 85 203 c 128,-1,6
 85 156 85 156 62 127 c 128,-1,7
 39 98 39 98 -0.5 98 c 128,-1,0
 -40 98 -40 98 -62.5 127.5 c 128,-1,1
EndSplineSet
Colour: ffffff
EndChar

StartChar: dotaccentcomb
Encoding: 775 775 85
Width: 26
VWidth: 0
Flags: W
HStem: 1346 208<152.722 274.247>
VStem: 129 170<1376.43 1525.12>
LayerCount: 2
Fore
SplineSet
151.5 1375.5 m 128,-1,1
 129 1405 129 1405 129 1451.5 c 128,-1,2
 129 1498 129 1498 152 1526 c 128,-1,3
 175 1554 175 1554 213 1554 c 128,-1,4
 251 1554 251 1554 275 1526 c 128,-1,5
 299 1498 299 1498 299 1451 c 128,-1,6
 299 1404 299 1404 276 1375 c 128,-1,7
 253 1346 253 1346 213.5 1346 c 128,-1,0
 174 1346 174 1346 151.5 1375.5 c 128,-1,1
EndSplineSet
Colour: ffffff
EndChar

StartChar: dotbelowcomb
Encoding: 803 803 86
Width: 226
VWidth: 0
Flags: W
HStem: -380 207<44.7225 167.246>
VStem: 21 171<-349.574 -201.364>
LayerCount: 2
Fore
SplineSet
43.5 -350.5 m 128,-1,1
 21 -321 21 -321 21 -274.5 c 128,-1,2
 21 -228 21 -228 44 -200.5 c 128,-1,3
 67 -173 67 -173 105.5 -173 c 128,-1,4
 144 -173 144 -173 168 -200.5 c 128,-1,5
 192 -228 192 -228 192 -275 c 128,-1,6
 192 -322 192 -322 168.5 -351 c 128,-1,7
 145 -380 145 -380 105.5 -380 c 128,-1,0
 66 -380 66 -380 43.5 -350.5 c 128,-1,1
EndSplineSet
Colour: ffffff
EndChar

StartChar: dotlessi
Encoding: 305 305 87
Width: 555
VWidth: 0
Flags: W
HStem: 0 55<92 159.648 462.32 523> 814 51<99 142.883> 867 20G<122.545 374>
VStem: 243 131<87 772>
LayerCount: 2
Fore
SplineSet
80 0 m 1,0,-1
 92 55 l 1,1,-1
 243 87 l 1,2,-1
 243 772 l 1,3,-1
 91 814 l 1,4,-1
 99 865 l 1,5,-1
 358 887 l 1,6,-1
 374 871 l 1,7,-1
 374 87 l 1,8,-1
 534 57 l 1,9,-1
 523 0 l 1,10,-1
 80 0 l 1,0,-1
EndSplineSet
Colour: ffffff
EndChar

StartChar: e
Encoding: 101 101 88
Width: 812
VWidth: 0
Flags: W
HStem: -30 108<369.23 651.013> 445 62<237 455.78> 809 77<335.258 537.825>
VStem: 94 141<241.418 445 507 643.291> 595 141<529.831 754.193>
LayerCount: 2
Fore
SplineSet
237 507 m 1,0,-1
 588 530 l 1,1,2
 595 550 595 550 595 625.5 c 128,-1,3
 595 701 595 701 552.5 755 c 128,-1,4
 510 809 510 809 432 809 c 128,-1,5
 354 809 354 809 297.5 730.5 c 128,-1,6
 241 652 241 652 237 507 c 1,0,-1
762 104 m 1,7,8
 647.452 -30 647.452 -30 453 -30 c 0,9,10
 305.778 -30 305.778 -30 199.889 84.36 c 128,-1,11
 94 198.72 94 198.72 94 420 c 0,12,13
 94 528 94 528 128 618.5 c 128,-1,14
 162 709 162 709 218 766 c 0,15,16
 335.895 886 335.895 886 486 886 c 0,17,18
 601 886 601 886 668.5 810 c 128,-1,19
 736 734 736 734 736 582 c 0,20,21
 736 517 736 517 719 451 c 1,22,-1
 235 445 l 1,23,24
 239.094 295.569 239.094 295.569 308.509 186.785 c 128,-1,25
 377.924 78 377.924 78 508.883 78 c 128,-1,26
 639.842 78 639.842 78 743 148 c 1,27,-1
 762 104 l 1,7,8
EndSplineSet
Colour: ffffff
EndChar

StartChar: eacute
Encoding: 233 233 89
Width: 812
VWidth: 0
Flags: W
HStem: -30 108<369.23 651.013> 445 62<237 455.78> 809 77<335.258 537.825>
VStem: 94 141<241.418 445 507 643.291> 595 141<529.831 754.193>
LayerCount: 2
Fore
SplineSet
237 507 m 1,0,-1
 588 530 l 1,1,2
 595 550 595 550 595 625.5 c 128,-1,3
 595 701 595 701 552.5 755 c 128,-1,4
 510 809 510 809 432 809 c 128,-1,5
 354 809 354 809 297.5 730.5 c 128,-1,6
 241 652 241 652 237 507 c 1,0,-1
762 104 m 1,7,8
 647.452 -30 647.452 -30 453 -30 c 0,9,10
 305.778 -30 305.778 -30 199.889 84.36 c 128,-1,11
 94 198.72 94 198.72 94 420 c 0,12,13
 94 528 94 528 128 618.5 c 128,-1,14
 162 709 162 709 218 766 c 0,15,16
 335.895 886 335.895 886 486 886 c 0,17,18
 601 886 601 886 668.5 810 c 128,-1,19
 736 734 736 734 736 582 c 0,20,21
 736 517 736 517 719 451 c 1,22,-1
 235 445 l 1,23,24
 239.094 295.569 239.094 295.569 308.509 186.785 c 128,-1,25
 377.924 78 377.924 78 508.883 78 c 128,-1,26
 639.842 78 639.842 78 743 148 c 1,27,-1
 762 104 l 1,7,8
421 1020 m 1,28,-1
 549 1350 l 1,29,-1
 652 1311 l 1,30,-1
 470 990 l 1,31,-1
 421 1020 l 1,28,-1
EndSplineSet
Colour: ffffff
EndChar

StartChar: egrave
Encoding: 232 232 90
Width: 812
VWidth: 0
Flags: W
HStem: -30 108<369.23 651.013> 445 62<237 455.78> 809 77<335.258 537.825>
VStem: 94 141<241.418 445 507 643.291> 595 141<529.831 754.193>
LayerCount: 2
Fore
SplineSet
237 507 m 1,0,-1
 588 530 l 1,1,2
 595 550 595 550 595 625.5 c 128,-1,3
 595 701 595 701 552.5 755 c 128,-1,4
 510 809 510 809 432 809 c 128,-1,5
 354 809 354 809 297.5 730.5 c 128,-1,6
 241 652 241 652 237 507 c 1,0,-1
762 104 m 1,7,8
 647.452 -30 647.452 -30 453 -30 c 0,9,10
 305.778 -30 305.778 -30 199.889 84.36 c 128,-1,11
 94 198.72 94 198.72 94 420 c 0,12,13
 94 528 94 528 128 618.5 c 128,-1,14
 162 709 162 709 218 766 c 0,15,16
 335.895 886 335.895 886 486 886 c 0,17,18
 601 886 601 886 668.5 810 c 128,-1,19
 736 734 736 734 736 582 c 0,20,21
 736 517 736 517 719 451 c 1,22,-1
 235 445 l 1,23,24
 239.094 295.569 239.094 295.569 308.509 186.785 c 128,-1,25
 377.924 78 377.924 78 508.883 78 c 128,-1,26
 639.842 78 639.842 78 743 148 c 1,27,-1
 762 104 l 1,7,8
284 1319 m 1,28,-1
 388 1356 l 1,29,-1
 521 1021 l 1,30,-1
 470 990 l 1,31,-1
 284 1319 l 1,28,-1
EndSplineSet
Colour: ffffff
EndChar

StartChar: eight
Encoding: 56 56 91
Width: 938
VWidth: 0
Flags: W
HStem: -27 74<388.542 638.383> 1141 61<370.453 569.847>
VStem: 127 140<154.904 425.326> 173 120<831.141 1052.74> 674 124<767.325 1046.62> 710 130<132.933 353.064>
LayerCount: 2
Fore
SplineSet
342.5 1088 m 128,-1,1
 293 1035 293 1035 293 957.5 c 128,-1,2
 293 880 293 880 351.5 812 c 128,-1,3
 410 744 410 744 547 656 c 1,4,5
 674 740 674 740 674 890 c 0,6,7
 674 995 674 995 615 1068 c 128,-1,8
 556 1141 556 1141 474 1141 c 128,-1,0
 392 1141 392 1141 342.5 1088 c 128,-1,1
304 451.5 m 128,-1,10
 267 397 267 397 267 294.5 c 128,-1,11
 267 192 267 192 343 119.5 c 128,-1,12
 419 47 419 47 510 47 c 128,-1,13
 601 47 601 47 655.5 96.5 c 128,-1,14
 710 146 710 146 710 229.5 c 128,-1,15
 710 313 710 313 638 386 c 128,-1,16
 566 459 566 459 410 557 c 1,17,9
 341 506 341 506 304 451.5 c 128,-1,10
127 281 m 0,18,19
 127 454 127 454 357 590 c 1,20,-1
 357 597 l 1,21,22
 173 722 173 722 173 897 c 0,23,24
 173 1023 173 1023 266.5 1112.5 c 128,-1,25
 360 1202 360 1202 500 1202 c 128,-1,26
 640 1202 640 1202 719 1123.5 c 128,-1,27
 798 1045 798 1045 798 937.5 c 128,-1,28
 798 830 798 830 742.5 749 c 128,-1,29
 687 668 687 668 604 625 c 1,30,-1
 601 619 l 1,31,32
 727 534 727 534 783.5 461.5 c 128,-1,33
 840 389 840 389 840 291 c 0,34,35
 840 152 840 152 732.5 62.5 c 128,-1,36
 625 -27 625 -27 470 -27 c 128,-1,37
 315 -27 315 -27 221 59.5 c 128,-1,38
 127 146 127 146 127 281 c 0,18,19
EndSplineSet
Substitution2: "'sups' Superscript lookup 0 subtable" eight.superior
Colour: ffffff
EndChar

StartChar: eight.osf
Encoding: 65536 -1 92
Width: 815
VWidth: 0
Flags: W
HStem: -27 76<312.438 556.303> 1141 61<298.525 489.128>
VStem: 67 128<160.804 427.098> 113 112<828.479 1061.01> 589 113<767.625 1050.79> 633 123<140.122 368.791>
LayerCount: 2
Fore
SplineSet
274.5 1092 m 128,-1,1
 225 1043 225 1043 225 963.5 c 128,-1,2
 225 884 225 884 281.5 812 c 128,-1,3
 338 740 338 740 471 655 c 1,4,5
 589 758 589 758 589 899 c 0,6,7
 589 994 589 994 532.5 1067.5 c 128,-1,8
 476 1141 476 1141 400 1141 c 128,-1,0
 324 1141 324 1141 274.5 1092 c 128,-1,1
236.5 461 m 128,-1,10
 195 394 195 394 195 299 c 128,-1,11
 195 204 195 204 266.5 126.5 c 128,-1,12
 338 49 338 49 429 49 c 128,-1,13
 520 49 520 49 576.5 102.5 c 128,-1,14
 633 156 633 156 633 242 c 128,-1,15
 633 328 633 328 566 397 c 128,-1,16
 499 466 499 466 337 568 c 1,17,9
 278 528 278 528 236.5 461 c 128,-1,10
289 604 m 1,18,19
 113 718.4 113 718.4 113 918 c 0,20,21
 113 1026 113 1026 200.5 1114 c 128,-1,22
 288 1202 288 1202 422 1202 c 128,-1,23
 556 1202 556 1202 629 1127 c 128,-1,24
 702 1052 702 1052 702 935 c 0,25,26
 702 754 702 754 526 628 c 1,27,-1
 525 622 l 1,28,29
 756 475.897 756 475.897 756 295 c 0,30,31
 756 158 756 158 645 65.5 c 128,-1,32
 534 -27 534 -27 386 -27 c 128,-1,33
 238 -27 238 -27 152.5 58.5 c 128,-1,34
 67 144 67 144 67 281 c 0,35,36
 67 453 67 453 289 597 c 1,37,-1
 289 604 l 1,18,19
EndSplineSet
Colour: ffffff
EndChar

StartChar: emdash
Encoding: 8212 8212 93
Width: 1301
VWidth: 0
Flags: W
HStem: 420 83<100 1206>
LayerCount: 2
Fore
SplineSet
86 420 m 1,0,-1
 100 503 l 1,1,-1
 1220 509 l 1,2,-1
 1206 426 l 1,3,-1
 86 420 l 1,0,-1
EndSplineSet
Colour: ffffff
EndChar

StartChar: emptyset
Encoding: 8709 8709 94
Width: 1012
VWidth: 0
Flags: W
HStem: -37 89<342.431 682.153> -4 21G<74.6 106.788> 836 94<336.023 673.649>
VStem: 48 115<239.015 640.007> 845 116<228.066 653.341>
DStem2: 212 230 248 177 0.744242 0.66791<0 725.026>
LayerCount: 2
Fore
SplineSet
121 171 m 1,0,1
 48 290 48 290 48 429 c 128,-1,2
 48 568 48 568 113.5 681 c 128,-1,3
 179 794 179 794 285.5 862 c 128,-1,4
 392 930 392 930 507 930 c 0,5,6
 700 930 700 930 825 803 c 1,7,-1
 912 898 l 1,8,-1
 979 799 l 1,9,-1
 885 727 l 1,10,11
 961 603 961 603 961 458.5 c 128,-1,12
 961 314 961 314 906 205 c 128,-1,13
 851 96 851 96 746 29.5 c 128,-1,14
 641 -37 641 -37 507 -37 c 0,15,16
 310 -37 310 -37 181 95 c 1,17,-1
 88 -4 l 1,18,-1
 21 96 l 1,19,-1
 121 171 l 1,0,1
248 177 m 1,20,21
 348.41 52 348.41 52 504.705 52 c 128,-1,22
 661 52 661 52 753 151.5 c 128,-1,23
 845 251 845 251 845 444 c 0,24,25
 845 573 845 573 794 667 c 1,26,-1
 248 177 l 1,20,21
758 719 m 1,27,28
 662 836 662 836 509 836 c 128,-1,29
 356 836 356 836 259.5 729 c 128,-1,30
 163 622 163 622 163 443 c 0,31,32
 163 320 163 320 212 230 c 1,33,-1
 758 719 l 1,27,28
EndSplineSet
Colour: ffffff
EndChar

StartChar: endash
Encoding: 8211 8211 95
Width: 792
VWidth: 0
Flags: W
HStem: 420 83<99 697>
VStem: 86 624
LayerCount: 2
Fore
SplineSet
86 420 m 1,0,-1
 99 503 l 1,1,-1
 710 509 l 1,2,-1
 697 426 l 1,3,-1
 86 420 l 1,0,-1
EndSplineSet
Colour: ffffff
EndChar

StartChar: eng
Encoding: 331 331 96
Width: 982
VWidth: 0
Flags: W
HStem: -383 21G<593.941 638.593> 0 52<87 151.512 454.44 506> 781 109<510.164 722.375> 794 52<92 141.976>
VStem: 240 130<86 710.148> 779 130<-94.9111 722.842>
LayerCount: 2
Fore
SplineSet
79 0 m 1,0,-1
 87 52 l 1,1,-1
 240 86 l 1,2,-1
 240 755 l 1,3,-1
 85 794 l 1,4,-1
 92 846 l 1,5,-1
 357 876 l 1,6,-1
 369 862 l 1,7,-1
 359 730 l 1,8,-1
 367 730 l 1,9,10
 417 792 417 792 502 841 c 128,-1,11
 587 890 587 890 686 890 c 128,-1,12
 785 890 785 890 847 817 c 128,-1,13
 909 744 909 744 909 600 c 2,14,-1
 909 150 l 1,15,16
 906 -195 906 -195 650 -356 c 1,17,-1
 606 -383 l 1,18,-1
 565 -315 l 1,19,20
 720.565 -197.462 720.565 -197.462 761.5 -11.5 c 0,21,22
 779 68 779 68 779 165 c 2,23,-1
 778 568 l 2,24,25
 778 677 778 677 730.5 729 c 128,-1,26
 683 781 683 781 610.5 781 c 128,-1,27
 538 781 538 781 484 755.5 c 128,-1,28
 430 730 430 730 370 670 c 1,29,-1
 370 86 l 1,30,-1
 516 58 l 1,31,-1
 506 0 l 1,32,-1
 79 0 l 1,0,-1
EndSplineSet
Colour: ffffff
EndChar

StartChar: equal
Encoding: 61 61 97
Width: 800
VWidth: 0
Flags: W
HStem: 330 85<98 702> 569 86<101 705>
VStem: 90 626
LayerCount: 2
Fore
SplineSet
90 569 m 1,0,-1
 101 655 l 1,1,-1
 716 655 l 1,2,-1
 705 569 l 1,3,-1
 90 569 l 1,0,-1
87 330 m 1,4,-1
 98 415 l 1,5,-1
 713 415 l 1,6,-1
 702 330 l 1,7,-1
 87 330 l 1,4,-1
EndSplineSet
Colour: ffffff
EndChar

StartChar: eth
Encoding: 240 240 98
Width: 931
VWidth: 0
Flags: W
HStem: -27 77<392.541 616.617> 875 74<353.003 555.105> 1177 20G<672.455 764.188>
VStem: 107 139.5<227.443 705.533> 721 137<211.322 671.426>
DStem2: 320 1103 309 1040 0.979216 0.202822<0 190.821 329.863 434.981>
LayerCount: 2
Fore
SplineSet
320 168.5 m 128,-1,1
 393 50 393 50 506 50 c 0,2,3
 581 50 581 50 630 100 c 0,4,5
 721 192.857 721 192.857 721 406.929 c 128,-1,6
 721 621 721 621 639 747 c 128,-1,7
 557 873 557 873 456 875 c 1,8,-1
 451 875 l 1,9,10
 380 874 380 874 332.5 821 c 0,11,12
 246 724.484 246 724.484 246.5 505.742 c 128,-1,0
 247 287 247 287 320 168.5 c 128,-1,1
107 451 m 0,13,14
 107 672 107 672 208 810.5 c 128,-1,15
 309 949 309 949 469 949 c 0,16,17
 530 949 530 949 587.5 912.5 c 128,-1,18
 645 876 645 876 667 820 c 1,19,-1
 674 821 l 1,20,21
 643 936 643 936 541 1086 c 1,22,-1
 309 1040 l 1,23,-1
 320 1103 l 1,24,-1
 507 1141 l 1,25,26
 438 1233 438 1233 361 1303 c 1,27,-1
 453 1303 l 1,28,29
 530 1255 530 1255 611 1164 c 1,30,-1
 767 1197 l 1,31,-1
 758 1133 l 1,32,-1
 655 1112 l 1,33,34
 858 843 858 843 858 465 c 0,35,36
 858 239 858 239 753 106 c 128,-1,37
 648 -27 648 -27 483 -27 c 0,38,39
 265.82 -27 265.82 -27 165 178 c 0,40,41
 107 295.933 107 295.933 107 451 c 0,13,14
EndSplineSet
Colour: ffffff
EndChar

StartChar: exclam
Encoding: 33 33 99
Width: 447
VWidth: 0
Flags: W
HStem: -35 219<172.816 301.153>
VStem: 146 183<-0.965454 152.543> 162 159<769.4 1285.54>
LayerCount: 2
Fore
SplineSet
162 1254 m 0,0,1
 162 1272 162 1272 195.5 1282.5 c 128,-1,2
 229 1293 229 1293 262 1293 c 0,3,4
 321 1293 321 1293 321 1254 c 0,5,6
 321 983 321 983 269 361 c 1,7,-1
 202 376 l 1,8,9
 162 1018 162 1018 162 1254 c 0,0,1
170.5 -2 m 128,-1,11
 146 31 146 31 146 77.5 c 128,-1,12
 146 124 146 124 172 154 c 128,-1,13
 198 184 198 184 236.5 184 c 128,-1,14
 275 184 275 184 302 153.5 c 128,-1,15
 329 123 329 123 329 76 c 128,-1,16
 329 29 329 29 304 -3 c 128,-1,17
 279 -35 279 -35 237 -35 c 128,-1,10
 195 -35 195 -35 170.5 -2 c 128,-1,11
EndSplineSet
Colour: ffffff
EndChar

StartChar: exclamdown
Encoding: 161 161 100
Width: 434
VWidth: 0
Flags: W
HStem: 692 218<154.331 282.669>
VStem: 127 183<722.942 875.965> 135 160<-408.671 111.359> 186 67<126.761 515>
LayerCount: 2
Fore
SplineSet
153.5 722 m 128,-1,1
 127 752 127 752 127 799 c 128,-1,2
 127 846 127 846 152 878 c 128,-1,3
 177 910 177 910 218.5 910 c 128,-1,4
 260 910 260 910 285 877 c 128,-1,5
 310 844 310 844 310 797.5 c 128,-1,6
 310 751 310 751 283.5 721.5 c 128,-1,7
 257 692 257 692 218.5 692 c 128,-1,0
 180 692 180 692 153.5 722 c 128,-1,1
135 -377 m 0,8,9
 135 -86 135 -86 186 524 c 1,10,-1
 189 529 l 1,11,-1
 253 515 l 1,12,-1
 253 512 l 1,13,14
 295 -158 295 -158 295 -375 c 2,15,-1
 295 -377 l 1,16,17
 289 -396 289 -396 257.5 -406.5 c 128,-1,18
 226 -417 226 -417 194 -417 c 0,19,20
 135 -417 135 -417 135 -377 c 0,8,9
EndSplineSet
Colour: ffffff
EndChar

StartChar: f
Encoding: 102 102 101
Width: 651
VWidth: 0
Flags: W
HStem: 0 51<82 142.53 525.834 607> 791 70<368 613> 791 54<97 186.926> 1220 85<444.159 619.049>
VStem: 234 134<91 791 867 1061.95>
LayerCount: 2
Fore
SplineSet
70 0 m 1,0,-1
 82 51 l 1,1,-1
 234 87 l 1,2,-1
 234 791 l 1,3,-1
 85 791 l 1,4,-1
 97 845 l 1,5,-1
 235 867 l 1,6,7
 254.949 1084.44 254.949 1084.44 360.945 1194.72 c 128,-1,8
 466.942 1305 466.942 1305 582 1305 c 0,9,10
 662 1305 662 1305 711 1274 c 128,-1,11
 760 1243 760 1243 760 1202 c 0,12,13
 760 1127.11 760 1127.11 691 1099 c 1,14,15
 606 1220 606 1220 514 1220 c 0,16,17
 452 1220 452 1220 411 1160 c 128,-1,18
 370 1100 370 1100 369 981 c 2,19,-1
 368 861 l 1,20,-1
 626 861 l 1,21,-1
 613 791 l 1,22,-1
 368 791 l 1,23,-1
 368 91 l 1,24,-1
 614 61 l 1,25,-1
 607 0 l 1,26,-1
 70 0 l 1,0,-1
EndSplineSet
Colour: ffffff
EndChar

StartChar: f.alt2
Encoding: 65537 -1 102
Width: 627
VWidth: 0
Flags: W
HStem: 0 51<82 142.53 525.834 607> 791 70<368 613> 791 54<97 186.926> 1214 90<400.855 555.241>
VStem: 234 134<91 791 867 1091.13>
LayerCount: 2
Fore
SplineSet
70 0 m 1,0,-1
 82 51 l 1,1,-1
 234 87 l 1,2,-1
 234 791 l 1,3,-1
 85 791 l 1,4,-1
 97 845 l 1,5,-1
 235 867 l 1,6,7
 251.721 1176.33 251.721 1176.33 424 1278.5 c 0,8,9
 467 1304 467 1304 507 1304 c 0,10,11
 640 1304 640 1304 640 1220 c 0,12,13
 640 1163 640 1163 583 1136 c 1,14,15
 529 1214 529 1214 458 1214 c 0,16,17
 372 1214 372 1214 369 981 c 1,18,-1
 368 861 l 1,19,-1
 626 861 l 1,20,-1
 613 791 l 1,21,-1
 368 791 l 1,22,-1
 368 91 l 1,23,-1
 614 61 l 1,24,-1
 607 0 l 1,25,-1
 70 0 l 1,0,-1
EndSplineSet
Colour: ffffff
EndChar

StartChar: five
Encoding: 53 53 103
Width: 959
VWidth: 0
Flags: W
HStem: -16 74<255.419 526.448> 1049 149<490.598 708>
VStem: 103 67<225.128 355> 629 147<195.927 461.535>
DStem2: 165 639 279 771 0.211285 0.977424<153.107 417.511>
LayerCount: 2
Fore
SplineSet
75 88 m 1,0,-1
 103 369 l 1,1,-1
 170 355 l 1,2,-1
 188 155 l 1,3,4
 267 58 267 58 385 58 c 128,-1,5
 503 58 503 58 566 126.5 c 128,-1,6
 629 195 629 195 629 308 c 0,7,8
 629 456 629 456 505.5 540.5 c 128,-1,9
 382 625 382 625 165 639 c 1,10,-1
 280 1171 l 1,11,-1
 729 1198 l 1,12,-1
 708 1049 l 1,13,-1
 323 1032 l 1,14,-1
 279 771 l 1,15,16
 649.752 748.008 649.752 748.008 747.5 516.5 c 0,17,18
 776 449 776 449 776 368 c 0,19,20
 776 211 776 211 654.5 97.5 c 128,-1,21
 533 -16 533 -16 358 -16 c 128,-1,22
 183 -16 183 -16 75 88 c 1,0,-1
EndSplineSet
Substitution2: "'sups' Superscript lookup 0 subtable" five.superior
Colour: ffffff
EndChar

StartChar: five.osf
Encoding: 65538 -1 104
Width: 850
VWidth: 0
Flags: W
HStem: -297 76<154.323 403.091> -46 20G<25.5 60.5>
VStem: -54 100<-113.727 -50.6562> 525 151<-53.2031 234.906>
DStem2: 98 413 208 537 0.183125 0.98309<142.047 404.358> 193 923 250 796 0.996374 0.0850836<45.9877 413.784>
LayerCount: 2
Fore
SplineSet
-54 -147 m 0,0,1
 -54 -102 -54 -102 -24.5 -66.5 c 128,-1,2
 5 -31 5 -31 46 -26 c 1,3,4
 75 -107 75 -107 131.5 -164 c 128,-1,5
 188 -221 188 -221 281.5 -221 c 128,-1,6
 375 -221 375 -221 450 -146.5 c 128,-1,7
 525 -72 525 -72 525 74 c 128,-1,8
 525 220 525 220 414.5 307 c 128,-1,9
 304 394 304 394 98 413 c 1,10,-1
 193 923 l 1,11,-1
 638 961 l 1,12,-1
 617 821 l 1,13,-1
 250 796 l 1,14,-1
 208 537 l 1,15,16
 427 509 427 509 551.5 405 c 128,-1,17
 676 301 676 301 676 133 c 0,18,19
 676 21 676 21 618.5 -77 c 128,-1,20
 561 -175 561 -175 456 -236 c 128,-1,21
 351 -297 351 -297 227.5 -297 c 128,-1,22
 104 -297 104 -297 25 -254.5 c 128,-1,23
 -54 -212 -54 -212 -54 -147 c 0,0,1
EndSplineSet
Colour: ffffff
EndChar

StartChar: four
Encoding: 52 52 105
Width: 972
VWidth: 0
Flags: W
HStem: 0 64<305 363.451 840.551 890> 361 101<186 548 695 934> 1171 20G<639.098 704>
VStem: 552 143<95 357 462 948>
DStem2: 38 415 186 462 0.622355 0.782735<128.897 734.599>
LayerCount: 2
Fore
SplineSet
186 462 m 1,0,-1
 548 462 l 1,1,-1
 548 948 l 1,2,-1
 186 462 l 1,0,-1
38 415 m 1,3,-1
 655 1191 l 1,4,-1
 704 1176 l 1,5,6
 695 998 695 998 695 683 c 2,7,-1
 695 462 l 1,8,-1
 950 462 l 1,9,-1
 934 357 l 1,10,-1
 695 357 l 1,11,-1
 695 89 l 1,12,-1
 901 64 l 1,13,-1
 890 0 l 1,14,-1
 298 0 l 1,15,-1
 305 57 l 1,16,-1
 552 95 l 1,17,-1
 552 361 l 1,18,-1
 57 361 l 1,19,-1
 38 415 l 1,3,-1
EndSplineSet
Substitution2: "'sups' Superscript lookup 0 subtable" four.superior
Colour: ffffff
EndChar

StartChar: four.osf
Encoding: 65539 -1 106
Width: 944
VWidth: 0
Flags: W
HStem: 108 97<195 556 698 936>
VStem: 558 140<-269 105 205 714>
DStem2: 49 159 195 205 0.596703 0.802462<124.032 747.895>
LayerCount: 2
Fore
SplineSet
195 205 m 1,0,-1
 556 205 l 1,1,-1
 556 714 l 1,2,-1
 195 205 l 1,0,-1
49 159 m 1,3,-1
 658 978 l 1,4,-1
 707 963 l 1,5,6
 697 765 697 765 697 454 c 2,7,-1
 697 205 l 1,8,-1
 952 205 l 1,9,-1
 936 105 l 1,10,-1
 698 105 l 1,11,-1
 698 -269 l 1,12,-1
 558 -300 l 1,13,-1
 558 108 l 1,14,-1
 67 108 l 1,15,-1
 49 159 l 1,3,-1
EndSplineSet
Colour: ffffff
EndChar

StartChar: fraction
Encoding: 8260 8260 107
Width: 1738
VWidth: 0
Flags: W
HStem: 1191 20G<883.604 1025>
LayerCount: 2
Fore
SplineSet
164 -26 m 1,0,-1
 540 588 l 1,1,-1
 895 1211 l 1,2,-1
 1025 1207 l 1,3,-1
 1025 1192 l 1,4,-1
 657 591 l 1,5,-1
 310 -40 l 1,6,-1
 164 -26 l 1,0,-1
EndSplineSet
Colour: ffffff
EndChar

StartChar: g
Encoding: 103 103 108
Width: 865
VWidth: 0
Flags: W
HStem: -387 88<259.052 606.297> 17 115<259.625 667.603> 291 68<343.639 529.772> 825 60<323.333 500.913>
VStem: 50 136<-231.879 -57.2696> 124 125<151.677 241.115 449.909 730.508> 593 130<442.736 739.512> 713 128<-192.75 -10.8572>
LayerCount: 2
Fore
SplineSet
293.5 764 m 128,-1,1
 252 703 252 703 252 603 c 128,-1,2
 252 503 252 503 306.5 431 c 128,-1,3
 361 359 361 359 433 359 c 128,-1,4
 505 359 505 359 549 411.5 c 128,-1,5
 593 464 593 464 593 566 c 128,-1,6
 593 668 593 668 544.5 746.5 c 128,-1,7
 496 825 496 825 415.5 825 c 128,-1,0
 335 825 335 825 293.5 764 c 128,-1,1
186 -116 m 0,8,9
 186 -299 186 -299 462 -299 c 0,10,11
 567 -299 567 -299 640 -250 c 128,-1,12
 713 -201 713 -201 713 -119 c 128,-1,13
 713 -37 713 -37 669 -10 c 128,-1,14
 625 17 625 17 492 17 c 2,15,-1
 280 17 l 1,16,17
 251.181 9.79518 251.181 9.79518 218.59 -25.4024 c 128,-1,18
 186 -60.6 186 -60.6 186 -116 c 0,8,9
220 35 m 1,19,20
 124 79.6512 124 79.6512 124 162 c 0,21,22
 124 197 124 197 170.5 243.5 c 128,-1,23
 217 290 217 290 276 322 c 1,24,-1
 276 327 l 1,25,26
 227 345 227 345 176 416 c 128,-1,27
 125 487 125 487 125 578 c 0,28,29
 125 702 125 702 220 793.5 c 128,-1,30
 315 885 315 885 430.5 885 c 128,-1,31
 546 885 546 885 635 822 c 1,32,-1
 854 838 l 1,33,-1
 870 820 l 1,34,-1
 835 725 l 1,35,-1
 823 723 l 1,36,-1
 682 764 l 1,37,-1
 679 753 l 1,38,39
 693 728 693 728 708 678.5 c 128,-1,40
 723 629 723 629 723 588 c 0,41,42
 723 506 723 506 674.5 436 c 128,-1,43
 626 366 626 366 554 328.5 c 128,-1,44
 482 291 482 291 421 291 c 128,-1,45
 360 291 360 291 315 306 c 1,46,-1
 282.5 274.5 l 2,47,48
 249 241 249 241 249 210 c 0,49,50
 249 132 249 132 419 132 c 2,51,-1
 573 132 l 2,52,53
 701.316 132 701.316 132 753.658 106.5 c 128,-1,54
 806 81 806 81 824 42 c 128,-1,55
 842 3 842 3 841 -70 c 128,-1,56
 840 -143 840 -143 777.5 -219 c 128,-1,57
 715 -295 715 -295 612.5 -341 c 128,-1,58
 510 -387 510 -387 376 -387 c 128,-1,59
 242 -387 242 -387 146 -329.5 c 128,-1,60
 50 -272 50 -272 50 -165 c 0,61,62
 50 -92.6129 50 -92.6129 106.706 -46.882 c 128,-1,63
 163.413 -1.15101 163.413 -1.15101 220 28 c 1,64,-1
 220 35 l 1,19,20
EndSplineSet
Colour: ffffff
EndChar

StartChar: gdotaccent
Encoding: 289 289 109
Width: 865
VWidth: 0
Flags: W
HStem: -387 88<259.052 606.297> 17 115<259.625 667.603> 291 68<343.639 529.772> 825 60<323.333 500.913> 988 208<370.722 492.247>
VStem: 50 136<-231.879 -57.2696> 124 125<151.677 241.115 449.909 730.508> 347 170<1018.43 1167.12> 593 130<442.736 739.512> 713 128<-192.75 -10.8572>
LayerCount: 2
Fore
SplineSet
293.5 764 m 128,-1,1
 252 703 252 703 252 603 c 128,-1,2
 252 503 252 503 306.5 431 c 128,-1,3
 361 359 361 359 433 359 c 128,-1,4
 505 359 505 359 549 411.5 c 128,-1,5
 593 464 593 464 593 566 c 128,-1,6
 593 668 593 668 544.5 746.5 c 128,-1,7
 496 825 496 825 415.5 825 c 128,-1,0
 335 825 335 825 293.5 764 c 128,-1,1
186 -116 m 0,8,9
 186 -299 186 -299 462 -299 c 0,10,11
 567 -299 567 -299 640 -250 c 128,-1,12
 713 -201 713 -201 713 -119 c 128,-1,13
 713 -37 713 -37 669 -10 c 128,-1,14
 625 17 625 17 492 17 c 2,15,-1
 280 17 l 1,16,17
 251.181 9.79518 251.181 9.79518 218.59 -25.4024 c 128,-1,18
 186 -60.6 186 -60.6 186 -116 c 0,8,9
220 35 m 1,19,20
 124 79.6512 124 79.6512 124 162 c 0,21,22
 124 197 124 197 170.5 243.5 c 128,-1,23
 217 290 217 290 276 322 c 1,24,-1
 276 327 l 1,25,26
 227 345 227 345 176 416 c 128,-1,27
 125 487 125 487 125 578 c 0,28,29
 125 702 125 702 220 793.5 c 128,-1,30
 315 885 315 885 430.5 885 c 128,-1,31
 546 885 546 885 635 822 c 1,32,-1
 854 838 l 1,33,-1
 870 820 l 1,34,-1
 835 725 l 1,35,-1
 823 723 l 1,36,-1
 682 764 l 1,37,-1
 679 753 l 1,38,39
 693 728 693 728 708 678.5 c 128,-1,40
 723 629 723 629 723 588 c 0,41,42
 723 506 723 506 674.5 436 c 128,-1,43
 626 366 626 366 554 328.5 c 128,-1,44
 482 291 482 291 421 291 c 128,-1,45
 360 291 360 291 315 306 c 1,46,-1
 282.5 274.5 l 2,47,48
 249 241 249 241 249 210 c 0,49,50
 249 132 249 132 419 132 c 2,51,-1
 573 132 l 2,52,53
 701.316 132 701.316 132 753.658 106.5 c 128,-1,54
 806 81 806 81 824 42 c 128,-1,55
 842 3 842 3 841 -70 c 128,-1,56
 840 -143 840 -143 777.5 -219 c 128,-1,57
 715 -295 715 -295 612.5 -341 c 128,-1,58
 510 -387 510 -387 376 -387 c 128,-1,59
 242 -387 242 -387 146 -329.5 c 128,-1,60
 50 -272 50 -272 50 -165 c 0,61,62
 50 -92.6129 50 -92.6129 106.706 -46.882 c 128,-1,63
 163.413 -1.15101 163.413 -1.15101 220 28 c 1,64,-1
 220 35 l 1,19,20
369.5 1017.5 m 128,-1,66
 347 1047 347 1047 347 1093.5 c 128,-1,67
 347 1140 347 1140 370 1168 c 128,-1,68
 393 1196 393 1196 431 1196 c 128,-1,69
 469 1196 469 1196 493 1168 c 128,-1,70
 517 1140 517 1140 517 1093 c 128,-1,71
 517 1046 517 1046 494 1017 c 128,-1,72
 471 988 471 988 431.5 988 c 128,-1,65
 392 988 392 988 369.5 1017.5 c 128,-1,66
EndSplineSet
Colour: ffffff
EndChar

StartChar: germandbls
Encoding: 223 223 110
Width: 1130
VWidth: 0
Flags: W
HStem: -33 74<708.279 926.566> 0 52<82 142.132> 804 49<97 179.432> 1219 85<437.088 661.99>
VStem: 233 135<88 804 877 1071.27> 507 106<139.191 235.12> 550 103<585.304 763.231> 744 126<918.267 1141.22> 966 117<80.4334 245.415>
DStem2: 618.5 796 793.5 877 0.650791 0.759257<-63.2437 236.747> 805 504.5 858 292.5 0.863779 -0.503871<-191.849 298.007>
LayerCount: 2
Fore
SplineSet
70 0 m 1,0,-1
 82 52 l 1,1,-1
 233 88 l 1,2,-1
 233 804 l 1,3,-1
 86 804 l 1,4,-1
 97 853 l 1,5,-1
 235 877 l 1,6,7
 250.064 1128.79 250.064 1128.79 410.5 1244.5 c 0,8,9
 493 1304 493 1304 604.5 1304 c 128,-1,10
 716 1304 716 1304 793 1234.5 c 128,-1,11
 870 1165 870 1165 870 1063.5 c 128,-1,12
 870 962 870 962 793.5 877 c 0,13,14
 762 842 762 842 730 810 c 0,15,16
 653 733 653 733 653 681.5 c 0,17,18
 653 590.151 653 590.151 805 504.5 c 1,19,-1
 931 431 l 1,20,21
 994 393 994 393 1038.5 337.5 c 128,-1,22
 1083 282 1083 282 1083 214 c 0,23,24
 1083 106 1083 106 994.5 36.5 c 128,-1,25
 906 -33 906 -33 786 -33 c 128,-1,26
 666 -33 666 -33 586.5 21.5 c 128,-1,27
 507 76 507 76 507 158 c 0,28,29
 507 208 507 208 537.5 236 c 128,-1,30
 568 264 568 264 613 269 c 1,31,32
 654 41 654 41 817 41 c 0,33,34
 883 41 883 41 924.5 73.5 c 128,-1,35
 966 106 966 106 966 151.5 c 0,36,37
 966 230.283 966 230.283 858 292.5 c 1,38,-1
 758 353 l 1,39,40
 704 387 704 387 658 421.5 c 128,-1,41
 612 456 612 456 581 508 c 128,-1,42
 550 560 550 560 550 615.5 c 0,43,44
 550 714.281 550 714.281 618.5 796 c 1,45,-1
 675.5 862.5 l 1,46,47
 744 940.614 744 940.614 744 1019.81 c 128,-1,48
 744 1099 744 1099 684 1159 c 128,-1,49
 624 1219 624 1219 540.5 1219 c 128,-1,50
 457 1219 457 1219 412.5 1148.5 c 128,-1,51
 368 1078 368 1078 368 945 c 2,52,-1
 368 0 l 1,53,-1
 70 0 l 1,0,-1
EndSplineSet
Colour: ffffff
EndChar

StartChar: grave
Encoding: 96 96 111
Width: 579
VWidth: 0
Flags: W
HStem: 1332 366
VStem: 150 237
LayerCount: 2
Fore
SplineSet
150 1661 m 1,0,-1
 254 1698 l 1,1,-1
 387 1363 l 1,2,-1
 336 1332 l 1,3,-1
 150 1661 l 1,0,-1
EndSplineSet
Colour: ffffff
EndChar

StartChar: greater
Encoding: 62 62 112
Width: 697
VWidth: 0
Flags: W
VStem: 67 676
LayerCount: 2
Fore
SplineSet
67 -25 m 1,0,-1
 558 437 l 1,1,-1
 87 914 l 1,2,-1
 122 974 l 1,3,-1
 743 456 l 1,4,-1
 744 427 l 1,5,-1
 109 -82 l 1,6,-1
 67 -25 l 1,0,-1
EndSplineSet
Colour: ffffff
EndChar

StartChar: guilsinglleft
Encoding: 8249 8249 113
Width: 432
VWidth: 0
Flags: W
VStem: 51 304
LayerCount: 2
Fore
SplineSet
51 469 m 1,0,-1
 319 821 l 1,1,-1
 355 774 l 1,2,-1
 179 461 l 1,3,-1
 356 128 l 1,4,-1
 314 77 l 1,5,-1
 53 449 l 1,6,-1
 51 469 l 1,0,-1
EndSplineSet
Colour: ffffff
EndChar

StartChar: h
Encoding: 104 104 114
Width: 1046
VWidth: 0
Flags: W
HStem: 0 58<66 120.888 445.32 487 615 665.573 973.582 1017> 783 108<489.541 699.189> 1196 54<72 116.589> 1251 20G<84.5714 352>
VStem: 220 132<87 711.244 733 1154> 755 129<86 724.087>
LayerCount: 2
Fore
SplineSet
347 733 m 1,0,1
 491.457 891 491.457 891 666.5 891 c 0,2,3
 763 891 763 891 823.5 821 c 128,-1,4
 884 751 884 751 884 588 c 2,5,-1
 884 86 l 1,6,-1
 1026 58 l 1,7,-1
 1017 0 l 1,8,-1
 606 0 l 1,9,-1
 615 54 l 1,10,-1
 752 86 l 1,11,-1
 755 561 l 1,12,-1
 755 568 l 2,13,14
 755 681 755 681 706 732 c 128,-1,15
 657 783 657 783 581 783 c 0,16,17
 455.424 783 455.424 783 352 670 c 1,18,-1
 352 87 l 1,19,-1
 497 58 l 1,20,-1
 487 0 l 1,21,-1
 55 0 l 1,22,-1
 66 57 l 1,23,-1
 220 87 l 1,24,-1
 220 1154 l 1,25,-1
 63 1196 l 1,26,-1
 72 1250 l 1,27,-1
 336 1271 l 1,28,-1
 352 1254 l 1,29,-1
 352 839 l 1,30,-1
 339 733 l 1,31,-1
 347 733 l 1,0,1
EndSplineSet
Colour: ffffff
EndChar

StartChar: hbar
Encoding: 295 295 115
Width: 1046
VWidth: 0
Flags: W
HStem: 0 58<54 108.888 433.32 475 603 653.573 961.582 1005> 783 108<477.541 687.189> 978 65<39 208 340 659> 1196 54<60 104.589> 1251 20G<72.5714 340>
VStem: 208 132<87 711.244 733 978 1043 1154> 743 129<86 724.087>
LayerCount: 2
Fore
SplineSet
335 733 m 1,0,1
 479.457 891 479.457 891 654.5 891 c 0,2,3
 751 891 751 891 811.5 821 c 128,-1,4
 872 751 872 751 872 588 c 2,5,-1
 872 86 l 1,6,-1
 1014 58 l 1,7,-1
 1005 0 l 1,8,-1
 594 0 l 1,9,-1
 603 54 l 1,10,-1
 740 86 l 1,11,-1
 743 561 l 1,12,-1
 743 568 l 2,13,14
 743 681 743 681 694 732 c 128,-1,15
 645 783 645 783 569 783 c 0,16,17
 443.424 783 443.424 783 340 670 c 1,18,-1
 340 87 l 1,19,-1
 485 58 l 1,20,-1
 475 0 l 1,21,-1
 43 0 l 1,22,-1
 54 57 l 1,23,-1
 208 87 l 1,24,-1
 208 978 l 1,25,-1
 30 978 l 1,26,-1
 39 1043 l 1,27,-1
 208 1043 l 1,28,-1
 208 1154 l 1,29,-1
 51 1196 l 1,30,-1
 60 1250 l 1,31,-1
 324 1271 l 1,32,-1
 340 1254 l 1,33,-1
 340 1043 l 1,34,-1
 667 1043 l 1,35,-1
 659 978 l 1,36,-1
 340 978 l 1,37,-1
 340 839 l 1,38,-1
 327 733 l 1,39,-1
 335 733 l 1,0,1
EndSplineSet
Colour: ffffff
EndChar

StartChar: hungarumlaut
Encoding: 733 733 116
Width: 744
VWidth: 0
Flags: W
HStem: 1359 250
VStem: 113 526
LayerCount: 2
Fore
SplineSet
323 1401 m 1,0,-1
 574 1601 l 1,1,-1
 639 1527 l 1,2,-1
 348 1359 l 1,3,-1
 323 1401 l 1,0,-1
113 1401 m 1,4,-1
 370 1609 l 1,5,-1
 437 1531 l 1,6,-1
 137 1359 l 1,7,-1
 113 1401 l 1,4,-1
EndSplineSet
Colour: ffffff
EndChar

StartChar: hyphen
Encoding: 45 45 117
Width: 573
VWidth: 0
Flags: W
HStem: 409 80<92 416.949> 426 81<175.051 489>
VStem: 81 419
LayerCount: 2
Fore
SplineSet
81 409 m 1,0,-1
 92 489 l 1,1,-1
 500 507 l 1,2,-1
 489 426 l 1,3,-1
 81 409 l 1,0,-1
EndSplineSet
Colour: ffffff
EndChar

StartChar: i
Encoding: 105 105 118
Width: 555
VWidth: 0
Flags: W
HStem: 0 55<92 159.648 462.32 523> 814 51<99 142.883> 867 20G<122.545 374> 1093 208<236.722 358.247>
VStem: 213 170<1123.43 1272.12> 243 131<87 772>
LayerCount: 2
Back
SplineSet
4.58008 -395.961 m 5,0,1
 49.3211 -362.489 49.3211 -362.489 84.7541 -327.597 c 0
 120.187 -292.705 120.187 -292.705 156.487 -240 c 0
 192.786 -187.295 192.786 -187.295 216.836 -126.787 c 0
 240.886 -66.2788 240.886 -66.2788 256.077 18.0973 c 0
 271.268 102.473 271.268 102.473 271.268 201.034 c 2,2,-1
 271.268 954.783 l 1,3,-1
 81.9395 1006.19 l 1,4,-1
 93.1367 1073.37 l 1,5,-1
 416.826 1099.32 l 1,6,-1
 437.693 1077.95 l 1,7,-1
 437.693 189.328 l 2,8,9
 437.693 -241.77 437.693 -241.77 111.968 -446.854 c 1,10,-1
 56.4932 -481.463 l 1,11,-1
 4.58008 -395.961 l 5,0,1
228.008 1495.79 m 4,12,13
 228.008 1556.85 228.008 1556.85 260.661 1594.01 c 0
 293.314 1631.17 293.314 1631.17 345.574 1631.17 c 0,14,15
 396.891 1631.17 396.891 1631.17 430.27 1593.46 c 0
 463.65 1555.74 463.65 1555.74 463.65 1495.28 c 0,16,17
 463.65 1432.01 463.65 1432.01 430.955 1392.39 c 0
 398.26 1352.78 398.26 1352.78 345.065 1352.78 c 0,18,19
 292.287 1352.78 292.287 1352.78 260.148 1392.95 c 0
 228.008 1433.13 228.008 1433.13 228.008 1495.79 c 4,12,13
EndSplineSet
Fore
SplineSet
80 0 m 1,0,-1
 92 55 l 1,1,-1
 243 87 l 1,2,-1
 243 772 l 1,3,-1
 91 814 l 1,4,-1
 99 865 l 1,5,-1
 358 887 l 1,6,-1
 374 871 l 1,7,-1
 374 87 l 1,8,-1
 534 57 l 1,9,-1
 523 0 l 1,10,-1
 80 0 l 1,0,-1
235.5 1122.5 m 128,-1,12
 213 1152 213 1152 213 1198.5 c 128,-1,13
 213 1245 213 1245 236 1273 c 128,-1,14
 259 1301 259 1301 297 1301 c 128,-1,15
 335 1301 335 1301 359 1273 c 128,-1,16
 383 1245 383 1245 383 1198 c 128,-1,17
 383 1151 383 1151 360 1122 c 128,-1,18
 337 1093 337 1093 297.5 1093 c 128,-1,11
 258 1093 258 1093 235.5 1122.5 c 128,-1,12
EndSplineSet
Colour: ffffff
EndChar

StartChar: igrave
Encoding: 236 236 119
Width: 555
VWidth: 0
Flags: W
HStem: 0 55<92 159.648 462.32 523> 814 51<99 142.883> 867 20G<122.545 374>
VStem: 243 131<87 772>
LayerCount: 2
Fore
SplineSet
80 0 m 1,0,-1
 92 55 l 1,1,-1
 243 87 l 1,2,-1
 243 772 l 1,3,-1
 91 814 l 1,4,-1
 99 865 l 1,5,-1
 358 887 l 1,6,-1
 374 871 l 1,7,-1
 374 87 l 1,8,-1
 534 57 l 1,9,-1
 523 0 l 1,10,-1
 80 0 l 1,0,-1
122 1319 m 1,11,-1
 226 1356 l 1,12,-1
 359 1021 l 1,13,-1
 308 990 l 1,14,-1
 122 1319 l 1,11,-1
EndSplineSet
Colour: ffffff
EndChar

StartChar: infinity
Encoding: 8734 8734 120
Width: 1376
VWidth: 0
Flags: W
HStem: 216 115<243.238 536.29 922.646 1142.56> 738 120<217.881 466.696 864.058 1127.65>
VStem: 64 75<436.324 675.462> 1235 63<415.114 619.593>
LayerCount: 2
Fore
SplineSet
730 600 m 1,0,1
 820 458 820 458 895.5 394.5 c 128,-1,2
 971 331 971 331 1052 331 c 128,-1,3
 1133 331 1133 331 1184 388 c 128,-1,4
 1235 445 1235 445 1235 525 c 128,-1,5
 1235 605 1235 605 1157.5 671.5 c 128,-1,6
 1080 738 1080 738 984 738 c 0,7,8
 848.286 738 848.286 738 730 600 c 1,0,1
191 693 m 128,-1,10
 139 643 139 643 139 550.5 c 128,-1,11
 139 458 139 458 212.5 397.5 c 128,-1,12
 286 337 286 337 380.5 337 c 128,-1,13
 475 337 475 337 546 373.5 c 128,-1,14
 617 410 617 410 653 464 c 1,15,16
 550 620 550 620 481.5 681.5 c 128,-1,17
 413 743 413 743 328 743 c 128,-1,9
 243 743 243 743 191 693 c 128,-1,10
147 290.5 m 128,-1,19
 64 369 64 369 64 511.5 c 128,-1,20
 64 654 64 654 154.5 758 c 128,-1,21
 245 862 245 862 379 862 c 0,22,23
 475 862 475 862 550 815 c 128,-1,24
 625 768 625 768 695 655 c 1,25,-1
 701 657 l 1,26,27
 846 858 846 858 1021 858 c 0,28,29
 1141 858 1141 858 1219.5 773.5 c 128,-1,30
 1298 689 1298 689 1298 549 c 128,-1,31
 1298 409 1298 409 1206 312.5 c 128,-1,32
 1114 216 1114 216 985 216 c 0,33,34
 818 216 818 216 688 415 c 1,35,-1
 682 415 l 1,36,37
 557 212 557 212 366 212 c 0,38,18
 230 212 230 212 147 290.5 c 128,-1,19
EndSplineSet
Colour: ffffff
EndChar

StartChar: integral
Encoding: 8747 8747 121
Width: 918
VWidth: 0
Flags: W
HStem: -384 86<148.776 334.641> 1220 85<605.877 785.99>
VStem: 402 135<-157.098 1071.21>
LayerCount: 2
Fore
SplineSet
59.5 -352.5 m 128,-1,1
 10 -321 10 -321 10 -279.5 c 0,2,3
 10 -204.107 10 -204.107 79 -177 c 1,4,5
 163 -298 163 -298 257 -298 c 0,6,7
 318 -298 318 -298 357 -238.5 c 128,-1,8
 396 -179 396 -179 402 -58 c 1,9,-1
 405 834 l 2,10,11
 405 1107.16 405 1107.16 568 1236.5 c 0,12,13
 654.329 1305 654.329 1305 742.164 1305 c 128,-1,14
 830 1305 830 1305 879.5 1274 c 128,-1,15
 929 1243 929 1243 929 1202 c 0,16,17
 929 1127.52 929 1127.52 859 1099 c 1,18,19
 774 1220 774 1220 681 1220 c 0,20,21
 619 1220 619 1220 578.5 1159 c 128,-1,22
 538 1098 538 1098 536 981 c 1,23,-1
 537 82 l 2,24,25
 537 -36 537 -36 503.5 -129 c 128,-1,26
 470 -222 470 -222 417 -275.5 c 0,27,28
 309.514 -384 309.514 -384 189 -384 c 0,29,0
 109 -384 109 -384 59.5 -352.5 c 128,-1,1
EndSplineSet
Colour: ffffff
EndChar

StartChar: j
Encoding: 106 106 122
Width: 460
VWidth: 0
Flags: W
HStem: -383 21G<32.9412 77.5926> 801 54<74 117.798> 855 20G<74 349> 1077 222<208.816 341.668>
VStem: 182 187<1110 1268.06> 216 133<-97.6631 760>
LayerCount: 2
Fore
SplineSet
207.5 1109 m 128,-1,1
 182 1141 182 1141 182 1190.5 c 128,-1,2
 182 1240 182 1240 208 1269.5 c 128,-1,3
 234 1299 234 1299 275 1299 c 128,-1,4
 316 1299 316 1299 342.5 1269 c 128,-1,5
 369 1239 369 1239 369 1189.5 c 128,-1,6
 369 1140 369 1140 343 1108.5 c 128,-1,7
 317 1077 317 1077 275 1077 c 128,-1,0
 233 1077 233 1077 207.5 1109 c 128,-1,1
4 -315 m 1,8,9
 159.6 -197.436 159.6 -197.436 199 -15.5 c 0,10,11
 216 63 216 63 216 160 c 2,12,-1
 216 760 l 1,13,-1
 65 801 l 1,14,-1
 74 855 l 1,15,-1
 332 875 l 1,16,-1
 349 858 l 1,17,-1
 349 151 l 2,18,19
 349 -191 349 -191 89 -356 c 1,20,-1
 45 -383 l 1,21,-1
 4 -315 l 1,8,9
EndSplineSet
Colour: ffffff
EndChar

StartChar: k
Encoding: 107 107 123
Width: 977
VWidth: 0
Flags: W
HStem: -20 21G<840.75 888.25> 0 57<69 132.325 446.208 503 942 972> 818 55<542 582.298 869.433 925> 1192 52<73 121.547> 1246 20G<96.9091 352>
VStem: 223 129<87 1151>
DStem2: 382 447 510 473 0.650417 0.759578<103.002 439.718> 510 473 382 429 0.641956 -0.766742<0 560.574>
LayerCount: 2
Fore
SplineSet
382 429 m 1,0,-1
 382 447 l 1,1,-1
 668 781 l 1,2,-1
 534 818 l 1,3,-1
 542 873 l 1,4,-1
 935 873 l 1,5,-1
 925 819 l 1,6,-1
 775 782 l 1,7,-1
 510 473 l 1,8,-1
 741.5 196.5 l 1,9,10
 803.79 124.109 803.79 124.109 845.075 97.6442 c 128,-1,11
 886.36 71.1793 886.36 71.1793 942 64 c 2,12,-1
 981 59 l 1,13,-1
 972 0 l 1,14,15
 912 -20 912 -20 864.5 -20 c 128,-1,16
 817 -20 817 -20 783 -8.5 c 128,-1,17
 749 3 749 3 694.136 51.2542 c 128,-1,18
 639.271 99.5085 639.271 99.5085 516 258 c 2,19,-1
 382 429 l 1,0,-1
59 0 m 1,20,-1
 69 55 l 1,21,-1
 223 87 l 1,22,-1
 223 1151 l 1,23,-1
 67 1192 l 1,24,-1
 73 1244 l 1,25,-1
 336 1266 l 1,26,-1
 352 1249 l 1,27,-1
 352 87 l 1,28,-1
 512 57 l 1,29,-1
 503 0 l 1,30,-1
 59 0 l 1,20,-1
EndSplineSet
Colour: ffffff
EndChar

StartChar: l
Encoding: 108 108 124
Width: 540
VWidth: 0
Flags: W
HStem: 0 55<69 137.992 440.872 501> 1197 52<73 121.547> 1250 20G<85.4762 352>
VStem: 223 129<87 1156>
LayerCount: 2
Fore
SplineSet
59 0 m 1,0,-1
 69 55 l 1,1,-1
 223 87 l 1,2,-1
 223 1156 l 1,3,-1
 67 1197 l 1,4,-1
 73 1249 l 1,5,-1
 335 1270 l 1,6,-1
 352 1254 l 1,7,-1
 352 87 l 1,8,-1
 513 57 l 1,9,-1
 501 0 l 1,10,-1
 59 0 l 1,0,-1
EndSplineSet
Colour: ffffff
EndChar

StartChar: logicalnot
Encoding: 172 172 125
Width: 931
VWidth: 0
Flags: W
HStem: 584 80<90 747>
VStem: 747 89<351 584>
LayerCount: 2
Fore
SplineSet
78 584 m 1,0,-1
 90 664 l 1,1,-1
 835 664 l 1,2,-1
 836 351 l 1,3,-1
 747 332 l 1,4,-1
 747 584 l 1,5,-1
 78 584 l 1,0,-1
EndSplineSet
Colour: ffffff
EndChar

StartChar: lozenge
Encoding: 9674 9674 126
Width: 941
VWidth: 0
Flags: W
HStem: 180 579
VStem: 230 485
LayerCount: 2
Fore
SplineSet
230 474 m 1,0,-1
 472 759 l 1,1,-1
 715 472 l 1,2,-1
 474 180 l 1,3,-1
 230 474 l 1,0,-1
EndSplineSet
Colour: ffffff
EndChar

StartChar: lslash
Encoding: 322 322 127
Width: 548
VWidth: 0
Flags: W
HStem: 0 55<60 128.544 431.32 492> 853 20G<458.364 480.762> 1197 52<64 112.197> 1250 20G<76.4762 343>
VStem: 213 130<87 569 662 671 763 1156>
DStem2: 68 549 52 443 0.788944 0.614466<0 126.686 348.455 449.356>
LayerCount: 2
Fore
SplineSet
52 443 m 1,0,-1
 68 549 l 1,1,-1
 213 662 l 1,2,-1
 213 1156 l 1,3,-1
 58 1197 l 1,4,-1
 64 1249 l 1,5,-1
 326 1270 l 1,6,-1
 343 1254 l 1,7,-1
 343 763 l 1,8,-1
 484 873 l 1,9,-1
 467 768 l 1,10,-1
 343 671 l 1,11,-1
 343 87 l 1,12,-1
 503 57 l 1,13,-1
 492 0 l 1,14,-1
 50 0 l 1,15,-1
 60 55 l 1,16,-1
 213 87 l 1,17,-1
 213 569 l 1,18,-1
 52 443 l 1,0,-1
EndSplineSet
Colour: ffffff
EndChar

StartChar: m
Encoding: 109 109 128
Width: 1592
VWidth: 0
Flags: W
HStem: 0 54<90 158.096 451.936 506 646 705.584 981.728 1036 1175 1233.24 1517.31 1566> 780 105<504.542 721.601 1038.01 1249.94> 793 52<91 141.269>
VStem: 242 131<86 710.81> 779 126<86 700.781> 1305 132<87 722.563>
LayerCount: 2
Fore
SplineSet
81 0 m 1,0,-1
 90 54 l 1,1,-1
 242 86 l 1,2,-1
 242 753 l 1,3,-1
 85 793 l 1,4,-1
 91 845 l 1,5,-1
 360 875 l 1,6,-1
 372 861 l 1,7,-1
 361 728 l 1,8,-1
 369 728 l 1,9,10
 423 794 423 794 505.5 841.5 c 128,-1,11
 588 889 588 889 671.5 889 c 128,-1,12
 755 889 755 889 813 846.5 c 128,-1,13
 871 804 871 804 889 723 c 1,14,-1
 900 723 l 1,15,16
 952 790 952 790 1032.5 837.5 c 128,-1,17
 1113 885 1113 885 1201 885 c 0,18,19
 1327 885 1327 885 1382 810 c 128,-1,20
 1437 735 1437 735 1437 597 c 2,21,-1
 1437 87 l 1,22,-1
 1579 60 l 1,23,-1
 1566 2 l 1,24,-1
 1169 2 l 1,25,-1
 1175 54 l 1,26,-1
 1305 86 l 1,27,-1
 1305 573 l 2,28,29
 1305 672 1305 672 1259.5 726 c 128,-1,30
 1214 780 1214 780 1129 780 c 0,31,32
 1018 780 1018 780 905 660 c 1,33,-1
 905 86 l 1,34,-1
 1044 58 l 1,35,-1
 1036 0 l 1,36,-1
 638 0 l 1,37,-1
 646 54 l 1,38,-1
 779 86 l 1,39,-1
 779 573 l 2,40,41
 779 667 779 667 732.5 724 c 128,-1,42
 686 781 686 781 612.5 781 c 0,43,44
 465.885 781 465.885 781 373 666 c 1,45,-1
 373 86 l 1,46,-1
 516 58 l 1,47,-1
 506 0 l 1,48,-1
 81 0 l 1,0,-1
EndSplineSet
Colour: ffffff
EndChar

StartChar: macron
Encoding: 175 175 129
Width: 667
VWidth: 0
Flags: W
HStem: 1380 76<119 550>
VStem: 108 452
LayerCount: 2
Fore
SplineSet
108 1380 m 1,0,-1
 119 1456 l 1,1,-1
 560 1456 l 1,2,-1
 550 1380 l 1,3,-1
 108 1380 l 1,0,-1
EndSplineSet
Colour: ffffff
EndChar

StartChar: minus
Encoding: 8722 8722 130
Width: 804
VWidth: 0
Flags: W
HStem: 421 84<107 701>
VStem: 90 628
LayerCount: 2
Fore
SplineSet
90 421 m 1,0,-1
 107 505 l 1,1,-1
 718 508 l 1,2,-1
 701 424 l 1,3,-1
 90 421 l 1,0,-1
EndSplineSet
Colour: ffffff
EndChar

StartChar: mu
Encoding: 956 956 131
Width: 1017
VWidth: 0
Flags: W
HStem: -24 106<386.033 587.188> -2 59<938 984> 803 54<66 107.493 557 602.479> 858 20G<77.8571 332 601.333 837>
VStem: 183 111<-362 -99.3685> 203 129<150.5 761> 709 128<148.041 759>
LayerCount: 2
Fore
SplineSet
183 -362 m 1,0,1
 203 18 203 18 203 494 c 2,2,-1
 203 761 l 1,3,-1
 58 803 l 1,4,-1
 66 857 l 1,5,-1
 315 878 l 1,6,-1
 332 860 l 1,7,-1
 332 316 l 2,8,9
 332 82 332 82 502 82 c 0,10,11
 603 82 603 82 709 186 c 1,12,-1
 709 759 l 1,13,-1
 551 795 l 1,14,-1
 557 854 l 1,15,-1
 823 878 l 1,16,-1
 837 860 l 1,17,-1
 837 222 l 2,18,19
 837 146 837 146 859 112.5 c 128,-1,20
 881 79 881 79 938 68 c 1,21,-1
 990 57 l 1,22,-1
 984 -2 l 1,23,24
 919 -21 919 -21 855.5 -21 c 128,-1,25
 792 -21 792 -21 756.5 18.5 c 128,-1,26
 721 58 721 58 721 119 c 2,27,-1
 721 131 l 1,28,-1
 709 131 l 1,29,30
 587.067 -24 587.067 -24 431 -24 c 0,31,32
 321 -24 321 -24 277 49 c 1,33,-1
 271 49 l 1,34,35
 272.463 37.2927 272.463 37.2927 274.732 -11.8536 c 128,-1,36
 277 -61 277 -61 279 -86 c 2,37,-1
 294 -388 l 1,38,-1
 183 -362 l 1,0,1
EndSplineSet
Colour: ffffff
EndChar

StartChar: multiply
Encoding: 215 215 132
Width: 779
VWidth: 0
Flags: W
HStem: 236 445
VStem: 65 455
DStem2: 65 302 122 232 0.720521 0.693433<0 233.438 314.965 544.882> 137 681 66 625 0.707107 -0.707107<0 224.153 309.713 539.522>
LayerCount: 2
Fore
SplineSet
65 302 m 1,0,-1
 235 462 l 1,1,-1
 66 625 l 1,2,-1
 137 681 l 1,3,-1
 295 514 l 1,4,-1
 464 686 l 1,5,-1
 520 615 l 1,6,-1
 352 458 l 1,7,-1
 525 292 l 1,8,-1
 455 236 l 1,9,-1
 291 407 l 1,10,-1
 122 232 l 1,11,-1
 65 302 l 1,0,-1
EndSplineSet
Colour: ffffff
EndChar

StartChar: n
Encoding: 110 110 133
Width: 1071
VWidth: 0
Flags: W
HStem: 0 52<87 151.512 454.44 506 638 697.031 990.548 1043> 781 109<510.164 722.375> 794 52<92 141.976>
VStem: 240 130<86 710.148> 778 131<86 722.842>
LayerCount: 2
Fore
SplineSet
79 0 m 1,0,-1
 87 52 l 1,1,-1
 240 86 l 1,2,-1
 240 755 l 1,3,-1
 85 794 l 1,4,-1
 92 846 l 1,5,-1
 357 876 l 1,6,-1
 369 862 l 1,7,-1
 359 730 l 1,8,-1
 367 730 l 1,9,10
 417 792 417 792 502 841 c 128,-1,11
 587 890 587 890 686 890 c 128,-1,12
 785 890 785 890 847 817 c 128,-1,13
 909 744 909 744 909 600 c 2,14,-1
 909 86 l 1,15,-1
 1050 58 l 1,16,-1
 1043 0 l 1,17,-1
 630 0 l 1,18,-1
 638 52 l 1,19,-1
 778 86 l 1,20,-1
 778 568 l 2,21,22
 778 676 778 676 730.5 728.5 c 128,-1,23
 683 781 683 781 610.5 781 c 128,-1,24
 538 781 538 781 484 755.5 c 128,-1,25
 430 730 430 730 370 670 c 1,26,-1
 370 86 l 1,27,-1
 516 58 l 1,28,-1
 506 0 l 1,29,-1
 79 0 l 1,0,-1
EndSplineSet
Colour: ffffff
EndChar

StartChar: nine
Encoding: 57 57 134
Width: 937
VWidth: 0
Flags: W
HStem: -27 58<231.304 296.246> 472 93<357.79 586.793> 1144 65<356.9 565.632>
VStem: 106 158<668.597 1005.17> 688 162<569.738 999.976>
LayerCount: 2
Fore
SplineSet
473 1144 m 0,0,1
 264 1144 264 1144 264 862.5 c 0,2,3
 264 729 264 729 322 647 c 128,-1,4
 380 565 380 565 488 565 c 0,5,6
 551 565 551 565 603.5 590.5 c 128,-1,7
 656 616 656 616 679 651 c 1,8,9
 688 702 688 702 688 793 c 0,10,11
 688 945 688 945 626 1044.5 c 128,-1,12
 564 1144 564 1144 473 1144 c 0,0,1
186 568.5 m 128,-1,14
 106 665 106 665 106 824.5 c 128,-1,15
 106 984 106 984 219 1096.5 c 128,-1,16
 332 1209 332 1209 488 1209 c 0,17,18
 705.276 1209 705.276 1209 797 1019 c 0,19,20
 850 909.214 850 909.214 850 742.107 c 128,-1,21
 850 575 850 575 776 409 c 128,-1,22
 702 243 702 243 560 125 c 128,-1,23
 418 7 418 7 236 -27 c 1,24,-1
 217 31 l 1,25,26
 482.548 109.267 482.548 109.267 595 316.5 c 0,27,28
 655.033 427.132 655.033 427.132 676 576 c 1,29,-1
 666 576 l 1,30,31
 557 472 557 472 411.5 472 c 128,-1,13
 266 472 266 472 186 568.5 c 128,-1,14
EndSplineSet
Substitution2: "'sups' Superscript lookup 0 subtable" nine.superior
Colour: ffffff
EndChar

StartChar: nine.osf
Encoding: 65540 -1 135
Width: 796
VWidth: 0
Flags: W
HStem: 223 92<283.336 506.236> 893 66<286.649 478.657>
VStem: 52 151<402.15 763.072> 595 154<380.94 762.877>
LayerCount: 2
Fore
SplineSet
203 602 m 0,0,1
 203 465 203 465 255 390 c 128,-1,2
 307 315 307 315 409 315 c 0,3,4
 470 315 470 315 516.5 339 c 128,-1,5
 563 363 563 363 587 398 c 1,6,7
 595 445 595 445 595 569.5 c 128,-1,8
 595 694 595 694 537 793.5 c 128,-1,9
 479 893 479 893 389 893 c 0,10,11
 203 893 203 893 203 602 c 0,0,1
125.5 320.5 m 128,-1,13
 52 418 52 418 52 576.5 c 128,-1,14
 52 735 52 735 155.5 847 c 128,-1,15
 259 959 259 959 408 959 c 0,16,17
 667.791 959 667.791 959 731.5 680.5 c 0,18,19
 749 604 749 604 749 511 c 0,20,21
 749 346 749 346 671 185.5 c 128,-1,22
 593 25 593 25 457.5 -95.5 c 128,-1,23
 322 -216 322 -216 157 -271 c 1,24,-1
 135 -213 l 1,25,26
 489.322 -52.7114 489.322 -52.7114 583 322 c 1,27,-1
 574 322 l 1,28,29
 478 223 478 223 338.5 223 c 128,-1,12
 199 223 199 223 125.5 320.5 c 128,-1,13
EndSplineSet
Colour: ffffff
EndChar

StartChar: notequal
Encoding: 8800 8800 136
Width: 800
VWidth: 0
Flags: W
HStem: 327 85<29 234 384 730> 567 85<32 412 561 732> 852 20G<612 696.455>
DStem2: 50 54 148 58 0.567686 0.823245<58.9262 329.2 484.329 627.827 782.388 989.984>
LayerCount: 2
Fore
SplineSet
20 567 m 1,0,-1
 32 652 l 1,1,-1
 463 652 l 1,2,-1
 612 869 l 1,3,-1
 710 872 l 1,4,-1
 561 652 l 1,5,-1
 743 652 l 1,6,-1
 732 567 l 1,7,-1
 498 567 l 1,8,-1
 384 412 l 1,9,-1
 741 412 l 1,10,-1
 730 327 l 1,11,-1
 332 327 l 1,12,-1
 148 58 l 1,13,-1
 50 54 l 1,14,-1
 234 327 l 1,15,-1
 17 327 l 1,16,-1
 29 412 l 1,17,-1
 301 412 l 1,18,-1
 412 567 l 1,19,-1
 20 567 l 1,0,-1
EndSplineSet
Colour: ffffff
EndChar

StartChar: numbersign
Encoding: 35 35 137
Width: 914
VWidth: 0
Flags: W
HStem: -26 21G<185.011 275 502.011 593> 326 101<-3 235 342 552 660 879> 712 101<69 293 400 610 717 954>
DStem2: 182 -26 275 -19 0.148464 0.988918<20.7295 355.968 471.734 746.301 862.067 1189.25> 499 -26 593 -19 0.147766 0.989022<20.8131 355.967 471.817 746.3 862.003 1189.24>
LayerCount: 2
Back
SplineSet
261.599 313.002 m 1,0,-1
 229.535 350.154 l 1,1,-1
 414.791 909.487 l 1,2,-1
 482.48 1069.3 l 1,3,-1
 382.219 1069.3 l 1,4,-1
 390.871 1112.56 l 1,5,-1
 488.08 1112.56 l 1,6,-1
 508.946 1233.18 l 1,7,-1
 546.608 1239.79 l 1,8,-1
 526.25 1112.56 l 1,9,-1
 682.497 1112.56 l 1,10,-1
 701.837 1233.18 l 1,11,-1
 738.48 1238.27 l 1,12,-1
 718.633 1112.56 l 1,13,-1
 825.511 1112.56 l 1,14,-1
 815.841 1069.3 l 1,15,-1
 714.561 1069.3 l 1,16,-1
 690.131 915.594 l 1,17,-1
 789.376 915.594 l 1,18,-1
 781.232 873.861 l 1,19,-1
 683.006 873.861 l 1,20,-1
 666.211 747.642 l 1,21,-1
 625.495 743.062 l 1,22,-1
 646.361 873.861 l 1,23,-1
 491.642 873.861 l 1,24,-1
 472.302 747.642 l 1,25,-1
 431.078 743.062 l 1,26,-1
 451.945 873.861 l 1,27,-1
 261.599 313.002 l 1,0,-1
285.52 713.543 m 1,28,-1
 450.926 756.803 l 1,29,-1
 981.757 910.505 l 1,30,-1
 816.858 867.244 l 1,31,-1
 285.52 713.543 l 1,28,-1
EndSplineSet
Fore
SplineSet
593 -19 m 1,0,-1
 499 -26 l 1,1,-1
 552 326 l 1,2,-1
 327 326 l 1,3,-1
 275 -19 l 1,4,-1
 182 -26 l 1,5,-1
 235 326 l 1,6,-1
 -30 326 l 1,7,-1
 -3 427 l 1,8,-1
 250 427 l 1,9,-1
 293 712 l 1,10,-1
 41 712 l 1,11,-1
 69 813 l 1,12,-1
 308 813 l 1,13,-1
 359 1150 l 1,14,-1
 452 1160 l 1,15,-1
 400 813 l 1,16,-1
 625 813 l 1,17,-1
 676 1150 l 1,18,-1
 769 1159 l 1,19,-1
 717 813 l 1,20,-1
 979 813 l 1,21,-1
 954 712 l 1,22,-1
 702 712 l 1,23,-1
 660 427 l 1,24,-1
 905 427 l 1,25,-1
 879 326 l 1,26,-1
 645 326 l 1,27,-1
 593 -19 l 1,0,-1
567 427 m 1,28,-1
 610 712 l 1,29,-1
 385 712 l 1,30,-1
 342 427 l 1,31,-1
 567 427 l 1,28,-1
EndSplineSet
Colour: ffffff
EndChar

StartChar: o
Encoding: 111 111 138
Width: 944
VWidth: 0
Flags: W
HStem: -27 81<393.255 636.89> 806 85<344.639 595.9>
VStem: 94 141<237.745 643.854> 747 141<214.858 615.975>
LayerCount: 2
Fore
SplineSet
297.5 713.5 m 128,-1,1
 235 621 235 621 235 495 c 128,-1,2
 235 369 235 369 266 273.5 c 128,-1,3
 297 178 297 178 363.5 116 c 128,-1,4
 430 54 430 54 527.5 54 c 128,-1,5
 625 54 625 54 686 148.5 c 128,-1,6
 747 243 747 243 747 392.112 c 128,-1,7
 747 541.224 747 541.224 678.5 668 c 0,8,9
 645 730 645 730 590.5 768 c 128,-1,10
 536 806 536 806 469 806 c 0,11,0
 360 806 360 806 297.5 713.5 c 128,-1,1
201.5 94 m 128,-1,13
 94 215 94 215 94 422.5 c 128,-1,14
 94 630 94 630 215.5 760.5 c 128,-1,15
 337 891 337 891 512 891 c 0,16,17
 625 891 625 891 711.5 831 c 128,-1,18
 798 771 798 771 843 669 c 128,-1,19
 888 567 888 567 888 439 c 0,20,21
 888 234 888 234 771.5 103.5 c 128,-1,22
 655 -27 655 -27 482 -27 c 128,-1,12
 309 -27 309 -27 201.5 94 c 128,-1,13
EndSplineSet
Colour: ffffff
EndChar

StartChar: oe
Encoding: 339 339 139
Width: 1416
VWidth: 0
Flags: W
HStem: -30 103<973.917 1255.54> -27 84<362.439 590.936> 442 63<841 1069.72> 807 83<312.938 554.565 941.985 1149.05>
VStem: 70 143<242.209 647.47> 698 142<232.793 442 505 631.25> 1200 140<526.324 757.33>
LayerCount: 2
Fore
SplineSet
841 505 m 1,0,-1
 1192 527 l 1,1,2
 1200 556 1200 556 1200 633.5 c 128,-1,3
 1200 711 1200 711 1157 758 c 128,-1,4
 1114 805 1114 805 1039.5 805 c 128,-1,5
 965 805 965 805 905 726 c 128,-1,6
 845 647 845 647 841 505 c 1,0,-1
270 718 m 128,-1,8
 213 629 213 629 213 502.5 c 128,-1,9
 213 376 213 376 243.5 279 c 128,-1,10
 274 182 274 182 337.5 119.5 c 128,-1,11
 401 57 401 57 489.5 57 c 128,-1,12
 578 57 578 57 638 154.5 c 128,-1,13
 698 252 698 252 698 371.5 c 128,-1,14
 698 491 698 491 670.5 584.5 c 128,-1,15
 643 678 643 678 581.5 742.5 c 128,-1,16
 520 807 520 807 423.5 807 c 128,-1,7
 327 807 327 807 270 718 c 128,-1,8
1368 104 m 1,17,18
 1253.45 -29.9999 1253.45 -29.9999 1057 -30 c 0,19,20
 957 -30 957 -30 881.5 21.5 c 128,-1,21
 806 73 806 73 760 161 c 1,22,23
 647 -27 647 -27 443 -27 c 0,24,25
 274 -27 274 -27 172 96.5 c 128,-1,26
 70 220 70 220 70 417 c 0,27,28
 70 527 70 527 103 618.5 c 128,-1,29
 136 710 136 710 191.5 768 c 0,30,31
 308.241 890 308.241 890 466 890 c 0,32,33
 566 890 566 890 653.5 839.5 c 128,-1,34
 741 789 741 789 778 701 c 1,35,36
 825 780 825 780 907.5 833 c 128,-1,37
 990 886 990 886 1098 886 c 128,-1,38
 1206 886 1206 886 1273 814 c 128,-1,39
 1340 742 1340 742 1340 590 c 0,40,41
 1340 513 1340 513 1323 447 c 1,42,-1
 840 442 l 1,43,44
 840 287 840 287 914 180 c 128,-1,45
 988 73 988 73 1112 73 c 128,-1,46
 1236 73 1236 73 1346 148 c 1,47,-1
 1368 104 l 1,17,18
EndSplineSet
Colour: ffffff
EndChar

StartChar: ogonek
Encoding: 731 731 140
Width: 486
VWidth: 0
Flags: W
HStem: -387 43<349.828 358.335>
VStem: 125 123<-272.756 -91.3408>
LayerCount: 2
Fore
SplineSet
184 -326 m 128,-1,1
 125 -276 125 -276 125 -220 c 128,-1,2
 125 -164 125 -164 152.5 -116.5 c 128,-1,3
 180 -69 180 -69 259 3 c 1,4,-1
 318 3 l 1,5,6
 248 -96 248 -96 248 -157 c 0,7,8
 248 -266 248 -266 381 -344 c 1,9,-1
 347 -387 l 1,10,0
 243 -376 243 -376 184 -326 c 128,-1,1
EndSplineSet
Colour: ffffff
EndChar

StartChar: one
Encoding: 49 49 141
Width: 889
VWidth: 0
Flags: W
HStem: 1 60<124 217.525 721.161 816> 1060 61<144 230.464>
VStem: 398 159<103 1060>
LayerCount: 2
Fore
SplineSet
120 1 m 1,0,-1
 124 61 l 1,1,-1
 398 103 l 1,2,-1
 398 1060 l 1,3,-1
 139 1060 l 1,4,-1
 144 1121 l 1,5,-1
 530 1185 l 1,6,-1
 557 1185 l 1,7,-1
 557 98 l 1,8,-1
 825 70 l 1,9,-1
 816 1 l 1,10,-1
 120 1 l 1,0,-1
EndSplineSet
Substitution2: "'sups' Superscript lookup 0 subtable" one.superior
Colour: ffffff
EndChar

StartChar: one.osf
Encoding: 65541 -1 142
Width: 608
VWidth: 0
Flags: W
HStem: 1 60<64 131.584 522.058 590> 821 61<89 153.064>
VStem: 262 140<103 820>
LayerCount: 2
Fore
SplineSet
58 1 m 1,0,-1
 64 61 l 1,1,-1
 262 103 l 1,2,-1
 262 820 l 1,3,-1
 82 821 l 1,4,-1
 89 882 l 1,5,-1
 375 946 l 1,6,-1
 402 946 l 1,7,-1
 402 98 l 1,8,-1
 598 69 l 1,9,-1
 590 1 l 1,10,-1
 58 1 l 1,0,-1
EndSplineSet
Colour: ffffff
EndChar

StartChar: onehalf
Encoding: 189 189 143
Width: 1737
VWidth: 0
Flags: W
HStem: 1 103<893 1186> 550 60<-12 86.4821 330.896 437> 646 80<870.424 1072.96> 1163 61<0 106.724> 1191 20G<890.636 1038> 1240 20G<119.111 287>
VStem: 146 141<633 1163> 790 55<472 550.029> 1107 153<381.616 617.656>
DStem2: 748 78 1088.35 250.405 0.794875 0.606774<131.033 422.448>
LayerCount: 2
Fore
SplineSet
172 -26 m 1,0,-1
 548 588 l 1,1,-1
 902 1211 l 1,2,-1
 1038 1207 l 1,3,-1
 1036 1190 l 1,4,-1
 670 591 l 1,5,-1
 322 -40 l 1,6,-1
 172 -26 l 1,0,-1
-15 550 m 1,7,-1
 -12 610 l 1,8,-1
 146 633 l 1,9,-1
 146 1163 l 1,10,-1
 -4 1163 l 1,11,-1
 -0 1224 l 1,12,-1
 268 1260 l 1,13,-1
 287 1260 l 1,14,-1
 287 630 l 1,15,-1
 442 620 l 1,16,-1
 437 550 l 1,17,-1
 -15 550 l 1,7,-1
1107 489.5 m 0,18,19
 1107 646 1107 646 973.5 646 c 0,20,21
 899 646 899 646 869 606 c 1,22,-1
 845 467 l 1,23,-1
 790 472 l 1,24,-1
 785 636 l 1,25,26
 812 676 812 676 881.5 701 c 128,-1,27
 951 726 951 726 1044 726 c 128,-1,28
 1137 726 1137 726 1198.5 675 c 128,-1,29
 1260 624 1260 624 1260 527.385 c 128,-1,30
 1260 430.769 1260 430.769 1199.35 360.79 c 128,-1,31
 1138.7 290.811 1138.7 290.811 1088.35 250.405 c 1,32,-1
 928 128 l 1,33,-1
 893 104 l 1,34,-1
 1186 104 l 1,35,-1
 1248 254 l 1,36,-1
 1294 242 l 1,37,-1
 1274 1 l 1,38,-1
 746 1 l 1,39,-1
 748 78 l 1,40,-1
 902 202 l 2,41,42
 1010 290 1010 290 1058.5 355.5 c 128,-1,43
 1107 421 1107 421 1107 489.5 c 0,18,19
EndSplineSet
Colour: ffffff
EndChar

StartChar: onequarter
Encoding: 188 188 144
Width: 1737
VWidth: 0
Flags: W
HStem: -0 55<804 870.686 1140.53 1193> 192 82<748 952 1080 1219> 550 60<-12 86.4821 330.896 437> 1163 61<0 106.724> 1191 20G<900.636 1048> 1240 20G<119.111 287>
VStem: 146 141<633 1163> 952 128<76 188 274 532>
DStem2: 642 250 748 274 0.636383 0.771373<85.9696 414.806>
LayerCount: 2
Fore
SplineSet
182 -26 m 1,0,-1
 558 588 l 1,1,-1
 912 1211 l 1,2,-1
 1048 1207 l 1,3,-1
 1046 1190 l 1,4,-1
 680 591 l 1,5,-1
 332 -40 l 1,6,-1
 182 -26 l 1,0,-1
-15 550 m 1,7,-1
 -12 610 l 1,8,-1
 146 633 l 1,9,-1
 146 1163 l 1,10,-1
 -4 1163 l 1,11,-1
 -0 1224 l 1,12,-1
 268 1260 l 1,13,-1
 287 1260 l 1,14,-1
 287 630 l 1,15,-1
 442 620 l 1,16,-1
 437 550 l 1,17,-1
 -15 550 l 1,7,-1
748 274 m 1,18,-1
 952 274 l 1,19,-1
 952 532 l 1,20,-1
 748 274 l 1,18,-1
642 250 m 1,21,-1
 1038 730 l 1,22,-1
 1088 721 l 1,23,24
 1080 626 1080 626 1080 425 c 2,25,-1
 1080 274 l 1,26,-1
 1228 274 l 1,27,-1
 1219 188 l 1,28,-1
 1080 188 l 1,29,-1
 1080 74 l 1,30,-1
 1199 55 l 1,31,-1
 1193 -0 l 1,32,-1
 799 -0 l 1,33,-1
 804 50 l 1,34,-1
 954 76 l 1,35,-1
 954 192 l 1,36,-1
 652 192 l 1,37,-1
 642 250 l 1,21,-1
EndSplineSet
Colour: ffffff
EndChar

StartChar: one.superior
Encoding: 185 185 145
Width: 563
VWidth: 0
Flags: W
HStem: 548 60<72 170.482 414.896 521> 1161 61<84 190.724> 1238 20G<203.111 371>
VStem: 230 141<631 1161>
LayerCount: 2
Fore
SplineSet
69 548 m 1,0,-1
 72 608 l 1,1,-1
 230 631 l 1,2,-1
 230 1161 l 1,3,-1
 80 1161 l 1,4,-1
 84 1222 l 1,5,-1
 352 1258 l 1,6,-1
 371 1258 l 1,7,-1
 371 628 l 1,8,-1
 526 618 l 1,9,-1
 521 548 l 1,10,-1
 69 548 l 1,0,-1
EndSplineSet
Colour: ffffff
EndChar

StartChar: ordfeminine
Encoding: 170 170 146
Width: 847
VWidth: 0
Flags: W
HStem: 537 88<286.006 450.819 711 750.776> 1202 66<319.417 470.849>
VStem: 143 132<634.009 819.888> 171 110<1044.24 1180.33> 514 123<666.822 900 950 1171.91>
LayerCount: 2
Fore
SplineSet
275 725 m 0,0,1
 275 625 275 625 366 625 c 0,2,3
 451 625 451 625 514 715 c 1,4,-1
 514 900 l 1,5,6
 393 881 393 881 334 840 c 128,-1,7
 275 799 275 799 275 725 c 0,0,1
143 690 m 0,8,9
 143 794 143 794 234.5 869 c 128,-1,10
 326 944 326 944 514 950 c 1,11,-1
 514 980 l 2,12,13
 514 1095 514 1095 487.5 1148.5 c 128,-1,14
 461 1202 461 1202 382 1202 c 0,15,16
 338.8 1202 338.8 1202 322.4 1181.5 c 0,17,18
 292.861 1144.58 292.861 1144.58 281 1023 c 1,19,20
 236 1020 236 1020 203.5 1043.5 c 128,-1,21
 171 1067 171 1067 171 1111 c 0,22,23
 171 1174 171 1174 256 1221 c 128,-1,24
 341 1268 341 1268 438.5 1268 c 0,25,26
 637 1268 637 1268 637 1022 c 2,27,-1
 637 756 l 2,28,29
 637 692 637 692 649 666 c 128,-1,30
 661 640 661 640 711 631 c 2,31,-1
 759 622 l 1,32,-1
 752 574 l 1,33,34
 713 543 713 543 654 543 c 128,-1,35
 595 543 595 543 561 576 c 128,-1,36
 527 609 527 609 527 651 c 2,37,-1
 527 662 l 1,38,-1
 521 662 l 1,39,40
 501 617 501 617 446.5 577 c 128,-1,41
 392 537 392 537 316 537 c 128,-1,42
 240 537 240 537 191.5 578.5 c 128,-1,43
 143 620 143 620 143 690 c 0,8,9
EndSplineSet
Colour: ffffff
EndChar

StartChar: ordmasculine
Encoding: 186 186 147
Width: 944
VWidth: 0
Flags: W
HStem: 536 68<370.903 578.783> 1198 72<335.94 546.748>
VStem: 126 135<721.562 1083.29> 655 135<715.121 1082.97>
LayerCount: 2
Fore
SplineSet
306 1127 m 128,-1,1
 261 1056 261 1056 261 964.5 c 0,2,3
 261 800.5 261 800.5 314.779 702.25 c 128,-1,4
 368.558 604 368.558 604 484 604 c 0,5,6
 568 604 568 604 611.5 677 c 128,-1,7
 655 750 655 750 655 850 c 128,-1,8
 655 950 655 950 634.5 1023.5 c 128,-1,9
 614 1097 614 1097 563.5 1147.5 c 128,-1,10
 513 1198 513 1198 432 1198 c 128,-1,0
 351 1198 351 1198 306 1127 c 128,-1,1
217 633 m 128,-1,12
 126 730 126 730 126 866.5 c 128,-1,13
 126 1003 126 1003 175.5 1092 c 128,-1,14
 225 1181 225 1181 303.5 1225.5 c 128,-1,15
 382 1270 382 1270 475 1270 c 0,16,17
 617 1270 617 1270 703.5 1167.5 c 128,-1,18
 790 1065 790 1065 790 905 c 128,-1,19
 790 745 790 745 692 640.5 c 128,-1,20
 594 536 594 536 451 536 c 128,-1,11
 308 536 308 536 217 633 c 128,-1,12
EndSplineSet
Colour: ffffff
EndChar

StartChar: oslash
Encoding: 248 248 148
Width: 944
VWidth: 0
Flags: W
HStem: -27 81<387.28 631.104> 0 21G<73.6744 193> 819 84<341.966 589.636> 860 20G<783 901.453>
VStem: 88 143<244.991 651.565> 741 142<217.103 626.367>
DStem2: 170 129 193 6 0.63845 0.769663<-79.9842 -13.1468 148.604 725.03 892.037 963.999>
LayerCount: 2
Fore
SplineSet
88 417 m 0,0,1
 88 641.861 88 641.861 211.078 772.43 c 128,-1,2
 334.156 903 334.156 903 507 903 c 0,3,4
 643 903 643 903 739 816 c 1,5,-1
 783 873 l 1,6,-1
 918 880 l 1,7,-1
 803 741 l 1,8,9
 883 618 883 618 883 428.5 c 128,-1,10
 883 239 883 239 766 106 c 128,-1,11
 649 -27 649 -27 493 -27 c 128,-1,12
 337 -27 337 -27 235 58 c 1,13,-1
 193 6 l 1,14,-1
 56 0 l 1,15,-1
 170 129 l 1,16,17
 88 245 88 245 88 417 c 0,0,1
692 638 m 1,18,-1
 309 176 l 1,19,20
 386 54 386 54 517 54 c 0,21,22
 620 54 620 54 680.5 151 c 128,-1,23
 741 248 741 248 741 386.5 c 128,-1,24
 741 525 741 525 692 638 c 1,18,-1
663 695 m 1,25,26
 586 819 586 819 470.5 819 c 128,-1,27
 355 819 355 819 293 723.5 c 128,-1,28
 231 628 231 628 231 486 c 128,-1,29
 231 344 231 344 281 230 c 1,30,-1
 663 695 l 1,25,26
EndSplineSet
Colour: ffffff
EndChar

StartChar: p
Encoding: 112 112 149
Width: 978
VWidth: 0
Flags: W
HStem: -373 58<58 130.636 418.882 486> -20 84<380.301 661.621> 781 105<467.027 681.157> 792 53<64 114.099>
VStem: 210 130<-285 702.441> 778 142<236.568 662.641>
LayerCount: 2
Fore
SplineSet
554 781 m 0,0,1
 455.394 781 455.394 781 340 662 c 1,2,-1
 340 -286 l 1,3,-1
 496 -312 l 1,4,-1
 486 -373 l 1,5,-1
 52 -373 l 1,6,-1
 58 -315 l 1,7,-1
 210 -285 l 1,8,-1
 210 754 l 1,9,-1
 56 792 l 1,10,-1
 64 845 l 1,11,-1
 329 873 l 1,12,-1
 342 859 l 1,13,-1
 333 722 l 1,14,-1
 340 722 l 1,15,16
 388 788 388 788 459.5 837 c 128,-1,17
 531 886 531 886 620 886 c 0,18,19
 756 886 756 886 838 781 c 128,-1,20
 920 676 920 676 920 462.5 c 128,-1,21
 920 249 920 249 796.5 114.5 c 128,-1,22
 673 -20 673 -20 482 -20 c 0,23,24
 440 -20 440 -20 380 -9 c 1,25,-1
 375 87 l 1,26,27
 434 64 434 64 538.5 64 c 128,-1,28
 643 64 643 64 710.5 155 c 128,-1,29
 778 246 778 246 778 404 c 0,30,31
 778 781 778 781 554 781 c 0,0,1
EndSplineSet
Colour: ffffff
EndChar

StartChar: paragraph
Encoding: 182 182 150
Width: 1291
VWidth: 0
Flags: W
HStem: 0 58<510 594.178 1157.98 1235> 463 74<473.18 624> 1171 74<464.676 739> 1188 57<1151 1231>
VStem: 144 169<681.415 1013.91> 739 130<97 1169> 936 122<89 1157>
LayerCount: 2
Fore
SplineSet
936 0 m 1,0,-1
 936 1245 l 1,1,-1
 1238 1245 l 1,2,-1
 1231 1188 l 1,3,-1
 1058 1157 l 1,4,-1
 1058 89 l 1,5,-1
 1244 63 l 1,6,-1
 1235 -1 l 1,7,-1
 936 0 l 1,0,-1
649 1171 m 0,8,9
 313 1171 313 1171 313 852 c 0,10,11
 313 717 313 717 399.5 627 c 128,-1,12
 486 537 486 537 642 537 c 1,13,-1
 624 463 l 1,14,15
 144 463 144 463 144 836 c 0,16,17
 144 1011 144 1011 280 1128 c 128,-1,18
 416 1245 416 1245 604 1245 c 2,19,-1
 869 1245 l 1,20,-1
 869 0 l 1,21,-1
 504 0 l 1,22,-1
 510 58 l 1,23,-1
 739 97 l 1,24,-1
 739 1169 l 1,25,26
 698 1171 698 1171 649 1171 c 0,8,9
EndSplineSet
Colour: ffffff
EndChar

StartChar: parenright
Encoding: 41 41 151
Width: 474
VWidth: 0
Flags: W
HStem: -375 21G<74.6667 138.173> 1236 20G<77.5455 259.5>
VStem: 283 145<106.424 795.409>
LayerCount: 2
Fore
SplineSet
54 1201 m 1,0,-1
 91 1256 l 1,1,2
 428 970 428 970 428 450 c 0,3,4
 428 84.7586 428 84.7586 249 -193 c 0,5,6
 180.345 -299.533 180.345 -299.533 96 -375 c 1,7,-1
 48 -330 l 1,8,9
 283 51 283 51 283 456 c 0,10,11
 283 757.35 283 757.35 199 949.5 c 0,12,13
 135.394 1095 135.394 1095 54 1201 c 1,0,-1
EndSplineSet
Colour: ffffff
EndChar

StartChar: partialdiff
Encoding: 8706 8706 152
Width: 923
VWidth: 0
Flags: W
HStem: -27 77<389.022 614.165> 875 74<351.003 552.972>
VStem: 105 139.5<228.385 707.173> 718 138<214.983 674.184>
LayerCount: 2
Fore
SplineSet
318 168.5 m 128,-1,1
 391 50 391 50 504 50 c 0,2,3
 579 50 579 50 628 100 c 0,4,5
 718 191.837 718 191.837 718 406.418 c 128,-1,6
 718 621 718 621 636.5 747 c 128,-1,7
 555 873 555 873 454 875 c 1,8,-1
 449 875 l 1,9,10
 378 874 378 874 330.5 821 c 0,11,12
 244 724.484 244 724.484 244.5 505.742 c 128,-1,0
 245 287 245 287 318 168.5 c 128,-1,1
206 810.5 m 128,-1,14
 307 949 307 949 467 949 c 0,15,16
 528 949 528 949 585 912.5 c 128,-1,17
 642 876 642 876 664 820 c 1,18,-1
 672 821 l 1,19,20
 640 952 640 952 542 1091 c 128,-1,21
 444 1230 444 1230 359 1303 c 1,22,-1
 450 1303 l 1,23,24
 651 1180 651 1180 753.5 961 c 128,-1,25
 856 742 856 742 856 490.5 c 128,-1,26
 856 239 856 239 750.5 106 c 128,-1,27
 645 -27 645 -27 480 -27 c 0,28,29
 386 -27 386 -27 312.5 13 c 128,-1,30
 239 53 239 53 194.5 121 c 0,31,32
 105 257.764 105 257.764 105 464.882 c 128,-1,13
 105 672 105 672 206 810.5 c 128,-1,14
EndSplineSet
Colour: ffffff
EndChar

StartChar: percent
Encoding: 37 37 153
Width: 1738
VWidth: 0
Flags: W
HStem: -36 52<845.623 950.066> 546 45<843.782 942.889> 584 53<246.151 351.715> 1150 46<479 856> 1168 45<246.236 333.498>
VStem: 56 128<711.487 1072.71> 414 128<727.686 1120.49> 652 129<91.416 449.952> 1012 126<102.175 461.963>
DStem2: 164 -26 310 -40 0.509399 0.860531<62.3248 719.9 782.081 979.596>
LayerCount: 2
Fore
SplineSet
787 367.5 m 0,0,1
 781 323 781 323 781 269 c 128,-1,2
 781 215 781 215 793.5 157 c 128,-1,3
 806 99 806 99 833 57.5 c 128,-1,4
 860 16 860 16 898 16 c 128,-1,5
 936 16 936 16 963 58 c 0,6,7
 1012 134.222 1012 134.222 1012 256.611 c 128,-1,8
 1012 379 1012 379 979.5 462.5 c 128,-1,9
 947 546 947 546 894 546 c 0,10,11
 811.067 546 811.067 546 787 367.5 c 0,0,1
724.5 51.5 m 128,-1,13
 652 139 652 139 652 270.5 c 128,-1,14
 652 402 652 402 726.5 496.5 c 128,-1,15
 801 591 801 591 900.5 591 c 128,-1,16
 1000 591 1000 591 1069 500 c 128,-1,17
 1138 409 1138 409 1138 279.5 c 128,-1,18
 1138 150 1138 150 1062.5 57 c 128,-1,19
 987 -36 987 -36 892 -36 c 128,-1,12
 797 -36 797 -36 724.5 51.5 c 128,-1,13
164 -26 m 1,20,-1
 540 588 l 1,21,-1
 856 1143 l 1,22,-1
 479 1150 l 1,23,24
 506 1119 506 1119 524 1033.5 c 128,-1,25
 542 948 542 948 542 899 c 0,26,27
 542 773 542 773 465 678.5 c 128,-1,28
 388 584 388 584 293 584 c 128,-1,29
 198 584 198 584 127 671.5 c 128,-1,30
 56 759 56 759 56 891.5 c 128,-1,31
 56 1024 56 1024 130.5 1118.5 c 128,-1,32
 205 1213 205 1213 298 1213 c 0,33,34
 322 1213 322 1213 334 1209 c 1,35,-1
 334 1153 l 1,36,37
 314 1168 314 1168 289.5 1168 c 128,-1,38
 265 1168 265 1168 242.5 1142.5 c 128,-1,39
 220 1117 220 1117 202 1054.75 c 128,-1,40
 184 992.5 184 992.5 184 896.25 c 128,-1,41
 184 800 184 800 214.5 718.5 c 128,-1,42
 245 637 245 637 297 637 c 0,43,44
 337 637 337 637 364.5 678.5 c 0,45,46
 414 753.2 414 753.2 414 918.1 c 128,-1,47
 414 1083 414 1083 368 1196 c 1,48,-1
 895 1211 l 1,49,-1
 1025 1207 l 1,50,-1
 1023 1191 l 1,51,-1
 657 591 l 1,52,-1
 310 -40 l 1,53,-1
 164 -26 l 1,20,-1
EndSplineSet
Colour: ffffff
EndChar

StartChar: period
Encoding: 46 46 154
Width: 391
VWidth: 0
Flags: W
HStem: -32 218<134.785 265.184>
VStem: 109 183<0.488647 156.089>
LayerCount: 2
Fore
SplineSet
134 -0.5 m 128,-1,1
 109 31 109 31 109 80 c 128,-1,2
 109 129 109 129 133.5 157.5 c 128,-1,3
 158 186 158 186 199 186 c 128,-1,4
 240 186 240 186 266 157 c 128,-1,5
 292 128 292 128 292 79 c 128,-1,6
 292 30 292 30 267 -1 c 128,-1,7
 242 -32 242 -32 200.5 -32 c 128,-1,0
 159 -32 159 -32 134 -0.5 c 128,-1,1
EndSplineSet
Colour: ffffff
EndChar

StartChar: periodcentered
Encoding: 183 183 155
Width: 402
VWidth: 0
Flags: W
HStem: 391 217<137.301 268.699>
VStem: 111 184<422.973 578.604>
LayerCount: 2
Fore
SplineSet
136 422 m 128,-1,1
 111 453 111 453 111 502 c 128,-1,2
 111 551 111 551 136.5 579.5 c 128,-1,3
 162 608 162 608 203 608 c 128,-1,4
 244 608 244 608 269.5 579.5 c 128,-1,5
 295 551 295 551 295 502 c 128,-1,6
 295 453 295 453 270 422 c 128,-1,7
 245 391 245 391 203 391 c 128,-1,0
 161 391 161 391 136 422 c 128,-1,1
EndSplineSet
Colour: ffffff
EndChar

StartChar: perthousand
Encoding: 8240 8240 156
Width: 1797
VWidth: 0
Flags: W
HStem: -36 52<845.623 950.066 1417.15 1522.52> 546 45<843.782 942.889 1416.85 1514.07> 584 53<246.151 351.715> 1150 46<479 856> 1168 45<246.236 333.498>
VStem: 56 128<711.487 1072.71> 414 128<727.686 1120.49> 652 129<91.416 449.952> 1012 126<102.175 461.963> 1223 130<91.1631 448.952> 1584 126<102.121 460.963>
DStem2: 164 -26 310 -40 0.509399 0.860531<62.3248 719.9 782.081 999.634>
LayerCount: 2
Fore
SplineSet
1359 366.5 m 0,0,1
 1353 322 1353 322 1353 268 c 128,-1,2
 1353 214 1353 214 1365.5 156 c 128,-1,3
 1378 98 1378 98 1405 56.5 c 128,-1,4
 1432 15 1432 15 1470 15 c 128,-1,5
 1508 15 1508 15 1535 56.5 c 0,6,7
 1584 131.815 1584 131.815 1584 254.907 c 128,-1,8
 1584 378 1584 378 1551.5 461.5 c 128,-1,9
 1519 545 1519 545 1466 545 c 0,10,11
 1383.07 545 1383.07 545 1359 366.5 c 0,0,1
1296 50.5 m 128,-1,13
 1223 138 1223 138 1223 269.5 c 128,-1,14
 1223 401 1223 401 1297.5 495.5 c 128,-1,15
 1372 590 1372 590 1472 590 c 128,-1,16
 1572 590 1572 590 1641 499 c 128,-1,17
 1710 408 1710 408 1710 278.5 c 128,-1,18
 1710 149 1710 149 1634.5 56 c 128,-1,19
 1559 -37 1559 -37 1464 -37 c 128,-1,12
 1369 -37 1369 -37 1296 50.5 c 128,-1,13
787 367.5 m 0,20,21
 781 323 781 323 781 269 c 128,-1,22
 781 215 781 215 793.5 157 c 128,-1,23
 806 99 806 99 833 57.5 c 128,-1,24
 860 16 860 16 898 16 c 128,-1,25
 936 16 936 16 963 58 c 0,26,27
 1012 134.222 1012 134.222 1012 256.611 c 128,-1,28
 1012 379 1012 379 979.5 462.5 c 128,-1,29
 947 546 947 546 894 546 c 0,30,31
 811.067 546 811.067 546 787 367.5 c 0,20,21
724.5 51.5 m 128,-1,33
 652 139 652 139 652 270.5 c 128,-1,34
 652 402 652 402 726.5 496.5 c 128,-1,35
 801 591 801 591 900.5 591 c 128,-1,36
 1000 591 1000 591 1069 500 c 128,-1,37
 1138 409 1138 409 1138 279.5 c 128,-1,38
 1138 150 1138 150 1062.5 57 c 128,-1,39
 987 -36 987 -36 892 -36 c 128,-1,32
 797 -36 797 -36 724.5 51.5 c 128,-1,33
164 -26 m 1,40,-1
 540 588 l 1,41,-1
 856 1143 l 1,42,-1
 479 1150 l 1,43,44
 506 1119 506 1119 524 1033.5 c 128,-1,45
 542 948 542 948 542 899 c 0,46,47
 542 773 542 773 465 678.5 c 128,-1,48
 388 584 388 584 293 584 c 128,-1,49
 198 584 198 584 127 671.5 c 128,-1,50
 56 759 56 759 56 891.5 c 128,-1,51
 56 1024 56 1024 130.5 1118.5 c 128,-1,52
 205 1213 205 1213 298 1213 c 0,53,54
 322 1213 322 1213 334 1209 c 1,55,-1
 334 1153 l 1,56,57
 314 1168 314 1168 289.5 1168 c 128,-1,58
 265 1168 265 1168 242.5 1142.5 c 128,-1,59
 220 1117 220 1117 202 1054.75 c 128,-1,60
 184 992.5 184 992.5 184 896.25 c 128,-1,61
 184 800 184 800 214.5 718.5 c 128,-1,62
 245 637 245 637 297 637 c 0,63,64
 337 637 337 637 364.5 678.5 c 0,65,66
 414 753.2 414 753.2 414 918.1 c 128,-1,67
 414 1083 414 1083 368 1196 c 1,68,-1
 895 1211 l 1,69,-1
 1025 1207 l 1,70,-1
 1025 1192 l 1,71,-1
 657 591 l 1,72,-1
 310 -40 l 1,73,-1
 164 -26 l 1,40,-1
EndSplineSet
Colour: ffffff
EndChar

StartChar: plus
Encoding: 43 43 157
Width: 680
VWidth: 0
Flags: W
HStem: 417 86<99 308 397 606>
VStem: 308 89<186 417 503 730>
LayerCount: 2
Fore
SplineSet
87 417 m 1,0,-1
 99 503 l 1,1,-1
 308 503 l 1,2,-1
 308 742 l 1,3,-1
 396 730 l 1,4,-1
 397 503 l 1,5,-1
 617 503 l 1,6,-1
 606 417 l 1,7,-1
 397 417 l 1,8,-1
 399 173 l 1,9,-1
 308 186 l 1,10,-1
 308 417 l 1,11,-1
 87 417 l 1,0,-1
EndSplineSet
Colour: ffffff
EndChar

StartChar: product
Encoding: 8719 8719 158
Width: 1446
VWidth: 0
Flags: W
HStem: 0 63<97 144.246 535.685 588 922 968.68 1355.72 1410> 1160 84<414 1087> 1187 57<90 161.631 1325.77 1403>
VStem: 264 150<96 1154> 1087 149<96 1156>
LayerCount: 2
Fore
SplineSet
83 1187 m 1,0,-1
 90 1244 l 1,1,-1
 1412 1244 l 1,2,-1
 1403 1187 l 1,3,-1
 1236 1156 l 1,4,-1
 1236 90 l 1,5,-1
 1419 63 l 1,6,-1
 1410 0 l 1,7,-1
 911 0 l 1,8,-1
 922 58 l 1,9,-1
 1087 96 l 1,10,-1
 1087 1161 l 1,11,-1
 414 1160 l 1,12,-1
 414 90 l 1,13,-1
 600 63 l 1,14,-1
 588 0 l 1,15,-1
 90 0 l 1,16,-1
 97 58 l 1,17,-1
 264 96 l 1,18,-1
 264 1154 l 1,19,-1
 83 1187 l 1,0,-1
EndSplineSet
Colour: ffffff
EndChar

StartChar: q
Encoding: 113 113 159
Width: 963
VWidth: 0
Flags: W
HStem: -367 59<527 604.312 889.568 963> -21 99<337.549 584.084> 809 80<353.513 597.898>
VStem: 88 139<211.17 612.29> 678 133<-280 742.155>
LayerCount: 2
Fore
SplineSet
88 407 m 0,0,1
 88 506 88 506 125 596.5 c 128,-1,2
 162 687 162 687 221.5 750.5 c 128,-1,3
 281 814 281 814 358 851.5 c 128,-1,4
 435 889 435 889 523.5 889 c 128,-1,5
 612 889 612 889 694 845 c 1,6,-1
 788 878 l 1,7,-1
 811 878 l 1,8,-1
 811 -280 l 1,9,-1
 972 -306 l 1,10,-1
 963 -367 l 1,11,-1
 519 -367 l 1,12,-1
 527 -308 l 1,13,-1
 678 -280 l 1,14,-1
 678 691 l 1,15,16
 647 739 647 739 592 774 c 128,-1,17
 537 809 537 809 464 809 c 0,18,19
 364 809 364 809 295.5 713.5 c 128,-1,20
 227 618 227 618 227 446.5 c 128,-1,21
 227 275 227 275 290.5 176.5 c 128,-1,22
 354 78 354 78 465 78 c 0,23,24
 504 78 504 78 558.5 91 c 128,-1,25
 613 104 613 104 647 127 c 1,26,-1
 651 71 l 1,27,28
 606 28 606 28 537.5 3.5 c 128,-1,29
 469 -21 469 -21 405 -21 c 0,30,31
 264 -21 264 -21 176 86 c 128,-1,32
 88 193 88 193 88 407 c 0,0,1
EndSplineSet
Colour: ffffff
EndChar

StartChar: question
Encoding: 63 63 160
Width: 619
VWidth: 0
Flags: W
HStem: -35 219<218.331 346.669> 1147 140<133.903 384.753>
VStem: 164 104<407.366 602.442> 191 183<-0.965454 152.543> 473 94<843.529 1071.31>
LayerCount: 2
Fore
SplineSet
216 -2 m 128,-1,1
 191 31 191 31 191 77.5 c 128,-1,2
 191 124 191 124 217.5 154 c 128,-1,3
 244 184 244 184 282.5 184 c 128,-1,4
 321 184 321 184 347.5 153.5 c 128,-1,5
 374 123 374 123 374 76 c 128,-1,6
 374 29 374 29 349 -3 c 128,-1,7
 324 -35 324 -35 282.5 -35 c 128,-1,0
 241 -35 241 -35 216 -2 c 128,-1,1
99 1073 m 1,8,9
 40 1100.04 40 1100.04 40 1169 c 0,10,11
 40 1207 40 1207 95.5 1247 c 128,-1,12
 151 1287 151 1287 238 1287 c 0,13,14
 366 1287 366 1287 466.5 1170 c 128,-1,15
 567 1053 567 1053 567 893 c 0,16,17
 567 801.377 567 801.377 515.489 750.839 c 128,-1,18
 463.979 700.3 463.979 700.3 408.989 667.65 c 128,-1,19
 354 635 354 635 327.5 615 c 0,20,21
 268 570.094 268 570.094 268 513.547 c 128,-1,22
 268 457 268 457 303 371 c 1,23,-1
 245 354 l 1,24,25
 214 389 214 389 189 449 c 128,-1,26
 164 509 164 509 164 567.5 c 128,-1,27
 164 626 164 626 196 671 c 128,-1,28
 228 716 228 716 273 743 c 2,29,-1
 363.5 795.5 l 1,30,31
 473 856.868 473 856.868 473 939.434 c 128,-1,32
 473 1022 473 1022 418 1084.5 c 128,-1,33
 363 1147 363 1147 291 1147 c 0,34,35
 168.647 1147 168.647 1147 99 1073 c 1,8,9
EndSplineSet
Colour: ffffff
EndChar

StartChar: quotedbl
Encoding: 34 34 161
Width: 437
VWidth: 0
Flags: W
HStem: 891 412
VStem: 139 73<899 1055.07> 326 74<899 1050.63>
LayerCount: 2
Fore
SplineSet
289 1303 m 1,0,-1
 436 1291 l 1,1,-1
 400 899 l 1,2,-1
 326 891 l 1,3,-1
 289 1303 l 1,0,-1
103 1303 m 1,4,-1
 248 1291 l 1,5,-1
 212 899 l 1,6,-1
 139 891 l 1,7,-1
 103 1303 l 1,4,-1
EndSplineSet
Colour: ffffff
EndChar

StartChar: quotereversed
Encoding: 8219 8219 162
Width: 393
VWidth: 0
Flags: W
HStem: 773 56<283.631 334.864>
VStem: 51 118<928.69 1114.27>
LayerCount: 2
Fore
SplineSet
51 1080 m 0,0,1
 51 1181 51 1181 99.5 1234 c 128,-1,2
 148 1287 148 1287 206.5 1287 c 128,-1,3
 265 1287 265 1287 298 1243.5 c 128,-1,4
 331 1200 331 1200 309 1142 c 1,5,6
 251 1150 251 1150 210 1113.5 c 128,-1,7
 169 1077 169 1077 169 1020 c 0,8,9
 169 888 169 888 349 829 c 1,10,-1
 330 773 l 1,11,12
 108.454 836.299 108.454 836.299 62 1001 c 0,13,14
 51 1040 51 1040 51 1080 c 0,0,1
EndSplineSet
Colour: ffffff
EndChar

StartChar: quotesingle
Encoding: 39 39 163
Width: 333
VWidth: 0
Flags: W
HStem: 891 412
VStem: 148 73<899 1050.63>
LayerCount: 2
Fore
SplineSet
111 1303 m 1,0,-1
 257 1291 l 1,1,-1
 221 899 l 1,2,-1
 148 891 l 1,3,-1
 111 1303 l 1,0,-1
EndSplineSet
Colour: ffffff
EndChar

StartChar: r
Encoding: 114 114 164
Width: 738
VWidth: 0
Flags: W
HStem: -0 52<84 149.355 507.409 591> 756 139<495.293 644.272> 796 52<88 137.814> 857 20G<168.379 363>
VStem: 239 130<88 627.5>
LayerCount: 2
Back
SplineSet
474.94 422.059 m 1,0,1
 468.19 427.845 468.19 427.845 453.492 443.012 c 0
 438.793 458.18 438.793 458.18 428.67 465.325 c 0
 418.546 472.47 418.546 472.47 408.603 472.47 c 1,2,3
 454.493 472.47 454.493 472.47 449.905 458.197 c 0
 449.129 455.782 449.129 455.782 446.758 453.016 c 0,4,5
 440.89 446.171 440.89 446.171 434.951 486.654 c 0
 430.214 518.949 430.214 518.949 412.925 761.52 c 0
 409.272 812.769 409.272 812.769 407.345 813.131 c 0
 406.821 813.229 406.821 813.229 406.366 810.095 c 2,6,-1
 308.14 587.098 l 1,7,-1
 455.174 583.688 l 1,8,-1
 595.026 541.52 l 1,9,-1
 254.7 535.92 l 1,10,-1
 256.859 419.665 l 1,11,-1
 357.234 444.522 l 1,12,13
 358.979 455.199 358.979 455.199 364.507 491.341 c 0
 370.034 527.484 370.034 527.484 375.145 559.109 c 0
 380.256 590.735 380.256 590.735 388.237 637.831 c 0
 396.217 684.927 396.217 684.927 404.366 724.566 c 0
 412.515 764.206 412.515 764.206 422.522 808.851 c 0
 432.53 853.496 432.53 853.496 443.289 887.745 c 0
 454.049 921.994 454.049 921.994 465.655 950.784 c 0
 477.261 979.573 477.261 979.573 490.204 995.027 c 0
 503.147 1010.48 503.147 1010.48 516.025 1010.48 c 1,14,15
 525.48 1011.49 l 1
 509.628 1014.43 509.628 1014.43 494.714 1003.76 c 0
 484.762 996.641 484.762 996.641 484.762 984.531 c 1,16,17
 483.94 978.12 l 1
 483.303 979.29 l 2
 476.034 993.283 476.034 993.283 463.528 984.841 c 1,18,19
 453.894 1002.77 453.894 1002.77 505.806 1027.67 c 0
 521.316 1035.11 521.316 1035.11 551.372 1046.94 c 0
 574.941 1056.23 574.941 1056.23 575.042 1057.78 c 0
 575.091 1058.54 575.091 1058.54 571.961 1058.54 c 0,20,21
 552.384 1058.54 552.384 1058.54 536.315 1047.68 c 0
 520.247 1036.82 520.247 1036.82 508.964 1014.99 c 0
 497.681 993.161 497.681 993.161 489.598 971.523 c 0
 481.515 949.885 481.515 949.885 475.364 916.737 c 0
 469.212 883.588 469.212 883.588 466.122 862.455 c 0
 463.032 841.322 463.032 841.322 459.189 808.907 c 1,22,-1
 448.831 433.355 l 1,23,-1
 604.782 421.141 l 1,24,25
 615.635 458.412 615.635 458.412 628 478.141 c 0
 640.366 497.87 640.366 497.87 664.416 524.076 c 0,26,27
 704.811 568.093 704.811 568.093 747.274 568.093 c 0,28,29
 781.45 568.093 781.45 568.093 802.166 546.862 c 0,30,31
 822.881 525.629 822.881 525.629 822.879 496.63 c 0,32,33
 822.879 484.808 822.879 484.808 743.471 470.984 c 0
 664.062 457.16 664.062 457.16 575.984 444.023 c 0
 487.905 430.886 487.905 430.886 474.94 422.059 c 1,0,1
EndSplineSet
Fore
SplineSet
76 -0 m 1,0,-1
 84 52 l 1,1,-1
 239 86 l 1,2,-1
 239 757 l 1,3,-1
 79 796 l 1,4,-1
 88 848 l 1,5,-1
 347 877 l 1,6,-1
 363 860 l 1,7,-1
 349 615 l 1,8,-1
 363 615 l 1,9,10
 399 744 399 744 464.5 819.5 c 128,-1,11
 530 895 530 895 592 895 c 128,-1,12
 654 895 654 895 684 867 c 128,-1,13
 714 839 714 839 714 793 c 128,-1,14
 714 747 714 747 652 704 c 1,15,16
 601 756 601 756 543 756 c 128,-1,17
 485 756 485 756 435.5 672 c 128,-1,18
 386 588 386 588 369 464 c 1,19,-1
 369 88 l 1,20,-1
 599 61 l 1,21,-1
 591 -0 l 1,22,-1
 76 -0 l 1,0,-1
EndSplineSet
Colour: ffffff
EndChar

StartChar: radical
Encoding: 8730 8730 165
Width: 1000
VWidth: 0
Flags: W
HStem: 458 59<25 102.211>
DStem2: 278 533 161 434 0.36316 -0.931727<49.7513 508.555> 452 55 475 -116 0.356242 0.934394<0 1325.59>
LayerCount: 2
Fore
SplineSet
15 458 m 1,0,-1
 25 517 l 1,1,-1
 278 533 l 1,2,-1
 452 55 l 1,3,-1
 918 1296 l 1,4,-1
 1016 1303 l 1,5,-1
 475 -116 l 1,6,-1
 382 -133 l 1,7,-1
 161 434 l 1,8,-1
 15 458 l 1,0,-1
EndSplineSet
Colour: ffffff
EndChar

StartChar: registered
Encoding: 174 174 166
Width: 1351
VWidth: 0
Flags: W
HStem: 542 62<488.097 817.339> 774 39<403 454.2 603.611 654> 1010 52<574 647> 1279 38<406 474.897> 1285 53<574.21 716.01> 1459 61<486.023 812.649>
VStem: 177 72<841.99 1232.55> 478 96<835 1010 1062 1266> 750 103<1092.26 1266.74> 1072 72<843.8 1212.77>
LayerCount: 2
Fore
SplineSet
363 1350 m 128,-1,1
 249 1239 249 1239 249 1040.5 c 128,-1,2
 249 842 249 842 361 723 c 128,-1,3
 473 604 473 604 650 604 c 128,-1,4
 827 604 827 604 949.5 719 c 128,-1,5
 1072 834 1072 834 1072 1025.5 c 128,-1,6
 1072 1217 1072 1217 953 1337 c 128,-1,7
 834 1457 834 1457 655.5 1459 c 128,-1,0
 477 1461 477 1461 363 1350 c 128,-1,1
177 1022 m 0,8,9
 177 1252 177 1252 312 1386 c 128,-1,10
 447 1520 447 1520 652 1520 c 0,11,12
 946.872 1520 946.872 1520 1078 1294.5 c 0,13,14
 1144 1181 1144 1181 1144 1029.5 c 128,-1,15
 1144 878 1144 878 1075 766.5 c 128,-1,16
 1006 655 1006 655 893 598.5 c 128,-1,17
 780 542 780 542 646.5 542 c 128,-1,18
 513 542 513 542 407.5 600.5 c 128,-1,19
 302 659 302 659 239.5 769.5 c 128,-1,20
 177 880 177 880 177 1022 c 0,8,9
584.5 1284 m 2,21,22
 579.25 1284 579.25 1284 574 1284 c 1,23,-1
 574 1062 l 1,24,-1
 665 1062 l 1,25,26
 750 1108 750 1108 750 1181 c 0,27,28
 750 1285 750 1285 619 1285 c 2,29,-1
 606.5 1285 l 1,30,-1
 584.5 1284 l 2,21,22
398 774 m 1,31,-1
 403 813 l 1,32,-1
 478 834 l 1,33,-1
 478 1266 l 1,34,-1
 401 1279 l 1,35,-1
 406 1317 l 1,36,37
 532 1338 532 1338 633 1338 c 128,-1,38
 734 1338 734 1338 793.5 1303.5 c 128,-1,39
 853 1269 853 1269 853 1209 c 0,40,41
 853 1090.77 853 1090.77 722 1034 c 1,42,-1
 721 1033 l 1,43,-1
 805 926 l 2,44,45
 848 872 848 872 870.129 851.979 c 128,-1,46
 892.257 831.958 892.257 831.958 941 814 c 1,47,-1
 935 773 l 1,48,49
 913 765 913 765 867 765 c 128,-1,50
 821 765 821 765 784.5 795.5 c 128,-1,51
 748 826 748 826 708 899 c 2,52,-1
 647 1010 l 1,53,-1
 574 1010 l 1,54,-1
 574 835 l 1,55,-1
 659 817 l 1,56,-1
 654 774 l 1,57,-1
 398 774 l 1,31,-1
EndSplineSet
Colour: ffffff
EndChar

StartChar: ring
Encoding: 730 730 167
Width: 517
VWidth: 0
Flags: W
HStem: 1362 45<212.936 328.374> 1656 44<204.097 316.705>
VStem: 104 67<1438.78 1625.88> 360 68<1434.91 1619.16>
LayerCount: 2
Fore
SplineSet
193.5 1622 m 128,-1,1
 171 1588 171 1588 171 1538 c 128,-1,2
 171 1488 171 1488 197.5 1447.5 c 128,-1,3
 224 1407 224 1407 268 1407 c 128,-1,4
 312 1407 312 1407 336 1437.5 c 128,-1,5
 360 1468 360 1468 360 1522 c 128,-1,6
 360 1576 360 1576 332.5 1616 c 128,-1,7
 305 1656 305 1656 260.5 1656 c 128,-1,0
 216 1656 216 1656 193.5 1622 c 128,-1,1
146.5 1407 m 128,-1,9
 104 1452 104 1452 104 1525 c 128,-1,10
 104 1598 104 1598 152.5 1649 c 128,-1,11
 201 1700 201 1700 271.5 1700 c 128,-1,12
 342 1700 342 1700 385 1654.5 c 128,-1,13
 428 1609 428 1609 428 1538 c 128,-1,14
 428 1467 428 1467 380.5 1414.5 c 128,-1,15
 333 1362 333 1362 261 1362 c 128,-1,8
 189 1362 189 1362 146.5 1407 c 128,-1,9
EndSplineSet
Colour: ffffff
EndChar

StartChar: s
Encoding: 115 115 168
Width: 692
VWidth: 0
Flags: W
HStem: -35 75<269.61 487.456> 825 64<253.837 426.528>
VStem: 71 106<136.469 228.059> 108 106<598.434 777.745> 529 118<78.7239 253.57>
DStem2: 384.5 502.5 363 339.5 0.849285 -0.527934<-217.782 286.11>
LayerCount: 2
Fore
SplineSet
177 264 m 1,0,1
 224.458 40 224.458 40 372.5 40 c 0,2,3
 445 40 445 40 487 74 c 128,-1,4
 529 108 529 108 529 152 c 128,-1,5
 529 196 529 196 506 228 c 128,-1,6
 483 260 483 260 445.5 286.5 c 128,-1,7
 408 313 408 313 363 339.5 c 0,8,9
 255.069 403.06 255.069 403.06 181.534 467.77 c 128,-1,10
 108 532.48 108 532.48 108 631.886 c 128,-1,11
 108 731.292 108 731.292 177.264 810.146 c 128,-1,12
 246.527 889 246.527 889 385 889 c 0,13,14
 483 889 483 889 549 839 c 128,-1,15
 615 789 615 789 615 723.5 c 0,16,17
 615 605.75 615 605.75 510 597 c 1,18,-1
 502 636 l 1,19,20
 459.208 825 459.208 825 347 825 c 0,21,22
 286 825 286 825 250 790.5 c 128,-1,23
 214 756 214 756 214 707.5 c 128,-1,24
 214 659 214 659 238 623 c 0,25,26
 275.266 567.101 275.266 567.101 384.5 502.5 c 1,27,-1
 477 445 l 1,28,29
 585.932 373.957 585.932 373.957 623 306 c 0,30,31
 647 262 647 262 647 212 c 0,32,33
 647 104 647 104 557.5 34.5 c 128,-1,34
 468 -35 468 -35 348 -35 c 128,-1,35
 228 -35 228 -35 149.5 18.5 c 128,-1,36
 71 72 71 72 71 154 c 0,37,38
 71 199 71 199 101 229 c 128,-1,39
 131 259 131 259 177 264 c 1,0,1
EndSplineSet
Colour: ffffff
EndChar

StartChar: section
Encoding: 167 167 169
Width: 875
VWidth: 0
Flags: W
HStem: -381 82<291.093 589.372> 869 21G<660 734.824> 1200 70<325.731 560.97>
VStem: 96 76<-62.84 29> 113 135<871.046 1102.71> 660 73<878 998.202> 686 145<-193.125 40.0791>
DStem2: 483.5 720.5 322.703 625.772 0.854788 -0.518978<-271.354 344.876> 592 294 334 256 0.859407 -0.511293<-387.986 205.577>
LayerCount: 2
Fore
SplineSet
166.5 1117.5 m 0,0,1
 271.774 1270 271.774 1270 460.887 1270 c 128,-1,2
 650 1270 650 1270 760 1165 c 1,3,-1
 733 869 l 1,4,-1
 660 878 l 1,5,-1
 634 1096 l 1,6,7
 613 1136 613 1136 557.5 1168 c 128,-1,8
 502 1200 502 1200 431 1200 c 128,-1,9
 360 1200 360 1200 304 1147.5 c 128,-1,10
 248 1095 248 1095 248 1017.5 c 128,-1,11
 248 940 248 940 281 887.5 c 128,-1,12
 314 835 314 835 367 796.5 c 128,-1,13
 420 758 420 758 483.5 720.5 c 2,14,-1
 609.5 644 l 2,15,16
 672 605 672 605 723 561 c 0,17,18
 837.782 461.972 837.782 461.972 830 318 c 1,19,20
 349.405 608.545 349.405 608.545 322.703 625.772 c 0,21,22
 221.466 691.086 221.466 691.086 167.233 764.135 c 128,-1,23
 113 837.184 113 837.184 113 938.592 c 128,-1,24
 113 1040 113 1040 166.5 1117.5 c 0,0,1
75 -238 m 1,25,-1
 96 39 l 1,26,-1
 172 29 l 1,27,-1
 204 -176 l 1,28,29
 235 -230 235 -230 302 -264.5 c 128,-1,30
 369 -299 369 -299 455 -299 c 128,-1,31
 541 -299 541 -299 613.5 -242 c 128,-1,32
 686 -185 686 -185 686 -80.5784 c 128,-1,33
 686 23.8431 686 23.8431 570 108 c 0,34,35
 519 145 519 145 457 181 c 1,36,-1
 334 256 l 1,37,38
 273 295 273 295 223 338.5 c 0,39,40
 110.255 436.588 110.255 436.588 118 576 c 1,41,-1
 592 294 l 2,42,43
 670.448 247.644 670.448 247.644 700.724 220.322 c 0,44,45
 775.644 152.711 775.644 152.711 803.322 97.3555 c 128,-1,46
 831 42 831 42 831 -25 c 0,47,48
 831 -180 831 -180 710 -280.5 c 128,-1,49
 589 -381 589 -381 409 -381 c 0,50,51
 305 -381 305 -381 215 -340.5 c 128,-1,52
 125 -300 125 -300 75 -238 c 1,25,-1
EndSplineSet
Colour: ffffff
EndChar

StartChar: seven
Encoding: 55 55 170
Width: 919
VWidth: 0
Flags: W
HStem: 1047 135<205 756>
VStem: 83 54<826.611 867.857>
LayerCount: 2
Fore
SplineSet
83 829 m 1,0,-1
 111 1182 l 1,1,-1
 874 1182 l 1,2,-1
 874 1130 l 1,3,-1
 441 -33 l 1,4,-1
 282 -16 l 1,5,-1
 756 1047 l 1,6,-1
 205 1047 l 1,7,-1
 137 820 l 1,8,-1
 83 829 l 1,0,-1
EndSplineSet
Substitution2: "'sups' Superscript lookup 0 subtable" seven.superior
Colour: ffffff
EndChar

StartChar: seven.osf
Encoding: 65542 -1 171
Width: 723
VWidth: 0
Flags: W
HStem: 806 127<143 594>
VStem: 28 52<604.243 644.559> 136 150<-285.842 4.22739>
LayerCount: 2
Fore
SplineSet
286 -299 m 1,0,-1
 255 -304 l 1,1,2
 136 -304 136 -304 136 -185 c 0,3,4
 136 37 136 37 594 806 c 1,5,-1
 143 806 l 1,6,-1
 80 597 l 1,7,-1
 28 607 l 1,8,-1
 60 933 l 1,9,-1
 704 933 l 1,10,-1
 710 859 l 1,11,12
 479.723 440.216 479.723 440.216 438.361 331.108 c 128,-1,13
 397 222 397 222 349.82 76.9388 c 128,-1,14
 302.64 -68.1223 302.64 -68.1223 286 -299 c 1,0,-1
EndSplineSet
Colour: ffffff
EndChar

StartChar: six
Encoding: 54 54 172
Width: 940
VWidth: 0
Flags: W
HStem: -21 65<409.54 616.841> 619 90<379.108 613.324>
VStem: 120 163<183.177 606.743> 712 163<177.271 508.706>
LayerCount: 2
Fore
SplineSet
283 407 m 0,0,1
 283 251 283 251 345 147.5 c 128,-1,2
 407 44 407 44 499 44 c 0,3,4
 712 44 712 44 712 327 c 0,5,6
 712 450 712 450 652 534.5 c 128,-1,7
 592 619 592 619 484 619 c 0,8,9
 420 619 420 619 365.5 594.5 c 128,-1,10
 311 570 311 570 290 540 c 1,11,12
 283 492 283 492 283 407 c 0,0,1
120 422 m 0,13,14
 120 673 120 673 286.5 902 c 128,-1,15
 453 1131 453 1131 694 1214 c 1,16,-1
 723 1164 l 1,17,18
 373 1008 373 1008 293 609 c 1,19,-1
 302 609 l 1,20,21
 410 709 410 709 555.5 709 c 128,-1,22
 701 709 701 709 788 612 c 128,-1,23
 875 515 875 515 875 356 c 128,-1,24
 875 197 875 197 761.5 88 c 128,-1,25
 648 -21 648 -21 484 -21 c 0,26,27
 213.11 -21 213.11 -21 140.5 253.5 c 0,28,29
 120 331 120 331 120 422 c 0,13,14
EndSplineSet
Substitution2: "'sups' Superscript lookup 0 subtable" six.superior
Colour: ffffff
EndChar

StartChar: six.osf
Encoding: 65543 -1 173
Width: 807
VWidth: 0
Flags: W
HStem: -21 69<347.735 537.348> 619 92<329.897 541.398>
VStem: 81 158<171.034 557.212> 623 152<187.509 527.013>
LayerCount: 2
Fore
SplineSet
239 407 m 0,0,1
 239 250 239 250 294.5 149 c 128,-1,2
 350 48 350 48 438.5 48 c 128,-1,3
 527 48 527 48 575 127.5 c 128,-1,4
 623 207 623 207 623 331 c 128,-1,5
 623 455 623 455 573 537 c 128,-1,6
 523 619 523 619 417 619 c 0,7,8
 366 619 366 619 320.5 596.5 c 128,-1,9
 275 574 275 574 249 544 c 1,10,11
 239 476 239 476 239 407 c 0,0,1
261 614 m 1,12,13
 362.409 711 362.409 711 493.205 711 c 128,-1,14
 624 711 624 711 699.5 614 c 128,-1,15
 775 517 775 517 775 393.5 c 128,-1,16
 775 270 775 270 726.5 179 c 128,-1,17
 678 88 678 88 595.5 33.5 c 128,-1,18
 513 -21 513 -21 419.5 -21 c 0,19,20
 232.929 -21 232.929 -21 156.965 107.633 c 128,-1,21
 81 236.267 81 236.267 81 408.133 c 128,-1,22
 81 580 81 580 154 743 c 128,-1,23
 227 906 227 906 359.5 1035.5 c 128,-1,24
 492 1165 492 1165 651 1218 c 1,25,-1
 679 1167 l 1,26,27
 414.434 1054.01 414.434 1054.01 299.5 769.5 c 0,28,29
 269 694 269 694 253 614 c 1,30,-1
 261 614 l 1,12,13
EndSplineSet
Colour: ffffff
EndChar

StartChar: slash
Encoding: 47 47 174
Width: 610
VWidth: 0
Flags: W
HStem: 1224 20G<498 599.171>
VStem: 35 570
DStem2: 35 -361 139 -355 0.279792 0.96006<34.8588 1664.68>
LayerCount: 2
Fore
SplineSet
35 -361 m 1,0,-1
 498 1238 l 1,1,-1
 605 1244 l 1,2,-1
 139 -355 l 1,3,-1
 35 -361 l 1,0,-1
EndSplineSet
Colour: ffffff
EndChar

StartChar: softhyphen
Encoding: 173 173 175
Width: 573
VWidth: 0
Flags: W
HStem: 420 150
VStem: 82 416
DStem2: 90 509 82 420 0.989007 0.147866<0 391.315>
LayerCount: 2
Fore
SplineSet
82 420 m 1,0,-1
 90 509 l 1,1,-1
 498 570 l 1,2,-1
 490 480 l 1,3,-1
 82 420 l 1,0,-1
EndSplineSet
Colour: ffffff
EndChar

StartChar: sterling
Encoding: 163 163 177
Width: 1092
VWidth: 0
Flags: W
HStem: 0 78<391 890> 0 58<89 152.38> 552 79<131 298> 892 21G<806 874.944> 1171 80<532.229 774.512>
VStem: 301 154<135.141 561 648 1031.21> 806 67<902 1012.53>
DStem2: 455 648 453 568 0.998477 0.0551645<0 204.986>
LayerCount: 2
Fore
SplineSet
82 0 m 1,0,-1
 89 58 l 1,1,-1
 257 96 l 1,2,3
 292 221 292 221 297 461 c 1,4,-1
 298 561 l 1,5,-1
 120 552 l 1,6,-1
 131 631 l 1,7,-1
 301 641 l 1,8,-1
 304 786 l 1,9,10
 316 1251 316 1251 672 1251 c 0,11,12
 808 1251 808 1251 904 1211 c 1,13,-1
 873 892 l 1,14,-1
 806 902 l 1,15,-1
 775 1141 l 1,16,17
 715 1171 715 1171 661 1171 c 128,-1,18
 607 1171 607 1171 574.5 1159 c 0,19,20
 504.327 1133.09 504.327 1133.09 480.616 1031.86 c 128,-1,21
 456.905 930.634 456.905 930.634 455 702 c 1,22,-1
 455 648 l 1,23,-1
 674 661 l 1,24,-1
 664 581 l 1,25,-1
 453 568 l 1,26,-1
 453 516 l 1,27,28
 450 215 450 215 391 78 c 1,29,-1
 890 77 l 1,30,-1
 1001 336 l 1,31,-1
 1064 322 l 1,32,-1
 1030 0 l 1,33,-1
 82 0 l 1,0,-1
EndSplineSet
Colour: ffffff
EndChar

StartChar: summation
Encoding: 8721 8721 178
Width: 1104
VWidth: 0
Flags: W
HStem: 0 108<208 929> 1173 71<221 911>
VStem: 941 66<934 1048.21>
DStem2: 221 1173 40 1194 0.673649 -0.739052<0 627.043> 47 58 208 108 0.671225 0.741254<145.13 756.826>
LayerCount: 2
Fore
SplineSet
40 1194 m 1,0,-1
 51 1244 l 1,1,-1
 1038 1244 l 1,2,-1
 1007 925 l 1,3,-1
 941 934 l 1,4,-1
 911 1173 l 1,5,-1
 221 1173 l 1,6,-1
 687 676 l 1,7,-1
 683 637 l 1,8,-1
 208 108 l 1,9,-1
 929 108 l 1,10,-1
 1015 357 l 1,11,-1
 1077 347 l 1,12,-1
 1047 0 l 1,13,-1
 47 0 l 1,14,-1
 47 58 l 1,15,-1
 555 619 l 1,16,-1
 555 629 l 1,17,-1
 40 1194 l 1,0,-1
EndSplineSet
Colour: ffffff
EndChar

StartChar: t
Encoding: 116 116 179
Width: 640
VWidth: 0
Flags: W
HStem: -24 122<356.328 531.262> 768 72<327 602> 771 40<66 102.861>
VStem: 189 134<144.425 768> 280 47<1015.54 1068>
DStem2: 616 163 521.5 14.5 0.806405 0.591364<-151.965 -10.6983>
LayerCount: 2
Fore
SplineSet
380 -24 m 0,0,1
 187.09 -24 187.09 -24 189 251 c 2,2,-1
 193 771 l 1,3,-1
 66 771 l 1,4,-1
 66 811 l 1,5,6
 201 872 201 872 280 1068 c 1,7,-1
 327 1068 l 1,8,-1
 327 840 l 1,9,-1
 610 840 l 1,10,-1
 602 768 l 1,11,-1
 326 768 l 1,12,-1
 323 310 l 2,13,14
 323 188 323 188 355 143 c 128,-1,15
 387 98 387 98 457.182 98 c 128,-1,16
 527.364 98 527.364 98 593.5 146.5 c 2,17,-1
 616 163 l 1,18,-1
 635 119 l 1,19,20
 589 53 589 53 521.5 14.5 c 128,-1,21
 454 -24 454 -24 380 -24 c 0,0,1
EndSplineSet
Colour: ffffff
EndChar

StartChar: tbar
Encoding: 359 359 180
Width: 654
VWidth: 0
Flags: W
HStem: -24 122<362.328 537.262> 486 94<81 197 331 601> 768 72<333 608> 771 40<72 108.861>
VStem: 195 134<144.425 486 580 768> 286 47<1015.54 1068>
DStem2: 622 163 527.5 14.5 0.806405 0.591364<-151.965 -10.6983>
LayerCount: 2
Fore
SplineSet
386 -24 m 0,0,1
 193.09 -24 193.09 -24 195 251 c 2,2,-1
 197 486 l 1,3,-1
 72 486 l 1,4,-1
 81 580 l 1,5,-1
 198 580 l 1,6,-1
 199 771 l 1,7,-1
 72 771 l 1,8,-1
 72 811 l 1,9,10
 207 872 207 872 286 1068 c 1,11,-1
 333 1068 l 1,12,-1
 333 840 l 1,13,-1
 616 840 l 1,14,-1
 608 768 l 1,15,-1
 332 768 l 1,16,-1
 331 580 l 1,17,-1
 608 580 l 1,18,-1
 601 486 l 1,19,-1
 330 486 l 1,20,-1
 329 310 l 2,21,22
 329 188 329 188 361 143 c 128,-1,23
 393 98 393 98 463.182 98 c 128,-1,24
 533.364 98 533.364 98 599.5 146.5 c 2,25,-1
 622 163 l 1,26,-1
 641 119 l 1,27,28
 595 53 595 53 527.5 14.5 c 128,-1,29
 460 -24 460 -24 386 -24 c 0,0,1
EndSplineSet
Colour: ffffff
EndChar

StartChar: tcaron
Encoding: 357 357 181
Width: 640
VWidth: 0
Flags: W
HStem: -24 122<356.328 531.262> 552 58<567.551 619.698> 768 72<327 602> 771 40<66 102.861> 924 144<602.411 705.021>
VStem: 189 134<144.425 768> 280 47<1015.54 1068> 734 118<708.286 893.14>
DStem2: 616 163 521.5 14.5 0.806405 0.591364<-151.965 -10.6983>
LayerCount: 2
Fore
SplineSet
380 -24 m 0,0,1
 187.09 -24 187.09 -24 189 251 c 2,2,-1
 193 771 l 1,3,-1
 66 771 l 1,4,-1
 66 811 l 1,5,6
 201 872 201 872 280 1068 c 1,7,-1
 327 1068 l 1,8,-1
 327 840 l 1,9,-1
 610 840 l 1,10,-1
 602 768 l 1,11,-1
 326 768 l 1,12,-1
 323 310 l 2,13,14
 323 188 323 188 355 143 c 128,-1,15
 387 98 387 98 457.182 98 c 128,-1,16
 527.364 98 527.364 98 593.5 146.5 c 2,17,-1
 616 163 l 1,18,-1
 635 119 l 1,19,20
 589 53 589 53 521.5 14.5 c 128,-1,21
 454 -24 454 -24 380 -24 c 0,0,1
554 610 m 1,22,23
 734 669 734 669 734 800 c 0,24,25
 734 853 734 853 702 888.5 c 128,-1,26
 670 924 670 924 622 924 c 0,27,28
 607 924 607 924 593 921 c 1,29,30
 585 945 585 945 585 977.5 c 128,-1,31
 585 1010 585 1010 617.5 1039 c 128,-1,32
 650 1068 650 1068 702.5 1068 c 128,-1,33
 755 1068 755 1068 803.5 1014 c 128,-1,34
 852 960 852 960 852 868.571 c 128,-1,35
 852 777.143 852 777.143 812.5 715.071 c 0,36,37
 739.111 599.746 739.111 599.746 572 552 c 1,38,-1
 554 610 l 1,22,23
EndSplineSet
Colour: ffffff
EndChar

StartChar: thorn
Encoding: 254 254 182
Width: 961
VWidth: 0
Flags: W
HStem: -370 59<45 120.14 402.128 472> -17 83<377.358 640.68> 792 106<448.977 658.829> 1196 54<52 95.2> 1250 20G<52 329>
VStem: 197 129<-282 720.215 740 1154> 760 145<237.127 669.053>
LayerCount: 2
Fore
SplineSet
39 -370 m 1,0,-1
 45 -311 l 1,1,-1
 197 -282 l 1,2,-1
 194 1154 l 1,3,-1
 44 1196 l 1,4,-1
 52 1250 l 1,5,-1
 313 1270 l 1,6,-1
 329 1254 l 1,7,-1
 329 849 l 1,8,-1
 317 740 l 1,9,-1
 326 740 l 1,10,11
 454 898 454 898 595 898 c 128,-1,12
 736 898 736 898 820.5 785.5 c 128,-1,13
 905 673 905 673 905 465 c 128,-1,14
 905 257 905 257 785.5 120 c 128,-1,15
 666 -17 666 -17 483 -17 c 0,16,17
 425 -17 425 -17 377 -4 c 1,18,-1
 373 82 l 1,19,20
 424 66 424 66 501 66 c 0,21,22
 627 66 627 66 693.5 162 c 128,-1,23
 760 258 760 258 760 425 c 128,-1,24
 760 592 760 592 704.5 692 c 128,-1,25
 649 792 649 792 537 792 c 0,26,27
 475 792 475 792 425 760.5 c 128,-1,28
 375 729 375 729 326 678 c 1,29,-1
 326 -283 l 1,30,-1
 482 -309 l 1,31,-1
 472 -370 l 1,32,-1
 39 -370 l 1,0,-1
EndSplineSet
Colour: ffffff
EndChar

StartChar: three
Encoding: 51 51 183
Width: 959
VWidth: 0
Flags: W
HStem: -33 69<282.256 544.676> 1137 74<310.83 540.497>
VStem: 133 67<269.214 342> 156 64<844 907.681> 614 167<810.611 1070.14> 661 166<178.673 428.776>
LayerCount: 2
Fore
SplineSet
88 90 m 1,0,-1
 133 353 l 1,1,-1
 200 342 l 1,2,-1
 210 138 l 1,3,4
 233 98 233 98 287.5 67 c 128,-1,5
 342 36 342 36 405 36 c 0,6,7
 520 36 520 36 590.5 105.5 c 128,-1,8
 661 175 661 175 661 290.5 c 128,-1,9
 661 406 661 406 566 479 c 128,-1,10
 471 552 471 552 325 555 c 1,11,-1
 319 605 l 1,12,-1
 364 625.5 l 1,13,14
 455.894 669.15 455.894 669.15 504.947 715.575 c 128,-1,15
 554 762 554 762 572 790 c 0,16,17
 614 855.333 614 855.333 614 933.167 c 128,-1,18
 614 1011 614 1011 566.5 1074 c 128,-1,19
 519 1137 519 1137 426 1137 c 128,-1,20
 333 1137 333 1137 263 1057 c 1,21,-1
 220 833 l 1,22,-1
 156 844 l 1,23,-1
 149 1092 l 1,24,25
 195 1136 195 1136 284.5 1173.5 c 128,-1,26
 374 1211 374 1211 492.5 1211 c 128,-1,27
 611 1211 611 1211 696 1142 c 128,-1,28
 781 1073 781 1073 781 959 c 0,29,30
 781 797 781 797 605.5 689 c 0,31,32
 560 661 560 661 512 643 c 1,33,-1
 512 633 l 1,34,35
 651 613 651 613 739 537 c 128,-1,36
 827 461 827 461 827 350 c 128,-1,37
 827 239 827 239 765 151.5 c 128,-1,38
 703 64 703 64 602 15.5 c 128,-1,39
 501 -33 501 -33 393 -33 c 128,-1,40
 285 -33 285 -33 201 3.5 c 128,-1,41
 117 40 117 40 88 90 c 1,0,-1
EndSplineSet
Substitution2: "'sups' Superscript lookup 0 subtable" three.superior
Colour: ffffff
EndChar

StartChar: three.osf
Encoding: 65544 -1 184
Width: 717
VWidth: 0
Flags: W
HStem: -295 75<178.765 419.488> -44 20G<72 103.5> 875 104<214.884 423.676>
VStem: -17 113<-138.812 -51.5416> 472 153<568.036 821.031> 517 149<-86.3663 175.497>
LayerCount: 2
Fore
SplineSet
-17 -135 m 0,0,1
 -17 -97 -17 -97 15.5 -62.5 c 128,-1,2
 48 -28 48 -28 96 -24 c 1,3,4
 111 -106 111 -106 158 -163 c 128,-1,5
 205 -220 205 -220 283 -220 c 0,6,7
 399 -220 399 -220 458 -149 c 128,-1,8
 517 -78 517 -78 517 34.5 c 128,-1,9
 517 147 517 147 429.5 223.5 c 128,-1,10
 342 300 342 300 199 305 c 1,11,-1
 194 355 l 1,12,13
 295.869 393.71 295.869 393.71 357.935 449.355 c 0,14,15
 472 551.621 472 551.621 472 676 c 0,16,17
 472 760 472 760 434.5 817.5 c 128,-1,18
 397 875 397 875 318 875 c 0,19,20
 182 875 182 875 115 686 c 1,21,-1
 48 708 l 1,22,23
 73 809 73 809 162 894 c 128,-1,24
 251 979 251 979 367.5 979 c 128,-1,25
 484 979 484 979 554.5 906 c 128,-1,26
 625 833 625 833 625 722 c 0,27,28
 625 563.5 625 563.5 461 441.5 c 0,29,30
 420 411 420 411 380 394 c 1,31,-1
 380 386 l 1,32,33
 493 376 493 376 579.5 286 c 128,-1,34
 666 196 666 196 666 88.5 c 128,-1,35
 666 -19 666 -19 611 -104.5 c 128,-1,36
 556 -190 556 -190 461 -242.5 c 128,-1,37
 366 -295 366 -295 255 -295 c 128,-1,38
 144 -295 144 -295 63.5 -248.5 c 128,-1,39
 -17 -202 -17 -202 -17 -135 c 0,0,1
EndSplineSet
Colour: ffffff
EndChar

StartChar: threequarters
Encoding: 190 190 185
Width: 1737
VWidth: 0
Flags: W
HStem: -0 55<804 870.686 1140.53 1193> 192 82<748 952 1080 1219> 508 68<111.368 311.887> 876 39<140 175.614> 1191 20G<907.668 1056> 1214 72<122.413 291.468>
VStem: 26 59<724.075 759 1052 1101.02> 322 148<1014.18 1184.12> 364 146<619.197 814.832> 952 128<76 188 274 532>
DStem2: 642 250 748 274 0.636383 0.771373<85.9696 414.806>
LayerCount: 2
Fore
SplineSet
748 274 m 1,0,-1
 952 274 l 1,1,-1
 952 532 l 1,2,-1
 748 274 l 1,0,-1
642 250 m 1,3,-1
 1038 730 l 1,4,-1
 1088 721 l 1,5,6
 1080 626 1080 626 1080 425 c 2,7,-1
 1080 274 l 1,8,-1
 1228 274 l 1,9,-1
 1219 188 l 1,10,-1
 1080 188 l 1,11,-1
 1080 74 l 1,12,-1
 1199 55 l 1,13,-1
 1193 -0 l 1,14,-1
 799 -0 l 1,15,-1
 804 50 l 1,16,-1
 954 76 l 1,17,-1
 954 192 l 1,18,-1
 652 192 l 1,19,-1
 642 250 l 1,3,-1
189 -26 m 1,20,-1
 566 588 l 1,21,-1
 919 1211 l 1,22,-1
 1056 1207 l 1,23,-1
 1053 1190 l 1,24,-1
 687 591 l 1,25,-1
 340 -40 l 1,26,-1
 189 -26 l 1,20,-1
-8 595 m 1,27,-1
 26 766 l 1,28,-1
 85 759 l 1,29,-1
 91 632 l 1,30,31
 127.522 576 127.522 576 225.5 576 c 0,32,33
 279 576 279 576 321.5 617.5 c 128,-1,34
 364 659 364 659 364 724.5 c 128,-1,35
 364 790 364 790 297 832 c 128,-1,36
 230 874 230 874 140 876 c 1,37,-1
 132 915 l 1,38,39
 236.369 955.84 236.369 955.84 279.184 998.248 c 128,-1,40
 322 1040.66 322 1040.66 322 1089.83 c 128,-1,41
 322 1139 322 1139 293.5 1176.5 c 128,-1,42
 265 1214 265 1214 205.5 1214 c 128,-1,43
 146 1214 146 1214 122 1188 c 1,44,-1
 94 1046 l 1,45,-1
 32 1052 l 1,46,-1
 28 1208 l 1,47,48
 54 1239 54 1239 120 1262.5 c 128,-1,49
 186 1286 186 1286 268.5 1286 c 128,-1,50
 351 1286 351 1286 410.5 1242 c 128,-1,51
 470 1198 470 1198 470 1126.5 c 128,-1,52
 470 1055 470 1055 419.5 1008 c 128,-1,53
 369 961 369 961 292 937 c 1,54,-1
 292 930 l 1,55,56
 395 918 395 918 452.5 867.5 c 128,-1,57
 510 817 510 817 510 730 c 128,-1,58
 510 643 510 643 416.5 575.5 c 128,-1,59
 323 508 323 508 198 508 c 0,60,61
 125 508 125 508 68.5 532 c 128,-1,62
 12 556 12 556 -8 595 c 1,27,-1
EndSplineSet
Colour: ffffff
EndChar

StartChar: three.superior
Encoding: 179 179 186
Width: 650
VWidth: 0
Flags: W
HStem: 511 68<173.297 376.364> 1217 71<185.928 354.232>
VStem: 89 59<725.057 762 1055 1102.19> 386 147<1016.9 1185.9> 427 147<622.589 817.332>
LayerCount: 2
Fore
SplineSet
56 598 m 1,0,-1
 89 768 l 1,1,-1
 148 762 l 1,2,-1
 154 634 l 1,3,4
 191.5 579 191.5 579 289.5 579 c 0,5,6
 343 579 343 579 385 620 c 128,-1,7
 427 661 427 661 427 726.5 c 128,-1,8
 427 792 427 792 360.5 834 c 128,-1,9
 294 876 294 876 204 878 c 1,10,-1
 196 918 l 1,11,12
 293.492 956.149 293.492 956.149 339.746 997.074 c 128,-1,13
 386 1038 386 1038 386 1089.5 c 128,-1,14
 386 1141 386 1141 357 1179 c 128,-1,15
 328 1217 328 1217 269.5 1217 c 128,-1,16
 211 1217 211 1217 186 1190 c 1,17,-1
 158 1049 l 1,18,-1
 95 1055 l 1,19,-1
 91 1210 l 1,20,21
 117 1241 117 1241 183 1264.5 c 128,-1,22
 249 1288 249 1288 331.5 1288 c 128,-1,23
 414 1288 414 1288 473.5 1244.5 c 128,-1,24
 533 1201 533 1201 533 1129.5 c 128,-1,25
 533 1058 533 1058 482.5 1011 c 128,-1,26
 432 964 432 964 355 940 c 1,27,-1
 355 933 l 1,28,29
 458 921 458 921 516 870.5 c 128,-1,30
 574 820 574 820 574 733 c 128,-1,31
 574 646 574 646 480.5 578.5 c 128,-1,32
 387 511 387 511 262 511 c 0,33,34
 189 511 189 511 132.5 535 c 128,-1,35
 76 559 76 559 56 598 c 1,0,-1
EndSplineSet
Colour: ffffff
EndChar

StartChar: tilde
Encoding: 732 732 187
Width: 798
VWidth: 0
Flags: W
HStem: 1371 161
VStem: 108 468
DStem2: 255 1520 220 1433 0.97926 -0.202606<-68.8276 262.532>
LayerCount: 2
Fore
SplineSet
108 1381 m 1,0,1
 126.809 1446.83 126.809 1446.83 148.904 1473.91 c 0,2,3
 197.156 1533.06 197.156 1533.06 255 1520 c 1,4,-1
 458 1478 l 1,5,6
 502 1466 502 1466 534 1532 c 1,7,-1
 576 1530 l 1,8,9
 546.316 1426.11 546.316 1426.11 480 1396.5 c 0,10,11
 452 1384 452 1384 421 1391 c 2,12,-1
 220 1433 l 1,13,14
 179.117 1443.22 179.117 1443.22 141 1371 c 1,15,-1
 108 1381 l 1,0,1
EndSplineSet
Colour: ffffff
EndChar

StartChar: trademark
Encoding: 8482 8482 188
Width: 1138
VWidth: 0
Flags: W
HStem: 684 44<183 230.925 375.111 428 584 637.862 724.445 796 1104 1158.58 1271.38 1345> 1089 155<49 101> 1197 47<121 260 352 497 615 671.889 1256.05 1318>
VStem: 49 52<1089 1165> 260 92<743 1197> 509 53<1088 1197>
DStem2: 659 741 719 738 0.0782348 0.996935<1.70328 420.926> 850 1158 751 1156 0.341075 -0.940036<-31.8864 351.831> 961 824 985 710 0.34618 0.938168<0 389.543> 1242 1188 1154 1168 0.0532576 -0.998581<15.2849 443.064>
LayerCount: 2
Fore
SplineSet
45 1244 m 1,0,-1
 577 1244 l 1,1,-1
 562 1083 l 1,2,-1
 509 1088 l 1,3,-1
 497 1197 l 1,4,-1
 352 1197 l 1,5,-1
 352 741 l 1,6,-1
 434 728 l 1,7,-1
 428 684 l 1,8,-1
 180 684 l 1,9,-1
 183 725 l 1,10,-1
 260 743 l 1,11,-1
 260 1197 l 1,12,-1
 121 1197 l 1,13,-1
 101 1084 l 1,14,-1
 49 1089 l 1,15,-1
 45 1244 l 1,0,-1
580 684 m 1,16,-1
 584 723 l 1,17,-1
 659 741 l 1,18,-1
 694 1187 l 1,19,-1
 611 1204 l 1,20,-1
 615 1244 l 1,21,-1
 817 1244 l 1,22,-1
 850 1158 l 1,23,-1
 961 824 l 1,24,-1
 1095 1175 l 1,25,-1
 1125 1244 l 1,26,-1
 1322 1244 l 1,27,-1
 1318 1204 l 1,28,-1
 1242 1188 l 1,29,-1
 1266 738 l 1,30,-1
 1347 726 l 1,31,-1
 1345 684 l 1,32,-1
 1100 684 l 1,33,-1
 1104 723 l 1,34,-1
 1180 741 l 1,35,-1
 1154 1168 l 1,36,-1
 985 710 l 1,37,-1
 915 704 l 1,38,-1
 751 1156 l 1,39,-1
 719 738 l 1,40,-1
 801 726 l 1,41,-1
 796 684 l 1,42,-1
 580 684 l 1,16,-1
EndSplineSet
Colour: ffffff
EndChar

StartChar: two
Encoding: 50 50 189
Width: 959
VWidth: 0
Flags: W
HStem: 0 118<241 740> 1128 81<313.057 580.979>
VStem: 151 57<788 864.268> 669 174<673.397 1033.78>
DStem2: 70 74 241 118 0.759257 0.650791<158.468 702.615>
LayerCount: 2
Back
SplineSet
874.37 0 m 5,0,-1
 96.7002 0 l 1,1,-1
 90.5918 103.824 l 1,2,-1
 330.815 312.493 l 1,3,4
 435.658 405.121 l 129,-1,5
 476.374 442.783 476.374 442.783 529.813 500.803 c 128,-1,6
 583.252 558.821 583.252 558.821 613.789 606.663 c 128,-1,7
 644.326 654.505 644.326 654.505 666.72 715.069 c 128,-1,8
 689.113 775.632 689.113 775.632 689.113 835.689 c 0,9,10
 689.113 1093.23 689.113 1093.23 480.445 1092.2 c 0,11,12
 313.51 1092.2 313.51 1092.2 211.722 833.654 c 1,13,-1
 128.255 864.191 l 1,14,15
 143.522 929.336 143.522 929.336 180.676 993.972 c 128,-1,16
 217.828 1058.6 217.828 1058.6 270.25 1111.54 c 128,-1,17
 322.672 1164.47 322.672 1164.47 393.924 1197.55 c 128,-1,18
 465.177 1230.64 465.177 1230.64 541.52 1230.63 c 0,19,20
 705.398 1230.63 705.398 1230.63 789.885 1140.04 c 128,-1,21
 874.371 1049.44 874.371 1049.44 874.37 880.477 c 0,22,23
 874.37 827.549 874.37 827.549 859.102 774.617 c 128,-1,24
 843.832 721.685 843.832 721.685 821.439 676.898 c 128,-1,25
 799.041 632.103 799.041 632.103 762.401 583.252 c 128,-1,26
 725.757 534.394 725.757 534.394 692.167 498.259 c 128,-1,27
 658.576 462.122 658.576 462.122 610.735 417.337 c 128,-1,28
 562.894 372.548 562.894 372.548 529.813 345.065 c 130,-1,29
 447.872 276.867 l 129,-1,30
 376.62 216.811 l 1,31,-1
 283.992 136.397 l 1,32,-1
 763.42 136.397 l 1,33,-1
 861.137 317.583 l 1,34,-1
 931.372 307.404 l 1,35,-1
 874.37 0 l 5,0,-1
EndSplineSet
Fore
SplineSet
70 74 m 1,0,-1
 308 278 l 2,1,2
 488.706 433.446 488.706 433.446 578.853 560.016 c 128,-1,3
 669 686.586 669 686.586 669 825.793 c 128,-1,4
 669 965 669 965 617.5 1046.5 c 128,-1,5
 566 1128 566 1128 455 1128 c 0,6,7
 380 1128 380 1128 326.5 1097 c 128,-1,8
 273 1066 273 1066 249 1021 c 1,9,-1
 208 780 l 1,10,-1
 151 788 l 1,11,-1
 141 1057 l 1,12,13
 184 1115 184 1115 288 1162 c 128,-1,14
 392 1209 392 1209 501 1209 c 0,15,16
 659 1209 659 1209 751 1120 c 128,-1,17
 843 1031 843 1031 843 860 c 0,18,19
 843 775.875 843 775.875 820.5 722.438 c 0,20,21
 776.549 618.053 776.549 618.053 736.5 567.5 c 2,22,-1
 684.5 502 l 2,23,24
 663 475 663 475 621 435.5 c 2,25,-1
 554 373 l 2,26,27
 529 350 529 350 478 308 c 2,28,-1
 241 118 l 1,29,-1
 740 118 l 1,30,-1
 835 361 l 1,31,-1
 890 353 l 1,32,-1
 843 0 l 1,33,-1
 76 0 l 1,34,-1
 70 74 l 1,0,-1
EndSplineSet
Substitution2: "'sups' Superscript lookup 0 subtable" two.superior
Colour: ffffff
EndChar

StartChar: two.osf
Encoding: 65545 -1 190
Width: 803
VWidth: 0
Flags: W
HStem: 0 116<223 636> 882 97.4815<265.197 482.367>
VStem: 81 65<680.707 738.812> 537 163<531.874 825.451>
DStem2: 54 74 223 116 0.777735 0.628592<157.838 560.897>
LayerCount: 2
Fore
SplineSet
54 74 m 1,0,-1
 301 278 l 2,1,2
 537 472.7 537 472.7 537 668.5 c 0,3,4
 537 771 537 771 493.5 826.5 c 128,-1,5
 450 882 450 882 375.5 882 c 128,-1,6
 301 882 301 882 236.5 817.5 c 128,-1,7
 172 753 172 753 146 662 c 1,8,-1
 81 686 l 1,9,10
 99.3545 785.93 99.3545 785.93 196.475 881.947 c 128,-1,11
 293.595 977.963 293.595 977.963 424.297 979.482 c 128,-1,12
 555 981 555 981 627.5 903.5 c 128,-1,13
 700 826 700 826 700 698.664 c 0,14,15
 700 512.143 700 512.143 482.964 326.112 c 1,16,-1
 391.5 249 l 1,17,-1
 223 116 l 1,18,-1
 636 116 l 1,19,-1
 714 295 l 1,20,-1
 769 287 l 1,21,-1
 723 0 l 1,22,-1
 60 0 l 1,23,-1
 54 74 l 1,0,-1
EndSplineSet
Colour: ffffff
EndChar

StartChar: two.superior
Encoding: 178 178 191
Width: 631
VWidth: 0
Flags: W
HStem: 548 104<191 484> 1194 80<168.424 370.959>
VStem: 88 55<1019 1097.63> 405 153<932.589 1165.58>
DStem2: 200 750 320 744.5 0.778891 0.627159<-24.4901 266.727>
LayerCount: 2
Fore
SplineSet
405 1037.5 m 0,0,1
 405 1194 405 1194 271.5 1194 c 0,2,3
 197 1194 197 1194 167 1154 c 1,4,-1
 143 1014 l 1,5,-1
 88 1019 l 1,6,-1
 83 1184 l 1,7,8
 110 1224 110 1224 179.5 1249 c 128,-1,9
 249 1274 249 1274 342 1274 c 128,-1,10
 435 1274 435 1274 496.5 1223 c 128,-1,11
 558 1172 558 1172 558 1084.47 c 128,-1,12
 558 996.936 558 996.936 524.5 948.468 c 0,13,14
 466.128 864.016 466.128 864.016 398 807.5 c 1,15,-1
 320 744.5 l 2,16,17
 286 718 286 718 226 675 c 1,18,-1
 191 652 l 1,19,-1
 484 652 l 1,20,-1
 546 802 l 1,21,-1
 592 790 l 1,22,-1
 572 548 l 1,23,-1
 44 548 l 1,24,-1
 46 626 l 1,25,-1
 200 750 l 2,26,27
 308 838 308 838 356.5 903.5 c 128,-1,28
 405 969 405 969 405 1037.5 c 0,0,1
EndSplineSet
Colour: ffffff
EndChar

StartChar: u
Encoding: 117 117 192
Width: 1013
VWidth: 0
Flags: W
HStem: -24 110<383.838 591.769> -1 59<933 980> 800 53<62 102.342 554 596.929> 854 20G<73.8571 327 598.333 834>
VStem: 199 128<144.188 757> 705 129<145.461 754>
LayerCount: 2
Fore
SplineSet
705 132 m 1,0,1
 600.316 -24 600.316 -24 427 -24 c 0,2,3
 199 -24 199 -24 199 275 c 2,4,-1
 199 757 l 1,5,-1
 54 800 l 1,6,-1
 62 853 l 1,7,-1
 311 874 l 1,8,-1
 327 857 l 1,9,-1
 327 317 l 2,10,11
 327 86 327 86 499 86 c 0,12,13
 614 86 614 86 705 187 c 1,14,-1
 705 754 l 1,15,-1
 548 790 l 1,16,-1
 554 850 l 1,17,-1
 820 874 l 1,18,-1
 834 857 l 1,19,-1
 834 223 l 2,20,21
 834 148 834 148 855 114.5 c 128,-1,22
 876 81 876 81 933 70 c 1,23,-1
 987 58 l 1,24,-1
 980 -1 l 1,25,26
 912 -21 912 -21 850.5 -21 c 128,-1,27
 789 -21 789 -21 753 19 c 128,-1,28
 717 59 717 59 717 120 c 2,29,-1
 717 132 l 1,30,-1
 705 132 l 1,0,1
EndSplineSet
Colour: ffffff
EndChar

StartChar: underscore
Encoding: 95 95 193
Width: 869
VWidth: 0
Flags: W
HStem: -133 86<26 844>
LayerCount: 2
Fore
SplineSet
14 -133 m 1,0,-1
 26 -47 l 1,1,-1
 854 -47 l 1,2,-1
 844 -133 l 1,3,-1
 14 -133 l 1,0,-1
EndSplineSet
Colour: ffffff
EndChar

StartChar: uniF001
Encoding: 61441 61441 194
Width: 1171
VWidth: 0
Flags: W
HStem: 0 51<82 142.53 525.834 607 710 769.733 1087.89 1140> 779 70<368 613> 779 54<97 186.926> 801 52<716 761.148> 855 20G<739.545 991> 1081 217<854.785 985.668> 1220 85<439.023 616.953>
VStem: 234 134<91 779 855 1069.74> 829 184<1113.49 1268.09> 860 131<87 760>
LayerCount: 2
Fore
SplineSet
853.5 1112.5 m 128,-1,1
 829 1144 829 1144 829 1193 c 128,-1,2
 829 1242 829 1242 854 1270 c 128,-1,3
 879 1298 879 1298 919.5 1298 c 128,-1,4
 960 1298 960 1298 986.5 1269 c 128,-1,5
 1013 1240 1013 1240 1013 1191.5 c 128,-1,6
 1013 1143 1013 1143 987 1112 c 128,-1,7
 961 1081 961 1081 919.5 1081 c 128,-1,0
 878 1081 878 1081 853.5 1112.5 c 128,-1,1
697 0 m 1,8,-1
 710 55 l 1,9,-1
 860 87 l 1,10,-1
 860 760 l 1,11,-1
 708 801 l 1,12,-1
 716 853 l 1,13,-1
 975 875 l 1,14,-1
 991 857 l 1,15,-1
 991 87 l 1,16,-1
 1152 57 l 1,17,-1
 1140 0 l 1,18,-1
 697 0 l 1,8,-1
70 0 m 1,19,-1
 82 51 l 1,20,-1
 234 87 l 1,21,-1
 234 779 l 1,22,-1
 85 779 l 1,23,-1
 97 833 l 1,24,-1
 235 855 l 1,25,26
 249.034 1083.56 249.034 1083.56 355.498 1194.28 c 128,-1,27
 461.962 1305 461.962 1305 578 1305 c 0,28,29
 657 1305 657 1305 704.5 1274 c 128,-1,30
 752 1243 752 1243 752 1202 c 0,31,32
 752 1127.11 752 1127.11 683 1099 c 1,33,34
 608 1220 608 1220 513 1220 c 0,35,36
 451 1220 451 1220 410.5 1160 c 128,-1,37
 370 1100 370 1100 369 981 c 2,38,-1
 368 849 l 1,39,-1
 626 849 l 1,40,-1
 613 779 l 1,41,-1
 368 779 l 1,42,-1
 368 91 l 1,43,-1
 614 61 l 1,44,-1
 607 0 l 1,45,-1
 70 0 l 1,19,-1
EndSplineSet
Colour: ffffff
EndChar

StartChar: uniF002
Encoding: 61442 61442 195
Width: 1154
VWidth: 0
Flags: W
HStem: 0 51<82 142.53 525.834 607 692 752.928 1071.28 1124> 779 70<368 613> 779 54<97 186.926> 1197 52<696 743.547> 1214 90<398.102 551.708> 1250 20G<708.476 975>
VStem: 234 134<91 779 855 1100.28> 845 130<87 1156>
LayerCount: 2
Fore
SplineSet
70 0 m 1,0,-1
 82 51 l 1,1,-1
 234 87 l 1,2,-1
 234 779 l 1,3,-1
 85 779 l 1,4,-1
 97 833 l 1,5,-1
 235 855 l 1,6,7
 237.778 1107.78 237.778 1107.78 367 1237 c 0,8,9
 434 1304 434 1304 505 1304 c 0,10,11
 640 1304 640 1304 640 1220 c 0,12,13
 640 1163 640 1163 583 1136 c 1,14,15
 560 1169 560 1169 522.5 1191.5 c 128,-1,16
 485 1214 485 1214 447.5 1214 c 128,-1,17
 410 1214 410 1214 388 1144 c 128,-1,18
 366 1074 366 1074 367 965 c 2,19,-1
 368 849 l 1,20,-1
 626 849 l 1,21,-1
 613 779 l 1,22,-1
 368 779 l 1,23,-1
 368 91 l 1,24,-1
 614 61 l 1,25,-1
 607 0 l 1,26,-1
 70 0 l 1,0,-1
681 0 m 1,27,-1
 692 55 l 1,28,-1
 845 87 l 1,29,-1
 845 1156 l 1,30,-1
 689 1197 l 1,31,-1
 696 1249 l 1,32,-1
 958 1270 l 1,33,-1
 975 1254 l 1,34,-1
 975 87 l 1,35,-1
 1135 57 l 1,36,-1
 1124 0 l 1,37,-1
 681 0 l 1,27,-1
EndSplineSet
Colour: ffffff
EndChar

StartChar: v
Encoding: 118 118 196
Width: 921
VWidth: 0
Flags: W
HStem: -26 21G<426.906 524> 806 55<37 70.6755 386.541 438 564 606.345>
DStem2: 292 771 152 769 0.334308 -0.942464<0 644.773> 501 161 524 -11 0.338165 0.941087<0 643.872>
LayerCount: 2
Fore
SplineSet
30 806 m 1,0,-1
 37 861 l 1,1,-1
 443 861 l 1,2,-1
 438 808 l 1,3,-1
 292 771 l 1,4,-1
 501 161 l 1,5,-1
 713 769 l 1,6,-1
 553 806 l 1,7,-1
 564 861 l 1,8,-1
 923 861 l 1,9,-1
 914 808 l 1,10,-1
 805 771 l 1,11,-1
 524 -11 l 1,12,-1
 434 -26 l 1,13,-1
 152 769 l 1,14,-1
 30 806 l 1,0,-1
EndSplineSet
Colour: ffffff
EndChar

StartChar: w
Encoding: 119 119 197
Width: 1237
VWidth: 0
Flags: W
HStem: -25 21G<369.075 462 819.168 910> 808 55<29 68.8781 346.924 405 892 946.022 1193.54 1240>
DStem2: 270 777 138 775 0.284048 -0.95881<0 595.237> 428 203 462 -9 0.259919 0.96563<0 465.868> 705 817 634 630 0.279944 -0.960016<159.647 646.641> 875 193 910 -9 0.271809 0.962351<0 603.85>
LayerCount: 2
Fore
SplineSet
22 808 m 1,0,-1
 29 863 l 1,1,-1
 412 863 l 1,2,-1
 405 809 l 1,3,-1
 270 777 l 1,4,-1
 391 360 l 1,5,-1
 428 203 l 1,6,-1
 591 798 l 1,7,-1
 705 817 l 1,8,-1
 843 345 l 1,9,-1
 875 193 l 1,10,-1
 1036 775 l 1,11,-1
 885 808 l 1,12,-1
 892 863 l 1,13,-1
 1248 863 l 1,14,-1
 1240 809 l 1,15,-1
 1132 777 l 1,16,-1
 910 -9 l 1,17,-1
 825 -25 l 1,18,-1
 634 630 l 1,19,-1
 462 -9 l 1,20,-1
 375 -25 l 1,21,-1
 138 775 l 1,22,-1
 22 808 l 1,0,-1
EndSplineSet
Colour: ffffff
EndChar

StartChar: wacute
Encoding: 7811 7811 198
Width: 1237
VWidth: 0
Flags: W
HStem: -25 21G<369.075 462 819.168 910> 808 55<29 68.8781 346.924 405 892 946.022 1193.54 1240>
DStem2: 270 777 138 775 0.284048 -0.95881<0 595.237> 428 203 462 -9 0.259919 0.96563<0 465.868> 705 817 634 630 0.279944 -0.960016<159.647 646.641> 875 193 910 -9 0.271809 0.962351<0 603.85>
LayerCount: 2
Fore
SplineSet
22 808 m 1,0,-1
 29 863 l 1,1,-1
 412 863 l 1,2,-1
 405 809 l 1,3,-1
 270 777 l 1,4,-1
 391 360 l 1,5,-1
 428 203 l 1,6,-1
 591 798 l 1,7,-1
 705 817 l 1,8,-1
 843 345 l 1,9,-1
 875 193 l 1,10,-1
 1036 775 l 1,11,-1
 885 808 l 1,12,-1
 892 863 l 1,13,-1
 1248 863 l 1,14,-1
 1240 809 l 1,15,-1
 1132 777 l 1,16,-1
 910 -9 l 1,17,-1
 825 -25 l 1,18,-1
 634 630 l 1,19,-1
 462 -9 l 1,20,-1
 375 -25 l 1,21,-1
 138 775 l 1,22,-1
 22 808 l 1,0,-1
590 1020 m 1,23,-1
 718 1350 l 1,24,-1
 821 1311 l 1,25,-1
 639 990 l 1,26,-1
 590 1020 l 1,23,-1
EndSplineSet
Colour: ffffff
EndChar

StartChar: wgrave
Encoding: 7809 7809 199
Width: 1237
VWidth: 0
Flags: W
HStem: -25 21G<369.075 462 819.168 910> 808 55<29 68.8781 346.924 405 892 946.022 1193.54 1240>
DStem2: 270 777 138 775 0.284048 -0.95881<0 595.237> 428 203 462 -9 0.259919 0.96563<0 465.868> 705 817 634 630 0.279944 -0.960016<159.647 646.641> 875 193 910 -9 0.271809 0.962351<0 603.85>
LayerCount: 2
Fore
SplineSet
22 808 m 1,0,-1
 29 863 l 1,1,-1
 412 863 l 1,2,-1
 405 809 l 1,3,-1
 270 777 l 1,4,-1
 391 360 l 1,5,-1
 428 203 l 1,6,-1
 591 798 l 1,7,-1
 705 817 l 1,8,-1
 843 345 l 1,9,-1
 875 193 l 1,10,-1
 1036 775 l 1,11,-1
 885 808 l 1,12,-1
 892 863 l 1,13,-1
 1248 863 l 1,14,-1
 1240 809 l 1,15,-1
 1132 777 l 1,16,-1
 910 -9 l 1,17,-1
 825 -25 l 1,18,-1
 634 630 l 1,19,-1
 462 -9 l 1,20,-1
 375 -25 l 1,21,-1
 138 775 l 1,22,-1
 22 808 l 1,0,-1
453 1319 m 1,23,-1
 557 1356 l 1,24,-1
 690 1021 l 1,25,-1
 639 990 l 1,26,-1
 453 1319 l 1,23,-1
EndSplineSet
Colour: ffffff
EndChar

StartChar: x
Encoding: 120 120 200
Width: 934
VWidth: 0
Flags: W
HStem: 0 52<26 68.3614 330.303 377 525 577.927 878.49 918> 815 55<43 81.489 379.712 427 567 605.07 864.908 905>
DStem2: 134 86 244 86 0.624285 0.781197<68.6713 416.63 570.499 891.907> 312 785 154 783 0.580689 -0.814126<0 316.891 427.994 768.136>
LayerCount: 2
Fore
SplineSet
17 0 m 1,0,-1
 26 52 l 1,1,-1
 134 86 l 1,2,-1
 400 431 l 1,3,-1
 154 783 l 1,4,-1
 36 815 l 1,5,-1
 43 870 l 1,6,-1
 437 870 l 1,7,-1
 427 817 l 1,8,-1
 312 785 l 1,9,-1
 496 527 l 1,10,-1
 693 781 l 1,11,-1
 555 815 l 1,12,-1
 567 870 l 1,13,-1
 916 870 l 1,14,-1
 905 816 l 1,15,-1
 801 783 l 1,16,-1
 550 459 l 1,17,-1
 812 84 l 1,18,-1
 926 52 l 1,19,-1
 918 0 l 1,20,-1
 513 0 l 1,21,-1
 525 51 l 1,22,-1
 652 84 l 1,23,-1
 456 362 l 1,24,-1
 244 86 l 1,25,-1
 386 54 l 1,26,-1
 377 0 l 1,27,-1
 17 0 l 1,0,-1
EndSplineSet
Colour: ffffff
EndChar

